<?xml version="1.0" encoding="UTF-8"?><svg xmlns="http://www.w3.org/2000/svg" viewBox="0 0 302.7 448.87"><defs><style>.d{letter-spacing:-.01em;}.e{fill:#fff;}.f{font-family:PlayfairDisplay-Regular, PlayfairDisplay Regular;font-size:29.98px;}.f,.g,.h{fill:#457b9d;}.i{letter-spacing:-.06em;}.j{fill:#ff8a65;}.k{fill:#82bebf;}.l{fill:#0c1624;}.m{letter-spacing:0em;}.h{font-family:Montserrat-Medium, Montserrat;font-size:7.92px;}.n{letter-spacing:.06em;}.o{fill:#de802c;}.p{fill:#140d0c;opacity:.2;}.q{fill:#37627d;}.r{letter-spacing:-.02em;}.s{fill:#ffb59e;}.t{letter-spacing:.1em;}.u{fill:#2a4e80;}.v{letter-spacing:0em;}.w{fill:#a8dadc;}.x{letter-spacing:.09em;}.y{fill:#6b3e15;}.a`{letter-spacing:.09em;}.aa{letter-spacing:0em;}.ab{letter-spacing:-.02em;}.ac{letter-spacing:0em;}.ad{fill:#96252d;}.ae{letter-spacing:0em;}.af{letter-spacing:0em;}.ag{letter-spacing:.09em;}.ah{letter-spacing:-.05em;}.ai{fill:#1d3557;}.aj{letter-spacing:.1em;}.ak{letter-spacing:.08em;}.al{letter-spacing:.02em;}.am{fill:#e63946;}.an{letter-spacing:-.05em;}.ao{fill:#e09680;}</style></defs><g id="a"/><g id="b"><g id="c"><g><g><text class="h" transform="translate(12.36 47.81)"><tspan x="0" y="0">&quot;P</tspan><tspan class="ae" x="8.81" y="0">s</tspan><tspan class="r" x="12.7" y="0">y</tspan><tspan class="aa" x="17" y="0">c</tspan><tspan x="21.47" y="0">hothe</tspan><tspan class="ah" x="45.4" y="0">r</tspan><tspan x="48.28" y="0">a</tspan><tspan class="r" x="53.01" y="0">p</tspan><tspan x="58.29" y="0">y is a the</tspan><tspan class="an" x="93.53" y="0">r</tspan><tspan x="96.41" y="0">apeutic </tspan><tspan x="0" y="11.87">app</tspan><tspan class="d" x="15.53" y="11.87">r</tspan><tspan class="m" x="18.68" y="11.87">o</tspan><tspan x="23.67" y="11.87">a</tspan><tspan class="aa" x="28.4" y="11.87">c</tspan><tspan x="32.87" y="11.87">h that helps individuals n</tspan><tspan class="ae" x="134.16" y="11.87">a</tspan><tspan x="138.82" y="11.87">viga</tspan><tspan class="ab" x="155.64" y="11.87">t</tspan><tspan x="158.78" y="11.87">e </tspan><tspan x="0" y="23.75">and </tspan><tspan class="r" x="17.65" y="23.75">ov</tspan><tspan x="26.87" y="23.75">e</tspan><tspan class="d" x="31.71" y="23.75">r</tspan><tspan class="af" x="34.86" y="23.75">c</tspan><tspan x="39.32" y="23.75">ome emotional </tspan><tspan class="v" x="102.9" y="23.75">c</tspan><tspan x="107.37" y="23.75">hallenges, </tspan><tspan x="0" y="35.62">imp</tspan><tspan class="d" x="15.97" y="35.62">r</tspan><tspan class="r" x="19.12" y="35.62">ov</tspan><tspan x="28.34" y="35.62">e mental </tspan><tspan class="r" x="66.27" y="35.62">w</tspan><tspan x="73.26" y="35.62">ell-being, and enhan</tspan><tspan class="af" x="156.19" y="35.62">c</tspan><tspan x="160.65" y="35.62">e </tspan><tspan x="0" y="47.5">pe</tspan><tspan class="ac" x="10.24" y="47.5">r</tspan><tspan x="13.48" y="47.5">sonal g</tspan><tspan class="d" x="42.4" y="47.5">r</tspan><tspan class="r" x="45.55" y="47.5">o</tspan><tspan class="al" x="50.46" y="47.5">w</tspan><tspan x="57.69" y="47.5">th th</tspan><tspan class="d" x="77.16" y="47.5">r</tspan><tspan x="80.31" y="47.5">ough a </tspan><tspan class="af" x="110.54" y="47.5">c</tspan><tspan x="115" y="47.5">ollabo</tspan><tspan class="ah" x="139.6" y="47.5">r</tspan><tspan x="142.48" y="47.5">ati</tspan><tspan class="r" x="152.7" y="47.5">v</tspan><tspan x="157" y="47.5">e </tspan><tspan x="0" y="59.37">and suppo</tspan><tspan class="al" x="42.8" y="59.37">r</tspan><tspan x="46.17" y="59.37">ti</tspan><tspan class="r" x="51.65" y="59.37">v</tspan><tspan x="55.96" y="59.37">e the</tspan><tspan class="ah" x="76.44" y="59.37">r</tspan><tspan x="79.33" y="59.37">apeutic </tspan><tspan class="d" x="111.8" y="59.37">r</tspan><tspan x="114.95" y="59.37">elationshi</tspan><tspan class="d" x="154.2" y="59.37">p</tspan><tspan class="i" x="159.51" y="59.37">.</tspan><tspan x="160.87" y="59.37">&quot;</tspan></text><text class="f" transform="translate(9.03 25.09)"><tspan class="ak" x="0" y="0">P</tspan><tspan class="aj" x="18.29" y="0">sy</tspan><tspan class="n" x="50.27" y="0"> </tspan><tspan class="a`" x="58.4" y="0">T</tspan><tspan class="t" x="76.08" y="0">he</tspan><tspan class="ag" x="113.73" y="0">r</tspan><tspan class="t" x="126.38" y="0">ap</tspan><tspan class="x" x="163.89" y="0">h</tspan><tspan class="t" x="183.13" y="0">y</tspan></text></g><path class="q" d="M140.2,328.86c-1.91,0-2.27,2.98-.34,2.98s2.27-2.98,.34-2.98Z"/><g><g><path class="am" d="M125.65,215.49H0v34H164.09c-2.33-19.16-18.65-34-38.44-34Z"/><path class="ad" d="M0,249.5v121.45H164.39v-116.72c0-1.6-.11-3.18-.3-4.73H0Z"/><rect class="ad" y="370.95" width="176.91" height="37.71"/></g><g><g><g><path class="k" d="M124.17,261.38c.11-11.01,.29-22.11,1.86-34.9,.82-6.67-1.94-19.97-4.61-26.14-2.67-6.17-8.93-11.34-15.6-10.49-4.73,.6-8.72,4.09-11.08,8.23-2.36,4.15-3.34,8.91-4.18,13.61-2.82,15.94-3.98,32.29-3.75,48.67,11.93,3.92,25.77,5.13,37.34,1.03Z"/><path class="w" d="M126.15,222.56c-.24-7.08-2.51-17.1-4.73-22.23-2.67-6.17-8.93-11.34-15.6-10.49-4.73,.6-8.72,4.09-11.08,8.23-2.36,4.15-3.34,8.91-4.18,13.61-2.62,14.81-3.79,29.97-3.76,45.17,14.54-9.63,27.95-20.76,39.34-34.3Z"/><path class="o" d="M122.3,305.02c1.76-14.32,1.75-31.32,1.87-43.64-11.58,4.1-25.41,2.89-37.34-1.03,.3,20.9,2.89,41.84,7.3,62.08,.69,3.18,3.19,5.3,6.07,6.82,22.48,11.94,27.77,16.15,51.8,22.39,1.79-2.69,6.57-4.62,8.37-7.31q-17.52-16.86-38.06-39.31Z"/></g><g><path class="o" d="M148.74,342.15c7.95-2.13,16.14-3.46,24.39-3.94,2.28-.13,4.82-.11,6.5,1.4,1.84,1.67,1.86,4.42,1.75,6.85-.16,3.37-.5,7.13-3.13,9.32-2.24,1.86-5.48,2.01-8.44,1.8-7.97-.59-15.79-3.23-22.44-7.57l1.38-7.86Z"/><path class="o" d="M177.31,338.38c3.4,.5,6.81,1,10.21,1.49,1.07,2.57,2.34,5.08,3.41,7.65-.49,2.18-.91,4.87-1.4,7.05-2.05-1.2-3.08-4.35-2.04-6.48-.79-1.02-1.44-2.65-2.23-3.67-2.7-.39-5.65-1.26-8.35-1.64l.4-4.41Z"/><path class="o" d="M174.49,343.55c3.4,.5,6.81,1,10.21,1.49,1.07,2.57,2.34,5.08,3.41,7.65-.49,2.18-.91,4.87-1.4,7.05-2.05-1.2-3.08-4.35-2.04-6.48-.79-1.02-1.44-2.65-2.23-3.67-2.7-.39-5.65-1.26-8.35-1.64l.4-4.41Z"/><path class="o" d="M171.09,346.16c3.4,.5,6.81,1,10.21,1.49,1.07,2.57,2.34,5.08,3.41,7.65-.49,2.18-.9,4.87-1.4,7.05-2.05-1.2-3.08-4.35-2.04-6.48-.79-1.02-1.44-2.65-2.23-3.67-2.7-.39-5.65-1.26-8.35-1.64l.4-4.41Z"/><path class="o" d="M167.69,349.07c3.4,.5,6.81,1,10.21,1.49,1.07,2.57,2.34,5.08,3.41,7.65-.49,2.18-.91,4.87-1.4,7.05-2.05-1.2-3.08-4.35-2.04-6.48-.79-1.02-1.44-2.65-2.23-3.67-2.7-.38-5.65-1.26-8.35-1.64l.4-4.41Z"/></g></g><g><g><g><path class="w" d="M110.98,189.96c-4.02-2.69-61.94-5.14-82.66,1.3-5.7,1.77-11.52,7.44-12.49,12.64-.75,3.95-.37,7.76,0,11.56,1.86,19.44,3.19,39.72,4.23,60.18,.53,10.53,.99,21.12,1.36,31.65-.21,5.16,.56,32.95,.6,37.84-.61,9.11,72.67,24.23,95.75,3.19,3.59-4.36,.8-17.74,.51-22.75-.72-12.55-2.59-25.15-2.01-37.64,1.24-26.65,.94-53.15,.59-79.82-.1-7.79,1.05-13.52-5.87-18.15Z"/><path class="w" d="M116.27,287.93c1.24-26.65,.94-53.15,.59-79.82-.1-7.79,1.05-13.52-5.87-18.15-4.02-2.69-61.94-5.14-82.66,1.3-5.7,1.77-11.52,7.44-12.49,12.64-.75,3.95-.37,7.76,0,11.56,.11,1.16,.21,2.34,.32,3.51,13.53,34.61,29.59,71.85,66.5,85.92-6,1-12-1-18-1,15.41,11.99,34.41,18.75,53.46,19.19-.8-11.72-2.39-23.48-1.85-35.14Z"/><path class="k" d="M82.65,304.88c-36.92-14.06-52.97-51.3-66.5-85.92,1.69,18.37,2.93,37.43,3.91,56.67,.53,10.53,.99,21.12,1.36,31.65-.21,5.16,.56,32.95,.6,37.84-.61,9.11,72.67,24.23,95.75,3.19,3.59-4.36,.8-17.74,.51-22.75-.05-.83-.1-1.67-.16-2.5-19.05-.44-38.05-7.21-53.46-19.19,6,0,12,2,18,1Z"/><path class="k" d="M21.42,307.29c-.37-10.54-.83-21.12-1.36-31.65-.89-17.37-2-34.6-3.44-51.3,7.82,28.68,4.2,62.02,18.1,92.32,2.81,5.82,4.89,13.93,12.62,17.39-4.85,0-14.98-3.47-13.35,0,18.73,31.13,61.13,27.82,84.87,11.08-.19,1.59-.54,2.7-1.09,3.2-23.08,21.03-97.96,14.77-95.75-3.19,.6-4.85-.8-32.68-.6-37.84Z"/></g><path class="l" d="M151.19,408.66h38.78c4.06-16.34,5.39-51.46-1.65-55.88-8.31-5.22-81.02-12.09-97.98-7.27-4.76,1.35-9.42,3.24-14.34,3.82-3.13,.37-6.15,.02-9.14-.91-1.65-.51-3.76-1.56-5.39-.47-1.98,1.32-2.82,5.08-3.45,7.22-.85,2.91-1.32,5.94-1.39,8.97-.08,3.32,.32,6.66,1.22,9.86,2.9,10.27,10.94,18.96,20.96,22.64,9.79,3.6,20.6,2.52,30.97,1.4l41.03-4.46s-.2,7.75,.36,15.07Z"/><g><path class="ai" d="M112.15,408.66h38.78c4.06-16.34,5.39-51.46-1.65-55.88-8.31-5.22-81.02-12.09-97.98-7.27-4.76,1.35-9.42,3.24-14.34,3.82-3.13,.37-6.15,.02-9.14-.91-1.65-.51-3.76-1.56-5.39-.47-1.98,1.32-2.82,5.08-3.45,7.22-.85,2.91-1.32,5.94-1.39,8.97-.08,3.32,.32,6.66,1.22,9.86,2.9,10.27,10.94,18.96,20.96,22.64,9.79,3.6,20.6,2.52,30.97,1.4l41.03-4.46s-.2,7.75,.36,15.07Z"/><path class="l" d="M122.83,374.51c-5.33,4.53-9.24,10.67-11.09,17.42-.53,1.92-.89,3.88-1.08,5.87-.06,.64,.93,.76,.99,.11,.65-6.77,3.38-13.26,7.72-18.5,1.24-1.49,2.61-2.87,4.09-4.12,.49-.42-.14-1.19-.63-.78Z"/><path class="l" d="M117.78,367.79c-5.27,6.3-8.47,14.22-9.07,22.41-.05,.64,.95,.76,.99,.11,.59-8.03,3.72-15.76,8.89-21.94,.41-.49-.4-1.08-.81-.59Z"/></g></g><g><g><path class="u" d="M94.97,145.35c1.44-6.95,3.19-14.3-2.78-19.74-2.2-2-4.95-3.31-7.79-4.16-12.75-3.82-26.66,1.77-31.46,14.58-3.05,8.12-1.74,17.63,2.97,24.91,2.52,3.89,5.89,7.13,9.23,10.33,9.58-8.28,19.22-16.49,28.73-24.83,.4-.35,.99-.6,1.09-1.09Z"/><path class="ai" d="M95.05,146.82c1.35-6.56,3.01-13.49-2.62-18.61-2.07-1.89-4.66-3.12-7.35-3.93-12.03-3.6-25.14,1.67-29.67,13.75-2.87,7.66-1.64,16.62,2.8,23.49,2.37,3.67,5.55,6.72,8.71,9.75,9.03-7.8,18.12-15.55,27.1-23.42,.38-.33,.94-.56,1.03-1.03Z"/><g><path class="o" d="M61.16,159.41c-.76,10.05-2.23,20.07-4.39,29.91-.51,2.33,.36,4.77,2.32,6.12,4.5,3.11,9.79,4.17,15.03,3.07,2.53-.53,4.44-2.62,4.7-5.19,.65-6.4,1.27-12.95,1.94-19.28l-19.61-14.64Z"/><path class="p" d="M61.16,159.41c-.44,5.81-1.12,11.61-2.03,17.37,2.53,5.21,6.77,9.09,12.27,12.01,2.43,1.05,5.03,1.84,7.66,2.24,.57-5.67,1.11-11.41,1.71-16.99l-19.61-14.64Z"/></g><g><path class="o" d="M85.45,179.28c-17.39,2.08-23.66-8.25-23.97-17.27-3.38,.35-6.65-1.95-7.43-5.25-.42-1.76-.12-3.71,.96-5.15,1.09-1.43,2.99-2.26,4.76-1.89,1.76,.35,3.22,2,3.22,3.81l3.84-5.57c.25-3.64,.14-7.98,.39-11.61,8.26-3.83,17.21-4.81,26.19-3.33,1.1,3.02,2.14,8.39,2.14,8.86,.23,16.56,3.92,35.72-10.1,37.39Z"/><path class="y" d="M62.2,155.8c-.3-1.54-.71-3.31-2.12-4.23-1.17-.76-2.87-.72-3.72,.48-.15,.21-.02,.53,.19,.65,.25,.14,.5,.02,.65-.19,.57-.8,1.88-.54,2.54-.02,1.05,.83,1.31,2.36,1.55,3.59,.05,.25,.37,.39,.59,.32,.27-.08,.37-.34,.32-.59Z"/><path class="y" d="M84.25,170.92c-.83-.08-1.67-.16-2.5-.24-.25-.02-.52,.1-.56,.38-.04,.23,.11,.53,.38,.56,.83,.08,1.67,.16,2.5,.24,.25,.02,.52-.1,.56-.38,.04-.23-.11-.53-.38-.56Z"/></g><path class="y" d="M90.78,157.75c-.16-.61-.5-1.16-.81-1.71-.37-.68-.75-1.35-1.12-2.03-.77-1.39-1.54-2.77-2.3-4.16-.3-.55-1.21-.15-.9,.4,.67,1.21,1.34,2.42,2.01,3.63,.65,1.18,1.38,2.34,1.95,3.55,1.19,2.52-2.37,3.45-3.57,5.03-.38,.51,.41,1.09,.79,.58,.75-.99,1.96-1.44,2.85-2.28,.85-.8,1.4-1.84,1.09-3.02Z"/><path class="ai" d="M78.29,148.08c-1.83,0-2.17,2.85-.33,2.85s2.17-2.85,.33-2.85Z"/><path class="ai" d="M91.65,147.53c-1.83,0-2.17,2.85-.33,2.85s2.17-2.85,.33-2.85Z"/><path class="ai" d="M81.98,141.29c-2.62-.55-5.34-.45-7.9,.31-.72,.21-.4,1.33,.32,1.12,2.37-.7,4.89-.81,7.31-.3,.73,.15,1.01-.97,.28-1.13Z"/><path class="ai" d="M94.81,141.29c-2.62-.55-5.34-.45-7.9,.31-.72,.21-.4,1.33,.32,1.12,2.37-.7,4.89-.81,7.31-.3,.73,.15,1.01-.97,.28-1.13Z"/><path class="ai" d="M87.61,166.25c-3.46,.74-7.29,.58-10.59-.39-.9-.27-1.46,.63-.57,.89,3.69,1.09,7.95,1.2,11.79,.37,.94-.2,.3-1.07-.64-.87Z"/></g><path class="k" d="M83.36,196.76c-3.65,3.97-9.46,6.18-15.13,5.64-5.49-.52-10.58-3.56-13.33-7.92-.44-.69-1.7-.19-1.26,.52,2.34,3.71,6.15,6.57,10.62,7.9,4.54,1.35,9.51,1,13.81-.87,2.47-1.07,4.64-2.62,6.4-4.53,.57-.62-.54-1.36-1.11-.74Z"/></g></g><g><g><g><path class="w" d="M45.72,266.11c.11-11.01,.29-22.11,1.86-34.9,.82-6.67-1.94-19.97-4.61-26.14-2.67-6.17-8.93-11.34-15.6-10.49-4.73,.6-8.72,4.09-11.08,8.23-2.36,4.15-3.34,8.91-4.18,13.61-2.82,15.94-3.98,32.29-3.75,48.67,11.93,3.92,25.77,5.13,37.34,1.03Z"/><path class="o" d="M43.85,309.76c1.76-14.32,1.75-31.32,1.87-43.64-11.58,4.1-25.41,2.89-37.34-1.03,.3,20.9,2.89,41.84,7.3,62.08,.69,3.18,2.98,5.79,6.07,6.82,23.86,8.02,51.02,12.82,75.88,13.14,1.79-2.69,2.51-5.38,4.3-8.07-22.36-9.81-35.71-19.49-58.08-29.31Z"/></g><path class="k" d="M47.1,235.29c-.64,10.14-1.29,20.28-1.93,30.42-.04,.64,.95,.76,.99,.11,.64-10.14,1.29-20.28,1.93-30.42,.04-.64-.95-.76-.99-.11Z"/><path class="k" d="M45.28,265.37c-8.6,2.65-17.82,3.18-26.67,1.6-2.52-.45-5-1.07-7.43-1.86-.64-.21-1.03,.77-.38,.98,8.78,2.84,18.21,3.54,27.31,2.04,2.58-.43,5.11-1.04,7.61-1.8,.64-.2,.21-1.15-.43-.96Z"/></g><g><path class="o" d="M90.31,336.87c7.95-2.13,16.14-3.46,24.39-3.94,2.28-.13,4.82-.11,6.5,1.4,1.84,1.67,1.86,4.42,1.75,6.85-.16,3.37-.5,7.13-3.13,9.32-2.24,1.86-5.48,2.01-8.44,1.8-7.97-.59-15.79-3.23-22.44-7.57l1.38-7.86Z"/><path class="o" d="M118.88,333.1c3.4,.5,6.81,1,10.21,1.49,1.07,2.57,2.34,5.08,3.41,7.65-.49,2.18-.9,4.87-1.4,7.05-2.05-1.2-3.08-4.35-2.04-6.48-.79-1.02-1.44-2.65-2.23-3.67-2.7-.39-5.65-1.26-8.35-1.64l.4-4.41Z"/><path class="o" d="M116.06,338.28c3.4,.5,6.81,1,10.21,1.49,1.07,2.57,2.34,5.08,3.41,7.65-.49,2.18-.91,4.87-1.4,7.05-2.05-1.2-3.08-4.35-2.04-6.48-.79-1.02-1.44-2.65-2.23-3.67-2.7-.39-5.65-1.26-8.35-1.64l.4-4.41Z"/><path class="o" d="M112.65,340.89c3.4,.5,6.81,1,10.21,1.49,1.07,2.57,2.34,5.08,3.41,7.65-.49,2.18-.91,4.87-1.4,7.05-2.05-1.2-3.08-4.35-2.04-6.48-.79-1.02-1.44-2.65-2.23-3.67-2.7-.39-5.65-1.26-8.35-1.64l.4-4.41Z"/><path class="o" d="M109.25,343.79c3.4,.5,6.81,1,10.21,1.49,1.07,2.57,2.34,5.08,3.41,7.65-.49,2.18-.91,4.87-1.4,7.05-2.05-1.2-3.08-4.35-2.04-6.48-.79-1.02-1.44-2.65-2.23-3.67-2.7-.39-5.65-1.26-8.35-1.64l.4-4.41Z"/></g></g></g><path class="am" d="M11.91,323.32H29.49c13.33,0,24.15,10.82,24.15,24.15v61.19H7.46v-80.89c0-2.46,2-4.45,4.45-4.45Z"/></g><g><path class="ai" d="M195.67,98.45c-5.3-1.5-10.13-4.73-12.8-9.26-2.67-4.52-2.95-10.34-.2-14.82s8.67-7.24,14.07-6.09c-3.06-5.13-1.16-13.84,1.87-18.98,3.04-5.14,8.44-8.86,14.39-10.77,9.5-3.06,20.56-1.57,28.74,3.87,9.11-7.56,22.02-8.41,32.22-2.18,10.2,6.23,15.05,19.15,11.25,29.95,5.78-.87,12.08,1.98,14.93,6.74,2.85,4.76,3.07,10.57,1.91,15.92-1.16,5.35-3.58,10.37-5.82,15.4-6.3,14.19-11.23,28.91-14.71,43.93-10.83,2.09-18.39,7.04-28.02,12.11-9.72,5.12-21.02-5.96-26.45-15.06-5.43-9.09-7.4-19.61-11.67-29.23s-9.02-18.54-19.71-21.56Z"/><path class="u" d="M190.8,84.34c1.35-3.15,3.57-5.81,6.97-6.73,2.35-.63,4.8-.49,7.21-.68-.2-4.17-.33-8.43,.75-12.48,1.27-4.8,4.43-8.79,8.54-11.52,4.3-2.86,9.6-4.77,14.82-4.48,2.32,.13,4.27,.8,6.38,1.74,1.56,.7,3.22,1.68,4.99,1.41,3.62-.55,6.81-2.88,9.9-4.68,3.56-2.07,7.34-3.87,11.51-4.09,4.01-.21,8.62,.92,12,3.12,2.88,1.88,4.9,4.6,6.08,7.81,2.14,5.83,1.44,12.4,.56,18.51,4.32,.38,8.5,1.85,12,4.46,4.51,3.36,7.78,8,10.03,13.12,.49-4.46-.08-9.04-2.4-12.92-2.85-4.76-9.15-7.61-14.93-6.74,3.8-10.81-1.05-23.72-11.25-29.95-10.2-6.23-23.11-5.38-32.22,2.18-8.19-5.45-19.24-6.94-28.74-3.87-5.95,1.92-11.35,5.64-14.39,10.77-3.04,5.14-4.93,13.85-1.87,18.98-5.4-1.14-11.31,1.61-14.07,6.09-2.75,4.48-2.47,10.3,.2,14.82,2.21,3.74,5.9,6.58,10.1,8.3-2.86-3.74-4.25-8.32-2.17-13.15Z"/><g><path class="s" d="M207.38,90.49c-3.79-2.83-7.24-6.78-7.77-11.33-2.4,12.1-2.3,24.69,.31,36.74,.9,4.17-2.3,7.02-4.43,10.72-2.13,3.69-4.09,7.99-2.92,12.08,.74,2.57,2.65,4.68,4.88,6.18,2.22,1.49,4.76,2.45,7.26,3.39,2.33,4.27,2.88,9.15,3.82,13.93,.94,4.78,3.04,9.86,7.44,11.92,2.83,1.32,6.17,1.14,9.13,.18,.1-.03,.2-.07,.29-.11-11-26.57-18.78-55.28-18.02-83.69Z"/><path class="ao" d="M244,124.78c.87-3.37,.44-7.29-1.96-9.81-2.4-2.52-8.38-4.37-10.61-1.7-2.51-6.87-4.86-12.63-7.37-19.49-5.01,1.53-10.67,.72-15.05-2.15-.55-.36-1.1-.74-1.64-1.15-.76,28.41,7.02,57.12,18.02,83.69,2.85-.98,5.43-2.6,7.98-4.21,10.65-6.75,9.98-24.9,3.9-35.95,3.3-2.09,5.76-5.46,6.73-9.24Z"/></g><path class="ao" d="M231.5,157.38c4.5,7.65,10.97,34.05,10.97,34.05,9.52-.94,42.07-3.88,51.59-4.82-3.97-12.53-7.14-21.9-11.11-34.43-10.99,0-42.51,.32-51.45,5.2Z"/><g><path class="s" d="M123.55,264.4l2.51,33.96c.39,5.27,7.34,8.19,12.4,9.68,3.49,1.03,7.35,1.27,10.89,.45l-22.47-64.14c-1.86,6.68-3.83,13.36-3.33,20.06Z"/><path class="j" d="M143.27,266.87c-2.09-13.66-5.27-26.92-13.43-38.07-.14,5.2-1.52,10.38-2.96,15.55l22.47,64.14c1.59-.37,3.13-.96,4.53-1.79-6.73-12.07-8.53-26.16-10.62-39.82Z"/><g><polygon class="e" points="253.13 331.32 160.43 331.32 114.71 198.86 207.41 198.86 253.13 331.32"/><path class="s" d="M130,282.13c6.42-13.84,12.84-27.69,19.26-41.53,2.64,1.92,4.59,4.55,4.63,7.25,.03,2.69-.89,5.34-1.81,7.96-2.06,5.86-4.13,11.73-6.19,17.59,4.45,6.3,6.77,12.91,5.9,19.94-.39,3.16-1.4,6.38-3.9,9s-6.76,4.55-11.19,4.35c-6.64-.3-8.2-7.16-8.54-11.92-.34-4.75-.24-8.11,1.85-12.63Z"/></g></g><g><path class="ao" d="M186.21,218.45l-5.49,15.89c1.46,2.78,2.61,5.9,4.08,8.68,.42,.81,.86,1.63,1.54,2.24,.68,.61,1.65,.97,2.51,.68,1.1-.37,1.64-1.68,1.55-2.84-.09-1.16-.66-2.22-1.16-3.27-.5-1.05-.95-2.2-.77-3.35,.95-6.19,6.58-10.74,9.97-16.01,1.33-2.06,2.7-4.54,1.79-6.81-1.01-2.54-4.51-3.25-7.03-2.17s-6.1,4.37-6.99,6.95Z"/><path class="ao" d="M192.55,216.77c-1.83,5.3-3.66,10.6-5.49,15.89,1.46,2.78,2.61,5.9,4.08,8.68,.42,.81,.86,1.63,1.54,2.24s1.65,.97,2.51,.68c1.1-.37,1.64-1.68,1.55-2.84-.09-1.16-.66-2.22-1.16-3.27-.5-1.05-.95-2.2-.77-3.35,.95-6.19,6.58-10.74,9.97-16.01,1.32-2.06,2.7-4.54,1.79-6.81-1.01-2.54-4.51-3.25-7.03-2.17-2.51,1.08-6.1,4.37-6.99,6.95Z"/><path class="ao" d="M201.06,218.72l-5.49,15.89c1.46,2.78,2.61,5.9,4.08,8.68,.42,.81,.86,1.63,1.54,2.24s1.65,.97,2.51,.68c1.1-.37,1.64-1.68,1.55-2.84-.09-1.16-.66-2.22-1.16-3.27-.5-1.05-.95-2.2-.77-3.35,.95-6.19,6.58-10.74,9.97-16.01,1.32-2.06,2.7-4.54,1.79-6.81-1.01-2.54-4.51-3.25-7.03-2.17-2.51,1.08-6.1,4.37-6.99,6.95Z"/><path class="s" d="M219.28,210.75c-5.99-1.94-11.98-3.88-17.97-5.83-1.61-.52-3.32-1.05-4.96-.63-1.72,.44-3.01,1.82-4.2,3.15-5.43,6.05-10.86,12.09-16.29,18.14-1.09,1.21-2.25,2.73-1.82,4.3,.68,2.42,4.16,2.32,6.51,1.42,6.2-2.37,11.66-6.64,15.45-12.09,5.85,5.65,14.2,8.97,22.06,11.08,2.05,.55,4.55,.86,6.04-.67,1.08-1.11,1.23-2.81,1.16-4.36-.23-5.13-2.74-10.53-5.98-14.51Z"/><g><path class="ai" d="M205.05,188.38c-10.76,16.63-21.53,33.25-32.29,49.88-3.08,4.75-6.15,9.5-9.23,14.25-1.05,1.62,1.37,3.39,2.42,1.77,10.76-16.63,21.53-33.25,32.29-49.88,3.08-4.75,6.15-9.5,9.23-14.25,1.05-1.62-1.37-3.39-2.42-1.77Z"/><path class="s" d="M206.35,248.22c-10.17-6.38-38.11-6.72-33.8-11.4,.02-.02-.05-.04-.02-.06h0c3.49-3.77,8.59-5.7,13.68-5.02,8.69,1.17,17.17,3.92,24.88,8.1,1.2,.65,2.17,1,3.32,1.73-2.33,2.02-5.72,4.63-8.05,6.65Z"/><polygon class="ai" points="163.53 252.51 160.36 260.35 165.96 254.27 163.53 252.51"/></g></g><g><path class="s" d="M184.53,425.89c-23.4-40.35-42.95-82.92-58.31-126.96,12.1-.89,24.64,4.11,32.29,13.53,21.93,27.01,43.31,53.23,65.25,80.24-17.71,4.53-32.83,16.07-39.23,33.19Z"/><path class="g" d="M254.6,182.39c-8.78-2.86-18.73-.05-25.98,5.66s-12.09,13.99-15.44,22.59c-7.82,20.08-8.2,42.17-8.48,63.71-.14,.2-.29,.38-.43,.55-2.36,2.86-2.24,7.01,.44,9.58l.14,.13c-2.06,22.95-4.43,45.27-6.49,68.23-11.58-13.36-22.19-27.86-33.77-41.22-13.45-1.06-27.34,6.52-33.08,18.73,20.19,37.19,38.53,76.56,58.72,113.75,3.52,6.49,12.49,4.5,19.87,4.4,15.46-.21,30.82-5.31,43.33-14.41,4.86-65.74,10.43-134.46,15.29-200.2,.71-9.65,1.42-19.47-.62-28.93-2.03-9.46-4.3-19.59-13.5-22.59Z"/><path class="q" d="M168.16,324.12c-9.64,0-18.95,5.01-24.1,13.19-.68,1.08,.93,2.27,1.62,1.18,4.75-7.54,13.32-12.39,22.26-12.39,1.27,0,1.51-1.99,.23-1.99Z"/><path class="q" d="M196.1,353.93c-11.48,10.98-17.24,27.27-15.18,43.03,.17,1.28,2.14,.97,1.98-.31-1.97-15.02,3.51-30.69,14.47-41.17,.92-.88-.33-2.44-1.26-1.55Z"/><path class="q" d="M198.46,357.96c-5.21,8.23-7.54,17.99-6.62,27.69,.12,1.28,2.1,.97,1.98-.31-.87-9.15,1.35-18.44,6.26-26.2,.69-1.08-.93-2.27-1.62-1.18Z"/><path class="q" d="M229.7,285.51c-7.26,3.06-15.83,2.33-22.45-1.96-1.08-.7-2.26,.91-1.18,1.62,7.23,4.68,16.51,5.51,24.46,2.16,1.19-.5,.37-2.32-.82-1.82Z"/></g></g></g></g></g></svg>