<?xml version="1.0" encoding="UTF-8"?><svg xmlns="http://www.w3.org/2000/svg" viewBox="0 0 274.28 397.14"><defs><style>.d{letter-spacing:-.02em;}.e{letter-spacing:-.05em;}.f{letter-spacing:.01em;}.g{fill:#fff;}.h{letter-spacing:-.01em;}.i{fill:#2e548a;}.j{letter-spacing:0em;}.k{fill:#ff8a65;}.l{letter-spacing:0em;}.m,.n,.o,.p{fill:#457b9d;}.q{letter-spacing:.1em;}.r{letter-spacing:.11em;}.s{fill:#2e5269;}.t{letter-spacing:-.02em;}.u{fill:#ffb59e;}.v{letter-spacing:-.01em;}.w{letter-spacing:-.01em;}.n{font-family:PlayfairDisplay-Regular, PlayfairDisplay Regular;font-size:30.83px;}.x{fill:#a8dadc;}.o{font-family:Montserrat-Medium, Montserrat;font-size:7.51px;}.y{letter-spacing:-.05em;}.a`{fill:#459a9d;}.aa{letter-spacing:0em;}.ab{fill:#f1faee;}.ac{letter-spacing:-.02em;}.p{opacity:.29;}.ad{letter-spacing:-.01em;}.ae{letter-spacing:-.02em;}.af{fill:#1d3557;}.ag{fill:#50b2b5;}</style></defs><g id="a"/><g id="b"><g id="c"><g><g><text class="n" transform="translate(41.71 25.8)"><tspan class="r" x="0" y="0">M</tspan><tspan class="q" x="28.24" y="0">indfullness</tspan></text><g><g><g><path class="ag" d="M77.47,179.44c-14.3-8.74-31.48-14.37-47.84-10.74C13.27,172.32-1.18,187.36,.08,204.07c1.63-4.69,6.29-7.89,11.16-8.84,4.88-.96,9.94,.01,14.66,1.57,14.4,4.74,26.52,14.75,36.64,26.03,10.12,11.28,18.54,23.97,27.97,35.83,4.17,5.25,8.7,10.46,14.62,13.61,7.33,3.88,18.39,4.03,22.9-4.14,3.19-5.77,3.43-11.69,1.47-17.79-2.85-8.87-5.75-17.57-10.11-25.85-4.56-8.68-10.21-16.78-16.77-24.07-7.33-8.14-15.81-15.26-25.16-20.98Z"/><path class="a`" d="M40.49,197.67c25.14,17.99,42.99,40.36,63.92,64.18,7.58,7.91,16.06,8.58,23.99,5.59-.12,.23-.23,.46-.35,.68-4.51,8.17-15.57,8.02-22.9,4.14-5.93-3.14-10.45-8.35-14.62-13.61-9.43-11.86-17.85-24.55-27.97-35.83-10.12-11.28-22.25-21.29-36.64-26.03-4.72-1.55-9.78-2.53-14.66-1.57-4.88,.96-9.53,4.15-11.16,8.84-.12-1.65-.09-3.28,.08-4.89,9.35-12.26,28.25-10.87,40.33-1.5Z"/><path class="af" d="M31.6,184.26c8.02-2.75,16.74-2.17,24.71,.48,8.98,2.99,16.77,8.64,23.53,15.16,7.53,7.26,14.13,15.52,20.51,23.79,6.71,8.7,13.02,17.7,18.91,26.97,5.87,9.23,11.33,18.72,16.35,28.43,.62,1.2,1.24,2.41,1.85,3.62,.27,.54-.6,.9-.88,.36-4.88-9.69-10.18-19.17-15.9-28.39-5.67-9.14-11.75-18.03-18.2-26.63-6.25-8.33-12.76-16.58-19.96-24.12-6.57-6.89-14.07-13.18-22.91-16.92-7.68-3.26-16.35-4.66-24.56-2.75-1.05,.24-2.07,.55-3.09,.89-.57,.2-.93-.68-.36-.88Z"/><path class="af" d="M41,189.39c4.88-2.54,10.31-3.84,15.79-3.87-3.94-3.35-7.88-6.7-11.83-10.06-.46-.39,.11-1.14,.58-.75l12.82,10.9c.38,.32,.11,.86-.36,.84-5.77-.19-11.53,1.15-16.65,3.81-.54,.28-.89-.6-.36-.88Z"/><path class="af" d="M69.97,207.38c7.5,2.11,14.75,5.08,21.57,8.86,1.5,.83,2.98,1.72,4.44,2.62-2.62-6.96-6.02-13.62-10.16-19.8-1.25-1.86-2.56-3.68-3.93-5.46-.37-.48,.38-1.06,.75-.58,4.86,6.29,8.96,13.16,12.17,20.43,.92,2.09,1.77,4.21,2.54,6.35,.17,.46-.34,.8-.73,.55-6.5-4.16-13.47-7.57-20.75-10.14-2.07-.73-4.16-1.39-6.27-1.98-.59-.16-.21-1.03,.37-.87Z"/><path class="af" d="M96.51,239.36c6.89,2.18,13.41,5.48,19.24,9.74,1.31,.95,2.56,1.97,3.79,3.02-1.67-8.69-4.09-17.21-7.26-25.47-.22-.57,.66-.93,.88-.36,3.35,8.74,5.89,17.79,7.57,27,.07,.39-.46,.7-.76,.43-5.38-4.76-11.52-8.63-18.14-11.41-1.87-.78-3.77-1.48-5.7-2.09-.58-.18-.21-1.05,.37-.87Z"/></g><g><path class="a`" d="M62.37,254.05c-14.08,1.79-30.45,10.95-34.65,26.66-3.36-11.04,1.91-23.48,10.97-31.03,3.07-1.28,6.28-2.11,9.62-2.4,1.92-.16,1.76-3.15-.16-2.99-.19,.02-.37,.04-.56,.06,8.12-3.42,17.22-4.16,26.17-3.19,3.38,1.54,6.57,3.54,9.35,6.01,1.44,1.28,3.44-.95,2-2.23-.96-.86-1.98-1.66-3.03-2.41,.9,.2,1.79,.41,2.67,.63,6.13,1.56,12.08,3.76,17.78,6.5,4.12,3.82,7.64,8.43,10.99,12.78,1.17,1.52,3.69-.1,2.52-1.62-1.73-2.24-3.49-4.53-5.35-6.76,6.99,4.21,13.46,9.28,19.23,15.06,5.59,5.61,10.11,11.91,14.63,18.38,3.11,4.45,4.39,9.29,3.25,14.75-.01,.07-.03,.14-.05,.21-24.53-23.05-50.69-50.82-85.38-48.42Z"/><path class="ag" d="M62.37,254.05c34.68-2.4,60.85,25.37,85.38,48.42-1.73,7.57-10.6,10.16-17.44,8.86-5.08-.96-9.64-3.61-13.96-6.5,3.6-.46,7.24-.57,10.87-.46,1.93,.06,1.75-2.93-.16-2.99-4.78-.14-9.55,.13-14.26,1-4.65-3.26-9.21-6.65-13.81-9.98,2.32-.21,4.64-.3,6.94-.31,1.93-.01,1.76-3-.16-2.99-3.43,.02-6.93,.22-10.38,.72-3.87-2.74-7.8-5.39-11.87-7.83-5.61-3.36-11.56-6.32-17.74-8.45,3-1.3,6.11-2.33,9.29-3.1,1.88-.46,.94-3.3-.92-2.85-4.4,1.07-8.52,2.7-12.48,4.67-4.66-1.29-9.44-2.08-14.3-2.17-.24,0-.49,0-.73,0,.46-.34,.91-.67,1.36-1,.66-.48,.91-1.36,.45-2.07-.42-.65-1.42-.93-2.07-.45-1.68,1.23-3.38,2.5-4.98,3.89-2.2,.35-4.33,.97-6.29,2.02-3.71,1.99-6.67,5.74-6.82,9.94-.22-.56-.41-1.13-.59-1.7,4.19-15.72,20.57-24.88,34.65-26.66Z"/><path class="af" d="M48.86,258.53c5.8-4.23,13-5.94,20.1-5.78,8.01,.18,15.72,2.8,22.82,6.38,7.9,3.99,15.3,9.02,22.53,14.12,7.6,5.36,14.95,11.06,22.03,17.09,7.05,6,13.83,12.31,20.32,18.91,.8,.82,1.6,1.64,2.4,2.47,.36,.37-.26,.88-.62,.51-6.37-6.62-13.02-12.96-19.95-18.99-6.87-5.98-14-11.65-21.37-16.99-7.13-5.17-14.46-10.22-22.16-14.52-7.04-3.93-14.67-7.14-22.75-7.96-7.02-.72-14.38,.32-20.55,3.91-.78,.46-1.54,.96-2.27,1.49-.41,.3-.92-.32-.51-.62Z"/><path class="af" d="M57.75,260.33c3.31-3.27,7.38-5.68,11.81-7.07-4.03-1.73-8.05-3.45-12.08-5.18-.47-.2-.19-.95,.28-.75,4.36,1.87,8.73,3.74,13.09,5.61,.39,.17,.3,.67-.08,.77-4.72,1.29-9.04,3.81-12.51,7.24-.37,.36-.87-.26-.51-.62Z"/><path class="af" d="M85.67,267.64c6.59-.17,13.2,.43,19.65,1.78,1.42,.3,2.84,.64,4.24,1.01-3.86-4.97-8.27-9.51-13.16-13.48-1.47-1.2-2.99-2.34-4.54-3.43-.42-.3,.04-.95,.46-.65,5.5,3.87,10.53,8.41,14.95,13.48,1.27,1.46,2.48,2.96,3.64,4.5,.25,.33-.07,.73-.45,.63-6.29-1.74-12.78-2.76-19.31-3.02-1.85-.07-3.71-.08-5.56-.04-.51,.01-.43-.78,.08-.8Z"/><path class="af" d="M115.12,286.88c6.11,.04,12.22,1.08,18,3.07,1.29,.45,2.56,.95,3.82,1.49-3.52-6.61-7.61-12.9-12.23-18.78-.32-.4,.3-.91,.62-.51,4.9,6.23,9.21,12.91,12.87,19.94,.15,.3-.2,.68-.51,.54-5.54-2.51-11.47-4.1-17.52-4.69-1.7-.17-3.42-.25-5.13-.26-.52,0-.43-.8,.08-.8Z"/></g><g><path class="a`" d="M74.06,149.43c-13.79-3.36-32.36-.65-41.88,12.54,.8-11.51,10.17-21.25,21.32-25.07,3.33-.1,6.62,.27,9.84,1.2,1.85,.53,2.77-2.32,.91-2.85-.18-.05-.36-.09-.54-.14,8.81-.3,17.57,2.26,25.58,6.36,2.61,2.65,4.88,5.65,6.59,8.95,.89,1.71,3.55,.34,2.66-1.37-.59-1.14-1.26-2.25-1.97-3.34,.77,.5,1.52,1.02,2.27,1.55,5.17,3.64,9.94,7.83,14.29,12.42,2.49,5.04,4.13,10.6,5.71,15.86,.55,1.84,3.48,1.23,2.93-.61-.81-2.7-1.65-5.48-2.59-8.22,5.03,6.43,9.26,13.47,12.58,20.93,3.22,7.23,5.19,14.74,7.1,22.39,1.32,5.26,.79,10.24-2.23,14.94-.04,.06-.08,.12-.12,.18-14.69-30.29-29.21-65.57-62.47-75.7Z"/><path class="ag" d="M74.06,149.43c33.26,10.14,47.78,45.41,62.47,75.7-4.32,6.46-13.53,5.71-19.45,2.05-4.4-2.71-7.72-6.82-10.72-11.05,3.53,.85,6.97,2.05,10.32,3.45,1.78,.74,2.68-2.11,.91-2.85-4.42-1.84-8.96-3.29-13.68-4.15-3.18-4.7-6.23-9.5-9.34-14.25,2.24,.63,4.44,1.38,6.59,2.18,1.81,.68,2.71-2.18,.91-2.85-3.21-1.2-6.55-2.27-9.95-3.03-2.64-3.94-5.36-7.82-8.29-11.55-4.04-5.14-8.54-10.03-13.55-14.23,3.27-.14,6.54,0,9.79,.42,1.92,.25,2.06-2.75,.16-2.99-4.49-.57-8.92-.52-13.33-.09-3.89-2.87-8.08-5.31-12.58-7.13-.23-.09-.46-.17-.68-.26,.55-.15,1.09-.3,1.63-.45,.78-.21,1.33-.94,1.16-1.77-.16-.76-.99-1.37-1.77-1.16-2.01,.55-4.05,1.13-6.04,1.86-2.18-.46-4.39-.64-6.59-.35-4.17,.54-8.28,2.98-9.92,6.85,0-.61,.02-1.2,.06-1.8,9.53-13.19,28.09-15.9,41.88-12.54Z"/><path class="af" d="M59.84,148.79c6.92-1.88,14.26-.91,20.84,1.77,7.42,3.02,13.69,8.23,19.04,14.11,5.96,6.55,11.08,13.89,16,21.23,5.18,7.72,10.01,15.67,14.48,23.82,4.45,8.12,8.53,16.43,12.23,24.92,.46,1.05,.91,2.11,1.36,3.16,.2,.47-.56,.72-.76,.25-3.58-8.46-7.54-16.75-11.86-24.86-4.28-8.03-8.92-15.88-13.9-23.5-4.82-7.38-9.86-14.71-15.52-21.48-5.17-6.18-11.16-11.91-18.41-15.56-6.3-3.18-13.55-4.84-20.59-3.69-.9,.15-1.78,.35-2.66,.58-.49,.13-.75-.62-.25-.76Z"/><path class="af" d="M67.49,153.64c4.26-1.87,8.92-2.67,13.55-2.39-3.14-3.05-6.29-6.1-9.43-9.15-.37-.36,.16-.96,.53-.6,3.41,3.31,6.82,6.61,10.22,9.92,.3,.29,.04,.73-.35,.69-4.87-.48-9.8,.33-14.27,2.29-.47,.21-.72-.55-.25-.76Z"/><path class="af" d="M90.97,170.44c6.22,2.2,12.18,5.11,17.72,8.68,1.22,.79,2.42,1.61,3.6,2.46-1.83-6.02-4.33-11.83-7.48-17.28-.95-1.64-1.96-3.25-3.02-4.83-.29-.43,.38-.87,.67-.45,3.76,5.58,6.84,11.61,9.15,17.93,.66,1.81,1.26,3.65,1.79,5.5,.11,.4-.33,.66-.64,.43-5.26-3.88-10.96-7.14-16.96-9.71-1.7-.73-3.43-1.4-5.18-2.02-.48-.17-.12-.89,.36-.72Z"/><path class="af" d="M111.61,198.92c5.7,2.22,11.02,5.37,15.71,9.29,1.05,.88,2.06,1.81,3.04,2.76-.93-7.43-2.5-14.76-4.72-21.91-.15-.49,.61-.75,.76-.25,2.35,7.57,3.99,15.35,4.9,23.22,.04,.33-.43,.56-.66,.32-4.28-4.32-9.25-7.92-14.69-10.64-1.53-.76-3.1-1.46-4.7-2.08-.48-.19-.12-.9,.36-.72Z"/></g></g><g><g><path class="ag" d="M207.9,207.94c13.53-6.28,29.3-9.52,43.4-4.65,14.1,4.86,25.35,19.63,22.55,34.28-.97-4.32-4.76-7.61-8.98-8.95-4.22-1.34-8.79-1-13.13-.1-13.21,2.73-24.95,10.36-35.04,19.31-10.09,8.95-18.82,19.32-28.37,28.85-4.22,4.22-8.75,8.37-14.31,10.55-6.88,2.69-16.67,1.7-19.83-5.98-2.24-5.43-1.85-10.68,.5-15.88,3.42-7.56,6.87-14.96,11.56-21.84,4.92-7.21,10.73-13.81,17.27-19.58,7.31-6.46,15.53-11.89,24.38-16Z"/><path class="a`" d="M238.76,227.81c-24.06,13.36-42.11,31.33-63.03,50.28-7.51,6.23-15.07,5.96-21.78,2.51,.08,.21,.16,.43,.24,.64,3.16,7.68,12.96,8.67,19.83,5.98,5.56-2.18,10.09-6.33,14.31-10.55,9.54-9.54,18.27-19.9,28.37-28.85,10.09-8.95,21.83-16.57,35.04-19.31,4.33-.9,8.91-1.24,13.13,.1,4.22,1.34,8.01,4.64,8.98,8.95,.28-1.45,.41-2.9,.42-4.34-7.03-11.79-23.88-12.47-35.52-5.42Z"/><path class="af" d="M247.98,216.85c-6.81-3.24-14.59-3.62-21.9-2.08-8.25,1.74-15.71,5.94-22.35,11.02-7.39,5.66-14.07,12.29-20.54,18.96-6.81,7.01-13.31,14.33-19.46,21.93-6.12,7.56-11.91,15.4-17.34,23.49-.67,1-1.34,2.01-2,3.02-.3,.45,.44,.85,.74,.4,5.3-8.08,10.95-15.92,16.94-23.49,5.94-7.51,12.22-14.75,18.8-21.71,6.37-6.73,12.96-13.37,20.09-19.31,6.51-5.42,13.78-10.23,21.97-12.65,7.12-2.1,14.93-2.46,22,.05,.9,.32,1.78,.69,2.64,1.1,.49,.23,.89-.5,.4-.74Z"/><path class="af" d="M239.14,220.44c-4.06-2.74-8.73-4.44-13.57-5.02,3.83-2.56,7.65-5.13,11.48-7.69,.45-.3,.02-1.02-.43-.72-4.15,2.78-8.29,5.56-12.44,8.34-.37,.25-.18,.75,.23,.78,5.12,.42,10.08,2.18,14.34,5.05,.45,.3,.85-.44,.4-.74Z"/><path class="af" d="M211.7,233.41c-6.85,1.11-13.56,3-19.97,5.65-1.41,.58-2.81,1.22-4.19,1.87,3.02-5.89,6.7-11.43,10.99-16.48,1.29-1.52,2.64-3,4.03-4.43,.38-.39-.23-.97-.6-.59-4.94,5.07-9.26,10.73-12.83,16.84-1.03,1.75-1.99,3.54-2.89,5.36-.19,.39,.22,.74,.59,.56,6.17-3.02,12.68-5.33,19.37-6.86,1.9-.44,3.82-.81,5.74-1.12,.53-.09,.29-.89-.24-.81Z"/><path class="af" d="M184.99,259c-6.31,1.23-12.42,3.49-18.01,6.67-1.25,.71-2.47,1.48-3.66,2.29,2.35-7.51,5.36-14.81,9-21.79,.25-.48-.49-.89-.74-.4-3.85,7.39-7.01,15.13-9.43,23.11-.1,.34,.33,.66,.63,.46,5.24-3.66,11.06-6.46,17.2-8.25,1.73-.5,3.48-.92,5.25-1.27,.53-.1,.29-.91-.24-.81Z"/></g><g><path class="a`" d="M213.69,275.45c12.27,3.01,25.82,12.77,27.94,27.09,4.09-9.42,.69-20.96-6.56-28.55-2.59-1.44-5.34-2.51-8.26-3.09-1.68-.34-1.24-2.97,.45-2.63,.16,.03,.32,.07,.49,.11-6.84-3.85-14.8-5.42-22.82-5.48-3.15,1.02-6.17,2.46-8.88,4.36-1.41,.99-2.94-1.19-1.54-2.17,.94-.66,1.92-1.26,2.93-1.83-.81,.08-1.62,.18-2.43,.29-5.58,.76-11.07,2.1-16.38,3.95-4.03,2.96-7.61,6.68-11.02,10.18-1.19,1.22-3.26-.46-2.06-1.69,1.75-1.8,3.55-3.65,5.42-5.43-6.61,3.02-12.85,6.84-18.53,11.37-5.51,4.39-10.15,9.51-14.8,14.77-3.2,3.62-4.83,7.77-4.37,12.72,0,.06,.02,.12,.02,.19,24.03-17.9,49.98-39.8,80.41-34.17Z"/><path class="ag" d="M213.69,275.45c-30.43-5.64-56.38,16.27-80.41,34.17,.76,6.87,8.34,10.06,14.52,9.6,4.59-.34,8.9-2.22,13-4.33-3.14-.77-6.35-1.24-9.57-1.51-1.71-.14-1.25-2.77,.45-2.63,4.25,.36,8.43,1.08,12.51,2.33,4.44-2.41,8.82-4.94,13.23-7.42-2.03-.42-4.08-.74-6.1-.98-1.71-.21-1.25-2.83,.45-2.63,3.03,.37,6.11,.89,9.1,1.69,3.7-2.03,7.44-3.98,11.29-5.73,5.3-2.41,10.86-4.42,16.54-5.68-2.52-1.45-5.16-2.68-7.9-3.69-1.62-.59-.5-3.01,1.1-2.43,3.78,1.39,7.26,3.25,10.56,5.4,4.25-.67,8.56-.88,12.86-.47,.22,.02,.43,.05,.65,.07-.37-.35-.74-.69-1.1-1.02-.53-.49-.67-1.29-.19-1.88,.44-.53,1.35-.68,1.88-.19,1.37,1.26,2.74,2.56,4.01,3.95,1.91,.53,3.73,1.3,5.35,2.43,3.07,2.14,5.32,5.75,5.02,9.48,.25-.48,.48-.96,.69-1.45-2.11-14.32-15.67-24.08-27.94-27.09Z"/><path class="af" d="M225.19,280.78c-4.7-4.33-10.89-6.57-17.19-7.15-7.1-.66-14.19,.88-20.83,3.33-7.39,2.73-14.45,6.43-21.35,10.2-7.26,3.97-14.34,8.27-21.21,12.88-6.84,4.59-13.48,9.48-19.89,14.66-.79,.64-1.58,1.29-2.37,1.94-.35,.29,.14,.8,.5,.51,6.3-5.21,12.83-10.14,19.57-14.77,6.68-4.59,13.56-8.88,20.62-12.86,6.83-3.85,13.82-7.58,21.07-10.6,6.62-2.76,13.7-4.83,20.93-4.74,6.28,.08,12.69,1.74,17.78,5.54,.65,.48,1.27,1,1.86,1.55,.34,.31,.85-.19,.51-.5Z"/><path class="af" d="M217.15,281.47c-2.6-3.23-5.95-5.77-9.72-7.45,3.73-1.12,7.47-2.24,11.2-3.36,.44-.13,.27-.82-.17-.69-4.05,1.21-8.1,2.42-12.14,3.64-.36,.11-.33,.56,0,.69,4.04,1.62,7.61,4.28,10.33,7.67,.29,.36,.8-.14,.51-.5Z"/><path class="af" d="M191.71,285.11c-5.81-.82-11.72-.96-17.56-.42-1.29,.12-2.57,.28-3.85,.47,3.92-4.01,8.28-7.57,13-10.58,1.42-.91,2.88-1.76,4.37-2.57,.4-.22,.06-.84-.34-.62-5.26,2.87-10.17,6.37-14.58,10.41-1.27,1.16-2.49,2.37-3.67,3.61-.25,.27-.01,.66,.33,.6,5.74-.91,11.59-1.14,17.38-.71,1.65,.12,3.29,.3,4.92,.53,.45,.06,.46-.65,.01-.71Z"/><path class="af" d="M163.72,299.14c-5.41-.59-10.91-.28-16.23,.89-1.19,.26-2.36,.58-3.53,.93,3.78-5.49,8.04-10.63,12.72-15.37,.32-.33-.17-.84-.5-.51-4.96,5.01-9.45,10.49-13.4,16.33-.17,.25,.11,.62,.39,.53,5.15-1.65,10.56-2.46,15.97-2.38,1.52,.02,3.05,.12,4.56,.29,.46,.05,.46-.66,.01-.71Z"/></g><g><path class="a`" d="M213.96,181.75c12.53-1.57,28.68,2.71,35.77,15.33,.46-10.26-6.84-19.83-16.32-24.33-2.93-.42-5.88-.43-8.82,.06-1.69,.28-2.21-2.33-.52-2.61,.16-.03,.33-.05,.49-.07-7.76-1.16-15.76,.22-23.27,3.03-2.58,2.08-4.88,4.5-6.74,7.25-.96,1.42-3.17-.06-2.21-1.48,.64-.95,1.34-1.87,2.08-2.75-.73,.37-1.45,.75-2.16,1.14-4.94,2.7-9.59,5.91-13.89,9.53-2.71,4.21-4.72,8.96-6.65,13.45-.68,1.57-3.21,.73-2.53-.84,.99-2.31,2.01-4.68,3.12-7.01-5.1,5.18-9.56,10.98-13.25,17.23-3.58,6.07-6.08,12.51-8.55,19.08-1.7,4.52-1.73,8.98,.45,13.44,.03,.06,.06,.11,.09,.17,16.06-25.3,32.48-55.02,62.91-60.62Z"/><path class="ag" d="M213.96,181.75c-30.44,5.6-46.86,35.32-62.91,60.62,3.16,6.15,11.39,6.42,16.99,3.79,4.17-1.95,7.52-5.25,10.6-8.69-3.21,.4-6.37,1.11-9.48,2-1.65,.48-2.16-2.14-.52-2.61,4.09-1.18,8.26-2,12.52-2.29,3.29-3.84,6.48-7.77,9.7-11.66-2.04,.33-4.07,.77-6.05,1.26-1.67,.42-2.18-2.2-.52-2.61,2.96-.74,6.02-1.35,9.11-1.67,2.73-3.22,5.53-6.38,8.5-9.38,4.09-4.14,8.57-8.01,13.42-11.21-2.87-.45-5.78-.66-8.7-.62-1.72,.02-1.54-2.64,.16-2.66,4.03-.05,7.94,.45,11.79,1.27,3.73-2.15,7.68-3.88,11.85-5.03,.21-.06,.42-.11,.63-.16-.47-.19-.93-.38-1.4-.56-.67-.27-1.08-.97-.84-1.68,.22-.65,1.02-1.11,1.68-.84,1.72,.69,3.47,1.41,5.15,2.26,1.97-.18,3.95-.12,5.87,.36,3.64,.9,7.02,3.47,8.08,7.06,.07-.53,.1-1.07,.13-1.6-7.09-12.63-23.23-16.9-35.77-15.33Z"/><path class="af" d="M226.6,182.62c-5.93-2.36-12.52-2.25-18.61-.54-6.87,1.92-12.94,5.89-18.26,10.55-5.93,5.19-11.2,11.16-16.3,17.15-5.36,6.3-10.44,12.84-15.22,19.6-4.75,6.73-9.21,13.67-13.34,20.8-.51,.88-1.02,1.77-1.52,2.66-.23,.4,.42,.7,.65,.3,4.03-7.12,8.36-14.05,13.01-20.78,4.6-6.67,9.5-13.14,14.67-19.38,5.01-6.04,10.21-12.01,15.9-17.42,5.2-4.94,11.07-9.4,17.86-11.9,5.9-2.17,12.47-2.91,18.58-1.17,.78,.22,1.54,.49,2.29,.79,.42,.17,.73-.48,.3-.65Z"/><path class="af" d="M219.34,186.14c-3.58-2.09-7.62-3.27-11.74-3.49,3.09-2.38,6.18-4.76,9.27-7.13,.36-.28-.04-.87-.41-.59-3.35,2.58-6.7,5.16-10.05,7.73-.3,.23-.11,.64,.24,.65,4.35,.07,8.63,1.28,12.39,3.48,.4,.23,.69-.42,.3-.65Z"/><path class="af" d="M196.88,198.61c-5.72,1.31-11.29,3.29-16.55,5.88-1.16,.57-2.3,1.18-3.43,1.81,2.23-5.14,5.03-10.03,8.37-14.53,1.01-1.36,2.06-2.68,3.16-3.96,.3-.35-.25-.81-.54-.46-3.89,4.55-7.23,9.58-9.91,14.93-.77,1.54-1.48,3.1-2.14,4.69-.14,.34,.22,.62,.53,.44,5.04-2.9,10.41-5.2,15.98-6.87,1.58-.47,3.18-.89,4.79-1.26,.45-.1,.2-.77-.24-.67Z"/><path class="af" d="M175.73,221.71c-5.26,1.39-10.29,3.63-14.84,6.63-1.02,.67-2,1.39-2.97,2.13,1.57-6.47,3.71-12.8,6.4-18.9,.18-.42-.46-.72-.65-.3-2.84,6.46-5.08,13.17-6.69,20.04-.07,.29,.32,.54,.55,.35,4.22-3.38,8.98-6.07,14.07-7.92,1.43-.52,2.89-.97,4.36-1.36,.44-.12,.2-.78-.24-.67Z"/></g></g></g><g><ellipse class="p" cx="144.52" cy="324.51" rx="103.02" ry="8.49"/><g><path class="i" d="M124.7,109.74c-6.04,5.37-9.31,13.16-7.14,21.37,1.45,5.5,5.03,11.29,2.53,16.4-2.14,4.38-7.63,5.7-11.56,8.58-4.26,3.11-6.78,8.46-6.48,13.73s3.43,10.29,8.03,12.88c2.7,1.53,5.93,2.33,7.98,4.66,2.4,2.73,2.48,6.71,3.21,10.27,2.37,11.57,13.83,20.57,25.64,20.13,4.97-.18,10.28-2.21,12.64-6.59,1.75-3.25,1.68-7.36,3.93-10.28,3.1-4.02,9.01-4.05,13.78-5.78,5.68-2.06,10.19-7.1,11.6-12.98,1.41-5.88-.31-12.42-4.44-16.83-2.63-2.81-6.1-4.76-8.61-7.68-3.22-3.75-4.57-8.81-4.86-13.75-.29-4.94,.39-9.88,.73-14.81,.54-7.82,.05-17.92-6.78-23.09-10.54-7.98-26.96-5.43-37.33,1.57-1.01,.68-1.97,1.43-2.87,2.23Z"/><path class="af" d="M126.14,113.13c-5.63,5-8.68,12.26-6.66,19.91,1.35,5.12,4.69,10.52,2.36,15.28-1.99,4.08-7.11,5.31-10.77,7.99-3.97,2.9-6.32,7.88-6.03,12.79,.29,4.91,3.2,9.59,7.48,12,2.52,1.42,5.53,2.17,7.44,4.34,2.24,2.54,2.31,6.25,2.99,9.57,2.21,10.78,12.89,19.17,23.89,18.76,4.63-.17,9.58-2.06,11.78-6.14,1.63-3.02,1.56-6.86,3.66-9.58,2.89-3.75,8.39-3.78,12.84-5.39,5.29-1.92,9.49-6.62,10.81-12.1s-.29-11.57-4.13-15.69c-2.45-2.62-5.68-4.44-8.02-7.16-3-3.5-4.26-8.21-4.53-12.81-.27-4.6,.36-9.2,.68-13.8,.5-7.28,.05-16.7-6.31-21.51-9.82-7.43-25.12-5.06-34.78,1.46-.94,.64-1.84,1.33-2.68,2.08Z"/><g><g><polygon class="u" points="125.14 193.71 110.07 212.09 105.27 217.96 86.29 241.11 79.58 225.44 84.94 216.97 97 197.92 97.47 197.18 111.32 175.29 124.19 192.45 125.14 193.71"/><path class="k" d="M125.14,193.71l-15.07,18.38-4.81,5.87c-4.49-5.93-7.45-13.12-8.27-20.04l.48-.75,13.84-21.89,12.87,17.16,.95,1.27Z"/><path class="m" d="M125.14,193.71l-15.07,18.38c-1.47-.76-3.03-2.11-4.57-3.8-2.88-3.13-5.73-7.41-8.03-11.12l13.84-21.89,12.87,17.16,.95,1.27Z"/><path class="s" d="M105.5,208.29c1.54,1.69,3.1,3.04,4.57,3.8l15.07-18.38-.95-1.27c-6.91,4.63-13.43,9.75-18.69,15.85Z"/><path class="u" d="M86.58,222.56c-4.49-16.3-11.33-31.72-20.13-45.4-1.73,1.48-4.02,2.07-5.74,3.55,2.82,15.33,5.56,30.25,8.38,45.58,.72,3.94,1.48,7.98,3.36,11.36,1.48,2.66,3.69,4.84,6.31,5.65,2.62,.81,5.64,.08,7.53-2.19,1.76-2.12,2.35-5.28,2.14-8.23-.21-2.95-1.07-7.5-1.85-10.32Z"/><g><g><g><path class="u" d="M67.27,177.69c-1.02-1.82-2.41-3.44-4.07-4.72-2.12-.18-5.05-.41-7.17-.59-1.51,.53-3.05,1.2-4.57,1.76-.34,.13-.43,.58-.16,.82,1.7,1.5,3.1,1.27,5.4,.06,3.64,1.17,3.01,4.19,5,4.8,1.99,.61,4.44-.38,5.56-2.14Z"/><path class="u" d="M59.21,178.9c-2.35,.38-4.71,.76-7.06,1.13-1.57-.7-4.21-1.3-5.78-2,1.29-.7,3.22-1.97,4.13-3.14,.24-.3-.01-.74-.39-.67-2.05,.34-4.09,.82-5.95,1.72-.42,.2-.7,.62-.76,1.09-.12,.91-.11,1.65-.15,2.5-.02,.51,.22,1,.64,1.27,1.5,.95,3.59,1.59,5.2,1.98,3.4,.82,6.57,.93,10.12,.33v-4.21Z"/><path class="u" d="M47.16,184.18c-.77-1.62-.98-3.61-.61-5.18,1.47-1,19.05-3.57,19.77-2.81,.69,.74,3,4.61,2.71,5.57-.39,1.26-.31,2.72-1.43,3.18-3.68,1.51-11.14,3.19-15.1,3.66-2.79,.33-4.03-1.71-5.33-4.43Z"/></g><path class="u" d="M53.8,179.76c-3.47,.49-6.93,.99-10.4,1.48-2.35-.9-5.04-1.48-7.68-1.47-.55,0-1.19,.07-1.45,.43-.19,.27-.08,.61,.16,.86,.24,.24,.6,.41,.94,.56,1.78,.81,5.63,1.63,7.41,2.44,4.19-.34,6.51,.04,10.43-1.13,.62-.18,1.23-.42,1.68-.78,.45-.37,.73-.89,.58-1.38-.15-.49-1.03-1.11-1.68-1.02Z"/><path class="u" d="M55.32,182.36c-3.47,.49-6.93,.99-10.4,1.48-2.35-.9-5.04-1.48-7.68-1.47-.55,0-1.19,.07-1.45,.43-.19,.27-.08,.61,.16,.86s.6,.41,.94,.56c1.78,.81,5.63,1.63,7.41,2.44,4.19-.34,6.51,.04,10.43-1.13,.62-.18,1.23-.42,1.68-.78,.45-.37,.73-.89,.58-1.38s-1.03-1.11-1.68-1.02Z"/><path class="u" d="M58.28,184.52c-3.47,.49-6.93,.99-10.4,1.48-2.35-.9-5.04-1.48-7.68-1.47-.55,0-1.19,.07-1.45,.43-.19,.27-.08,.61,.16,.86,.24,.24,.6,.41,.94,.56,1.78,.81,5.63,1.63,7.41,2.44,4.19-.34,6.51,.04,10.43-1.13,.62-.18,1.23-.42,1.68-.78,.45-.37,.73-.89,.58-1.38-.15-.49-1.03-1.11-1.68-1.02Z"/></g><path class="k" d="M65.62,179.59c-3.3,.97-6.92,.37-9.73-1.6-.38-.27-.77,.34-.39,.61,2.96,2.08,6.81,2.72,10.28,1.7,.44-.13,.29-.83-.16-.7Z"/></g></g><g><polygon class="u" points="206.61 225.44 174.88 175.29 161.05 193.71 199.91 241.11 206.61 225.44"/><path class="k" d="M174.88,175.29l14.32,22.63c-.83,6.92-3.78,14.11-8.27,20.04l-19.88-24.25,13.82-18.42Z"/><path class="m" d="M174.88,175.29l-12.87,17.16-.95,1.27,15.07,18.38c1.47-.76,3.03-2.11,4.57-3.8,2.88-3.13,5.73-7.41,8.03-11.12l-13.84-21.89Z"/><path class="s" d="M180.69,208.29c-1.54,1.69-3.1,3.04-4.57,3.8l-15.07-18.38,.95-1.27c6.91,4.63,13.43,9.75,18.69,15.85Z"/><path class="u" d="M199.62,222.56c4.49-16.3,11.33-31.72,20.13-45.4,1.73,1.48,4.02,2.07,5.74,3.55-2.82,15.33-5.56,30.25-8.38,45.58-.72,3.94-1.48,7.98-3.36,11.36-1.48,2.66-3.69,4.84-6.31,5.65-2.62,.81-5.64,.08-7.53-2.19-1.76-2.12-2.35-5.28-2.14-8.23,.21-2.95,1.07-7.5,1.85-10.32Z"/><g><g><g><path class="u" d="M218.92,177.69c1.02-1.82,2.41-3.44,4.07-4.72,2.12-.18,5.05-.41,7.17-.59,1.51,.53,3.05,1.2,4.57,1.76,.34,.13,.43,.58,.16,.82-1.7,1.5-3.1,1.27-5.4,.06-3.64,1.17-3.01,4.19-5,4.8-1.99,.61-4.44-.38-5.56-2.14Z"/><path class="u" d="M226.98,178.9c2.35,.38,4.71,.76,7.06,1.13,1.57-.7,4.21-1.3,5.78-2-1.29-.7-3.22-1.97-4.13-3.14-.24-.3,.01-.74,.39-.67,2.05,.34,4.09,.82,5.95,1.72,.42,.2,.7,.62,.76,1.09,.12,.91,.11,1.65,.15,2.5,.02,.51-.22,1-.64,1.27-1.5,.95-3.59,1.59-5.2,1.98-3.4,.82-6.57,.93-10.12,.33v-4.21Z"/><path class="u" d="M239.04,184.18c.77-1.62,.98-3.61,.62-5.18-1.47-1-19.05-3.57-19.77-2.81-.69,.74-3,4.61-2.71,5.57,.39,1.26,.31,2.72,1.43,3.18,3.68,1.51,11.14,3.19,15.1,3.66,2.79,.33,4.03-1.71,5.33-4.43Z"/></g><path class="u" d="M232.4,179.76c3.47,.49,6.93,.99,10.4,1.48,2.35-.9,5.04-1.48,7.68-1.47,.55,0,1.19,.07,1.45,.43,.19,.27,.08,.61-.16,.86-.24,.24-.6,.41-.94,.56-1.78,.81-5.63,1.63-7.41,2.44-4.19-.34-6.51,.04-10.43-1.13-.62-.18-1.23-.42-1.68-.78-.45-.37-.73-.89-.58-1.38,.15-.49,1.03-1.11,1.68-1.02Z"/><path class="u" d="M230.87,182.36c3.47,.49,6.93,.99,10.4,1.48,2.35-.9,5.04-1.48,7.68-1.47,.55,0,1.19,.07,1.45,.43,.19,.27,.08,.61-.16,.86-.24,.24-.6,.41-.94,.56-1.78,.81-5.63,1.63-7.41,2.44-4.19-.34-6.51,.04-10.43-1.13-.62-.18-1.23-.42-1.68-.78-.45-.37-.73-.89-.58-1.38,.15-.49,1.03-1.11,1.68-1.02Z"/><path class="u" d="M227.92,184.52c3.47,.49,6.93,.99,10.4,1.48,2.35-.9,5.04-1.48,7.68-1.47,.55,0,1.19,.07,1.45,.43,.19,.27,.08,.61-.16,.86s-.6,.41-.94,.56c-1.78,.81-5.63,1.63-7.41,2.44-4.19-.34-6.51,.04-10.43-1.13-.62-.18-1.23-.42-1.68-.78-.45-.37-.73-.89-.58-1.38,.15-.49,1.03-1.11,1.68-1.02Z"/></g><path class="k" d="M220.58,179.59c3.3,.97,6.92,.37,9.73-1.6,.38-.27,.77,.34,.39,.61-2.96,2.08-6.81,2.72-10.28,1.7-.44-.13-.29-.83,.16-.7Z"/></g></g></g><path class="u" d="M175.42,253.93c-2.38-3.63-5.04-7.04-7.9-10.13-4.37-.25-38-.23-41.97,0-3.89,4.2-7.43,9-10.36,14.12,20.01,3.32,40.87,2.14,60.23-4Z"/><path class="m" d="M111.32,175.29s28.82-12.98,63.56,0l-7.36,68.51h0c-17.85,7.17-41.97,0-41.97,0l-14.23-68.51Z"/><path class="m" d="M218.33,263.12c-.98-2.66-3.92-4.2-6.76-4.33-2.83-.13-5.59,.87-8.21,1.95-6.83,2.79-13.43,6.16-19.71,10.05-1.91-5.83-4.76-11.57-8.23-16.86-19.35,6.14-40.22,7.31-60.23,4-2.37,4.14-4.34,8.48-5.77,12.87-6.27-3.89-12.87-7.26-19.71-10.05-2.63-1.07-5.38-2.08-8.21-1.95-2.83,.13-5.78,1.67-6.76,4.33-1.23,3.35-1.42,7.37,.11,10.6,1.53,3.23,3.95,5.93,6.42,8.52,8.11,8.52,17.08,16.35,27.36,22.07,10.28,5.71,21.96,9.24,33.72,8.8-.06-3.23,.06-3.23,0,0,11.75,.43,31.81-3.09,42.09-8.8,10.28-5.71,19.25-13.55,27.36-22.07,2.46-2.59,4.89-5.29,6.42-8.52s1.34-7.25,.11-10.6Z"/><path class="s" d="M73.81,267.76c-.11,2.06,.19,4.14,1.05,5.96,1.53,3.23,3.95,5.93,6.42,8.52,8.11,8.52,17.08,16.35,27.36,22.07,10.28,5.71,21.96,9.24,33.72,8.8-.06-3.23,.06-3.23,0,0,11.75,.43,31.81-3.09,42.09-8.8,10.28-5.71,19.25-13.55,27.36-22.07,2.46-2.59,4.89-5.29,6.42-8.52s1.34-7.25,.11-10.6c-.34-.93-.93-1.72-1.66-2.36-16.52,5.21-31.26,16.58-45.28,28.33-11.42,9.58-27.85,10.47-40.21,2.13-17.57-11.87-37.87-21.41-57.38-23.46Z"/><g><g><path class="u" d="M139.36,153.95l-.49,12.82c-.06,1.54-.82,2.93-1.97,3.96-.13,.12-.25,.25-.36,.39-.52,.7-.7,1.75-.47,2.65,.23,.88,8.57,15.45,13.02,11.66,.68-.58,4.89-10.35,5.28-11.24,.39-.9,.48-2.05,.05-2.92-.13-.26-.31-.48-.52-.65-1.17-.92-2.11-2.1-2.4-3.56-.81-4.15-1.21-8.42-1.28-12.69l-10.87-.43Z"/><path class="k" d="M148.21,162.78c.89-.14,1.72-.49,2.5-.96-.28-2.47-.44-4.95-.49-7.45l-10.87-.43c-.07,1.71-.13,3.43-.2,5.14,2.62,1.92,5.96,4.19,9.05,3.69Z"/></g><g><path class="k" d="M133.01,138.23c-.7-.31-1.43-.63-2.19-.7-.77-.07-1.61,.16-2.08,.77-.53,.69-.47,1.69-.13,2.49,.64,1.48,2.2,2.51,3.81,2.52l.59-5.08Z"/><path class="k" d="M157.41,138.23c.7-.31,1.43-.63,2.19-.7,.77-.07,1.61,.16,2.08,.77,.53,.69,.47,1.69,.13,2.49-.64,1.48-2.2,2.51-3.81,2.52l-.59-5.08Z"/><path class="u" d="M145.5,158.03c-3.82,.17-11.86-4.48-12.86-11.85l-.56-4.52-1.29-8.43c0-8.65,6.58-14.93,14.7-14.93h0c1.04,11.87,14.7,6.68,14.7,14.93l-1.82,10.68c-.09,.5-.12,1.01-.15,1.52-.46,7.78-7.95,12.39-12.73,12.6Z"/><path class="k" d="M147.97,151.35c-1.77,.5-3.64,.51-5.42,.02-.33-.09-.5,.42-.16,.51,1.86,.51,3.84,.51,5.7,0,.33-.09,.21-.61-.12-.52Z"/><path class="af" d="M140.35,137.07c-1.73,.62-3.62,.59-5.32-.09-.32-.13-.48,.38-.16,.51,1.78,.72,3.8,.76,5.6,.11,.32-.12,.2-.64-.12-.52Z"/><path class="af" d="M156.29,137.07c-1.73,.62-3.62,.59-5.32-.09-.32-.13-.48,.38-.16,.51,1.78,.72,3.8,.76,5.6,.11,.32-.12,.2-.64-.12-.52Z"/></g></g><g><g><path class="u" d="M202.59,262.11c-21.56,17.76-48.29,41.6-69.85,59.35,3.34,6.79,2.36,6.07,5.7,12.85,24.55-9,54.91-21.64,74.39-39.08,3.52-3.16,6.98-6.48,9.45-10.51,2.47-4.03,3.9-8.88,3.04-13.53-.91-4.95-4.51-9.31-9.2-11.15-4.68-1.83-9.66-1.14-13.54,2.06Z"/><path class="k" d="M132.74,321.46c3.34,6.79,2.36,6.07,5.7,12.85,12.21-4.48,25.86-9.85,38.89-16.27-9.65-1.6-18.85-5.12-26.55-11.76-6.25,5.33-12.33,10.47-18.04,15.18Z"/><path class="u" d="M225.33,271.19c-.91-4.95-4.51-9.31-9.2-11.15-4.68-1.83-9.66-1.14-13.54,2.06-15.85,13.05-34.48,29.38-51.81,44.18,7.7,6.63,16.9,10.16,26.55,11.76,13.17-6.49,25.71-14.04,35.5-22.81,3.52-3.16,6.98-6.48,9.45-10.51,2.47-4.03,3.9-8.88,3.04-13.53Z"/><path class="af" d="M133.26,321.78l-.52-.32-24.81,10.71c-.86,.37-1.64,.83-2.36,1.36-4.62,3.43-6.18,9.88-3.26,15.14,3.57,6.42,12.01,7.96,17.6,3.48,.29-.23,.58-.48,.85-.74l17.67-17.1h0c1.17-4.86-.92-9.93-5.19-12.54Z"/></g><g><path class="u" d="M90.49,262.11c21.56,17.76,48.29,41.6,69.85,59.35-3.34,6.79-2.45,5.64-5.8,12.42-24.55-9-54.82-21.21-74.29-38.65-3.52-3.16-6.98-6.48-9.45-10.51-2.47-4.03-3.9-8.88-3.04-13.53,.91-4.95,4.51-9.31,9.2-11.15,4.68-1.83,9.66-1.14,13.54,2.06Z"/><path class="af" d="M187.5,333.54c-.72-.53-1.5-.99-2.36-1.36l-24.81-10.71-.52,.32c-4.26,2.61-6.36,7.68-5.19,12.54h0l17.67,17.1c.27,.27,.56,.51,.85,.74,5.6,4.48,14.03,2.94,17.6-3.48,2.92-5.26,1.36-11.71-3.26-15.14Z"/></g></g><path class="k" d="M145.64,145.3c-.5,.45-1.27,.37-1.65-.19-.37-.54-.38-1.27-.41-1.9-.08-1.75-.08-3.5-.02-5.25,.02-.46-.7-.5-.72-.03-.04,1.12-.05,2.23-.04,3.35,.01,.97,0,1.97,.14,2.93,.1,.72,.39,1.49,1.05,1.87,.68,.4,1.56,.27,2.14-.25,.35-.31-.14-.84-.49-.53Z"/><path class="af" d="M148.02,148.68c-1.58,1.61-4.17,1.68-5.79,.1-.33-.32-.86,.16-.53,.49,1.89,1.84,4.95,1.84,6.81-.05,.32-.33-.16-.86-.49-.53Z"/><g><path class="g" d="M169.44,328.83c-3.57,1.92-5.88,5.84-5.82,9.9,0,.46,.73,.5,.72,.03-.05-3.81,2.09-7.48,5.44-9.29,.41-.22,.07-.86-.34-.64Z"/><path class="g" d="M175.02,331.28c-4.16,1.43-6.94,5.46-6.7,9.87,.03,.46,.74,.49,.72,.03-.22-4.08,2.26-7.87,6.14-9.2,.43-.15,.28-.85-.16-.7Z"/></g><g><path class="g" d="M122.08,328.83c3.57,1.92,5.88,5.84,5.82,9.9,0,.46-.73,.5-.72,.03,.05-3.81-2.09-7.48-5.44-9.29-.41-.22-.07-.86,.34-.64Z"/><path class="g" d="M116.49,331.28c4.16,1.43,6.94,5.46,6.7,9.87-.03,.46-.74,.49-.72,.03,.22-4.08-2.26-7.87-6.14-9.2-.43-.15-.28-.85,.16-.7Z"/></g><path class="s" d="M145.27,188.59c-3.96-3.66-8.03-7.43-10.45-12.33-.66-1.32-1.17-2.71-1.51-4.15-.11-.45-.81-.29-.7,.16,1.26,5.32,4.77,9.68,8.58,13.45,1.16,1.15,2.36,2.25,3.55,3.36,.34,.31,.87-.17,.53-.49Z"/><path class="s" d="M155.55,176.4c-1.39,3.16-2.79,6.32-4.18,9.48-.19,.42,.5,.64,.69,.22,1.39-3.16,2.79-6.32,4.18-9.48,.19-.42-.5-.64-.69-.22Z"/><path class="s" d="M196.12,263.37c-9.34,3.98-17.94,9.66-25.25,16.7-2.04,1.97-3.99,4.04-5.82,6.2-.45,.53,.42,1.17,.87,.64,6.48-7.62,14.36-14.06,23.13-18.89,2.44-1.35,4.96-2.56,7.52-3.66,.64-.27,.2-1.26-.44-.99Z"/><path class="s" d="M131.92,289.1c-5.11-6.1-11-11.55-17.5-16.14-1.88-1.33-3.81-2.58-5.78-3.76-.59-.36-1.24,.52-.64,.87,6.78,4.07,13.04,9,18.55,14.68,1.57,1.62,3.09,3.31,4.54,5.04,.45,.53,1.29-.15,.84-.68Z"/><path class="s" d="M172.91,260.43c-13.4,5.28-28.09,7.16-42.39,5.49-4.05-.47-8.07-1.23-12.02-2.27-.67-.18-1.07,.83-.4,1.01,14.19,3.75,29.28,3.91,43.55,.46,3.98-.96,7.9-2.2,11.71-3.7,.65-.26,.2-1.24-.44-.99Z"/><path class="ab" d="M140.25,285.12c-1.68-6.53-1.94-13.34-.75-19.98,.12-.69-.95-.81-1.08-.12-1.2,6.72-.94,13.66,.76,20.27,.17,.67,1.24,.51,1.07-.17Z"/><path class="ab" d="M154.22,265.76c-.37-.59-1.2,.1-.84,.68,3.74,5.99,4.88,13.41,3.21,20.26-.17,.68,.91,.79,1.08,.12,1.75-7.15,.45-14.84-3.44-21.07Z"/><path class="af" d="M156.52,131.84c-2.17-.96-4.67-.99-6.87-.11-.65,.26-.2,1.24,.44,.99,1.94-.77,4.13-.71,6.03,.13,.64,.28,1.03-.73,.4-1.01Z"/><path class="af" d="M140.13,131.74c-2.29-.73-4.85-.47-6.91,.78-.25,.15-.4,.43-.27,.72,.11,.24,.46,.42,.72,.27,1.81-1.1,4.04-1.41,6.07-.76,.66,.21,1.06-.8,.4-1.01Z"/><path class="s" d="M125.91,224.4c5.41,1.08,11.91,2.16,17.32,0-11.36-2.84-19.4-13.13-26.31-22.18l8.64,41.58s24.11,7.17,41.97,0l.09-.83c-15.41,1.62-31.76-4.9-41.7-18.57Z"/></g></g><g><g><path class="x" d="M55.74,126.52c.69,0,1.25,.56,1.25,1.25s-.56,1.25-1.25,1.25-1.25-.56-1.25-1.25,.56-1.25,1.25-1.25Z"/><path class="x" d="M55.74,110.16c.69,0,1.25,.56,1.25,1.25s-.56,1.25-1.25,1.25-1.25-.56-1.25-1.25,.56-1.25,1.25-1.25Z"/><path class="x" d="M55.74,93.8c.69,0,1.25,.56,1.25,1.25s-.56,1.25-1.25,1.25-1.25-.56-1.25-1.25,.56-1.25,1.25-1.25Z"/><path class="x" d="M55.74,77.44c.69,0,1.25,.56,1.25,1.25s-.56,1.25-1.25,1.25-1.25-.56-1.25-1.25,.56-1.25,1.25-1.25Z"/><path class="x" d="M71.96,126.52c.69,0,1.25,.56,1.25,1.25s-.56,1.25-1.25,1.25-1.25-.56-1.25-1.25,.56-1.25,1.25-1.25Z"/><path class="x" d="M71.96,110.16c.69,0,1.25,.56,1.25,1.25s-.56,1.25-1.25,1.25-1.25-.56-1.25-1.25,.56-1.25,1.25-1.25Z"/><path class="x" d="M71.96,93.8c.69,0,1.25,.56,1.25,1.25s-.56,1.25-1.25,1.25-1.25-.56-1.25-1.25,.56-1.25,1.25-1.25Z"/><path class="x" d="M71.96,77.44c.69,0,1.25,.56,1.25,1.25s-.56,1.25-1.25,1.25-1.25-.56-1.25-1.25,.56-1.25,1.25-1.25Z"/><path class="x" d="M88.17,126.52c.69,0,1.25,.56,1.25,1.25s-.56,1.25-1.25,1.25-1.25-.56-1.25-1.25,.56-1.25,1.25-1.25Z"/><path class="x" d="M88.17,110.16c.69,0,1.25,.56,1.25,1.25s-.56,1.25-1.25,1.25-1.25-.56-1.25-1.25,.56-1.25,1.25-1.25Z"/><path class="x" d="M88.17,93.8c.69,0,1.25,.56,1.25,1.25s-.56,1.25-1.25,1.25-1.25-.56-1.25-1.25,.56-1.25,1.25-1.25Z"/><path class="x" d="M88.17,77.44c.69,0,1.25,.56,1.25,1.25s-.56,1.25-1.25,1.25-1.25-.56-1.25-1.25,.56-1.25,1.25-1.25Z"/><path class="x" d="M104.39,126.52c.69,0,1.25,.56,1.25,1.25s-.56,1.25-1.25,1.25-1.25-.56-1.25-1.25,.56-1.25,1.25-1.25Z"/><path class="x" d="M104.39,110.16c.69,0,1.25,.56,1.25,1.25s-.56,1.25-1.25,1.25-1.25-.56-1.25-1.25,.56-1.25,1.25-1.25Z"/><path class="x" d="M104.39,93.8c.69,0,1.25,.56,1.25,1.25s-.56,1.25-1.25,1.25-1.25-.56-1.25-1.25,.56-1.25,1.25-1.25Z"/><path class="x" d="M104.39,77.44c.69,0,1.25,.56,1.25,1.25s-.56,1.25-1.25,1.25-1.25-.56-1.25-1.25,.56-1.25,1.25-1.25Z"/></g><g><path class="x" d="M234.51,321.43c0,.53-.43,.96-.96,.96s-.96-.43-.96-.96,.43-.96,.96-.96,.96,.43,.96,.96Z"/><path class="x" d="M247.07,321.43c0,.53-.43,.96-.96,.96s-.96-.43-.96-.96,.43-.96,.96-.96,.96,.43,.96,.96Z"/><path class="x" d="M234.51,333.89c0,.53-.43,.96-.96,.96s-.96-.43-.96-.96,.43-.96,.96-.96,.96,.43,.96,.96Z"/><path class="x" d="M247.07,333.89c0,.53-.43,.96-.96,.96s-.96-.43-.96-.96,.43-.96,.96-.96,.96,.43,.96,.96Z"/><path class="x" d="M234.51,346.35c0,.53-.43,.96-.96,.96s-.96-.43-.96-.96,.43-.96,.96-.96,.96,.43,.96,.96Z"/><path class="x" d="M247.07,346.35c0,.53-.43,.96-.96,.96s-.96-.43-.96-.96,.43-.96,.96-.96,.96,.43,.96,.96Z"/><path class="x" d="M234.51,358.8c0,.53-.43,.96-.96,.96s-.96-.43-.96-.96,.43-.96,.96-.96,.96,.43,.96,.96Z"/><path class="x" d="M247.07,358.8c0,.53-.43,.96-.96,.96s-.96-.43-.96-.96,.43-.96,.96-.96,.96,.43,.96,.96Z"/><path class="x" d="M234.51,371.26c0,.53-.43,.96-.96,.96s-.96-.43-.96-.96,.43-.96,.96-.96,.96,.43,.96,.96Z"/><path class="x" d="M247.07,371.26c0,.53-.43,.96-.96,.96s-.96-.43-.96-.96,.43-.96,.96-.96,.96,.43,.96,.96Z"/><path class="x" d="M234.51,383.72c0,.53-.43,.96-.96,.96s-.96-.43-.96-.96,.43-.96,.96-.96,.96,.43,.96,.96Z"/><path class="x" d="M247.07,383.72c0,.53-.43,.96-.96,.96s-.96-.43-.96-.96,.43-.96,.96-.96,.96,.43,.96,.96Z"/><path class="x" d="M234.51,396.18c0,.53-.43,.96-.96,.96s-.96-.43-.96-.96,.43-.96,.96-.96,.96,.43,.96,.96Z"/><path class="x" d="M247.07,396.18c0,.53-.43,.96-.96,.96s-.96-.43-.96-.96,.43-.96,.96-.96,.96,.43,.96,.96Z"/></g></g></g><text class="o" transform="translate(46.7 39.87)"><tspan x="0" y="0">&quot;Mindfulness is the p</tspan><tspan class="y" x="79.38" y="0">r</tspan><tspan x="82.11" y="0">a</tspan><tspan class="l" x="86.6" y="0">c</tspan><tspan x="90.95" y="0">ti</tspan><tspan class="aa" x="96.15" y="0">c</tspan><tspan x="100.38" y="0">e of being fully p</tspan><tspan class="ad" x="163.84" y="0">r</tspan><tspan x="166.83" y="0">esent </tspan><tspan x="-4.17" y="11.27">and </tspan><tspan class="h" x="12.58" y="11.27">a</tspan><tspan class="d" x="16.99" y="11.27">w</tspan><tspan x="23.62" y="11.27">a</tspan><tspan class="v" x="28.11" y="11.27">r</tspan><tspan x="31.1" y="11.27">e of our thoughts, </tspan><tspan class="aa" x="101.09" y="11.27">f</tspan><tspan x="103.68" y="11.27">eelings, and sensations </tspan><tspan x="5.06" y="22.53">without judgmen</tspan><tspan class="f" x="72.29" y="22.53">t</tspan><tspan x="75.48" y="22.53">, </tspan><tspan class="aa" x="79.2" y="22.53">f</tspan><tspan x="81.8" y="22.53">os</tspan><tspan class="ae" x="90.33" y="22.53">t</tspan><tspan x="93.3" y="22.53">e</tspan><tspan class="j" x="97.9" y="22.53">r</tspan><tspan x="100.93" y="22.53">ing a g</tspan><tspan class="v" x="127.04" y="22.53">r</tspan><tspan class="ac" x="130.02" y="22.53">e</tspan><tspan x="134.51" y="22.53">a</tspan><tspan class="t" x="139" y="22.53">t</tspan><tspan x="141.97" y="22.53">er sense of </tspan><tspan class="j" x="59.45" y="33.8">c</tspan><tspan x="63.69" y="33.8">la</tspan><tspan class="j" x="70.28" y="33.8">r</tspan><tspan x="73.3" y="33.8">i</tspan><tspan class="h" x="75.4" y="33.8">t</tspan><tspan x="78.43" y="33.8">y and p</tspan><tspan class="w" x="106.53" y="33.8">e</tspan><tspan x="111.01" y="33.8">a</tspan><tspan class="aa" x="115.5" y="33.8">c</tspan><tspan x="119.73" y="33.8">e</tspan><tspan class="e" x="124.33" y="33.8">.</tspan><tspan x="125.62" y="33.8">&quot;</tspan></text></g></g></g></svg>