<?xml version="1.0" encoding="UTF-8"?><svg xmlns="http://www.w3.org/2000/svg" viewBox="0 0 229.81 405.28"><defs><style>.d{letter-spacing:.11em;}.e{letter-spacing:-.01em;}.f{stroke:#457b9d;}.f,.g{fill:none;stroke-linecap:round;stroke-miterlimit:10;}.h{fill:#294b7a;}.i{letter-spacing:0em;}.j{letter-spacing:0em;}.k{letter-spacing:-.05em;}.l{fill:#82bebf;}.m,.n,.o,.p{fill:#457b9d;}.g{stroke:#1d3557;stroke-width:.25px;}.q{fill:#bc6c25;}.n{font-family:Montserrat-Medium, Montserrat;font-size:7.92px;}.r{letter-spacing:-.03em;}.o{font-family:PlayfairDisplay-Regular, PlayfairDisplay Regular;font-size:28.96px;}.s{letter-spacing:0em;}.t{letter-spacing:0em;}.u{fill:#3b6a87;}.v{letter-spacing:-.02em;}.w{letter-spacing:0em;}.x{fill:#a8dadc;}.y{fill:#2d5066;}.a`{fill:#6b3e15;}.aa{letter-spacing:.01em;}.ab{letter-spacing:.1em;}.ac{letter-spacing:0em;}.ad{letter-spacing:0em;}.ae{letter-spacing:0em;}.af{letter-spacing:.1em;}.p{opacity:.29;}.ag{letter-spacing:0em;}.ah{fill:#1d3557;}.ai{letter-spacing:.02em;}</style></defs><g id="a"/><g id="b"><g id="c"><g><text class="n" transform="translate(3.16 324.91)"><tspan class="t" x="0" y="0">&quot;</tspan><tspan class="r" x="3.16" y="0">T</tspan><tspan x="7.58" y="0">aking ca</tspan><tspan class="e" x="41.64" y="0">r</tspan><tspan x="44.79" y="0">e of our </tspan><tspan x="0" y="11.87">mental h</tspan><tspan class="v" x="36.34" y="11.87">e</tspan><tspan x="41.07" y="11.87">a</tspan><tspan class="aa" x="45.8" y="11.87">l</tspan><tspan x="48.11" y="11.87">th is </tspan><tspan x="0" y="23.75">equally impo</tspan><tspan class="ai" x="52.31" y="23.75">r</tspan><tspan x="55.67" y="23.75">tant as </tspan><tspan x="0" y="35.62">ca</tspan><tspan class="w" x="9.25" y="35.62">r</tspan><tspan x="12.44" y="35.62">ing </tspan><tspan class="ae" x="27.63" y="35.62">f</tspan><tspan x="30.37" y="35.62">or our p</tspan><tspan class="ac" x="61.93" y="35.62">h</tspan><tspan class="w" x="67.24" y="35.62">y</tspan><tspan x="71.61" y="35.62">sical </tspan><tspan x="0" y="47.5">h</tspan><tspan class="v" x="5.39" y="47.5">e</tspan><tspan x="10.12" y="47.5">a</tspan><tspan class="aa" x="14.85" y="47.5">l</tspan><tspan x="17.16" y="47.5">th, as it a</tspan><tspan class="j" x="52.94" y="47.5">f</tspan><tspan class="ad" x="55.74" y="47.5">f</tspan><tspan x="58.47" y="47.5">e</tspan><tspan class="i" x="63.31" y="47.5">c</tspan><tspan x="67.89" y="47.5">ts h</tspan><tspan class="v" x="82.65" y="47.5">o</tspan><tspan x="87.56" y="47.5">w </tspan><tspan class="v" x="0" y="59.37">w</tspan><tspan x="7" y="59.37">e thin</tspan><tspan class="ag" x="30.24" y="59.37">k</tspan><tspan x="35.19" y="59.37">, </tspan><tspan class="ae" x="39.12" y="59.37">f</tspan><tspan x="41.85" y="59.37">eel, and a</tspan><tspan class="s" x="80.06" y="59.37">c</tspan><tspan x="84.64" y="59.37">t </tspan><tspan x="0" y="71.25">in our daily li</tspan><tspan class="v" x="51.01" y="71.25">v</tspan><tspan x="55.32" y="71.25">es</tspan><tspan class="k" x="64.13" y="71.25">.</tspan><tspan x="65.49" y="71.25">&quot;</tspan></text><text class="o" transform="translate(0 273.92)"><tspan class="d" x="0" y="0">M</tspan><tspan class="ab" x="26.36" y="0">e</tspan><tspan class="af" x="43.76" y="0">n</tspan><tspan class="ab" x="62.62" y="0">tal</tspan><tspan class="ab"><tspan x="0" y="34.76">Health</tspan></tspan></text><g><g><path class="x" d="M51.73,190.55c0-.69,.56-1.25,1.25-1.25s1.25,.56,1.25,1.25-.56,1.25-1.25,1.25-1.25-.56-1.25-1.25Z"/><path class="x" d="M35.37,190.55c0-.69,.56-1.25,1.25-1.25s1.25,.56,1.25,1.25-.56,1.25-1.25,1.25-1.25-.56-1.25-1.25Z"/><path class="x" d="M19.01,190.55c0-.69,.56-1.25,1.25-1.25s1.25,.56,1.25,1.25-.56,1.25-1.25,1.25-1.25-.56-1.25-1.25Z"/><path class="x" d="M2.65,190.55c0-.69,.56-1.25,1.25-1.25s1.25,.56,1.25,1.25-.56,1.25-1.25,1.25-1.25-.56-1.25-1.25Z"/><path class="x" d="M51.73,174.33c0-.69,.56-1.25,1.25-1.25s1.25,.56,1.25,1.25-.56,1.25-1.25,1.25-1.25-.56-1.25-1.25Z"/><path class="x" d="M35.37,174.33c0-.69,.56-1.25,1.25-1.25s1.25,.56,1.25,1.25-.56,1.25-1.25,1.25-1.25-.56-1.25-1.25Z"/><path class="x" d="M19.01,174.33c0-.69,.56-1.25,1.25-1.25s1.25,.56,1.25,1.25-.56,1.25-1.25,1.25-1.25-.56-1.25-1.25Z"/><path class="x" d="M2.65,174.33c0-.69,.56-1.25,1.25-1.25s1.25,.56,1.25,1.25-.56,1.25-1.25,1.25-1.25-.56-1.25-1.25Z"/><circle class="x" cx="52.99" cy="158.11" r="1.25"/><path class="x" d="M35.37,158.11c0-.69,.56-1.25,1.25-1.25s1.25,.56,1.25,1.25-.56,1.25-1.25,1.25-1.25-.56-1.25-1.25Z"/><path class="x" d="M19.01,158.11c0-.69,.56-1.25,1.25-1.25s1.25,.56,1.25,1.25-.56,1.25-1.25,1.25-1.25-.56-1.25-1.25Z"/><path class="x" d="M2.65,158.11c0-.69,.56-1.25,1.25-1.25s1.25,.56,1.25,1.25-.56,1.25-1.25,1.25-1.25-.56-1.25-1.25Z"/><path class="x" d="M51.73,141.9c0-.69,.56-1.25,1.25-1.25s1.25,.56,1.25,1.25-.56,1.25-1.25,1.25-1.25-.56-1.25-1.25Z"/><path class="x" d="M35.37,141.9c0-.69,.56-1.25,1.25-1.25s1.25,.56,1.25,1.25-.56,1.25-1.25,1.25-1.25-.56-1.25-1.25Z"/><path class="x" d="M19.01,141.9c0-.69,.56-1.25,1.25-1.25s1.25,.56,1.25,1.25-.56,1.25-1.25,1.25-1.25-.56-1.25-1.25Z"/><path class="x" d="M2.65,141.9c0-.69,.56-1.25,1.25-1.25s1.25,.56,1.25,1.25-.56,1.25-1.25,1.25-1.25-.56-1.25-1.25Z"/></g><g><path class="x" d="M143.11,24.31c.53,0,.96,.43,.96,.96s-.43,.96-.96,.96-.96-.43-.96-.96,.43-.96,.96-.96Z"/><path class="x" d="M143.11,11.74c.53,0,.96,.43,.96,.96s-.43,.96-.96,.96-.96-.43-.96-.96,.43-.96,.96-.96Z"/><path class="x" d="M155.57,24.31c.53,0,.96,.43,.96,.96s-.43,.96-.96,.96-.96-.43-.96-.96,.43-.96,.96-.96Z"/><path class="x" d="M155.57,11.74c.53,0,.96,.43,.96,.96s-.43,.96-.96,.96-.96-.43-.96-.96,.43-.96,.96-.96Z"/><path class="x" d="M168.03,24.31c.53,0,.96,.43,.96,.96s-.43,.96-.96,.96-.96-.43-.96-.96,.43-.96,.96-.96Z"/><path class="x" d="M168.03,11.74c.53,0,.96,.43,.96,.96s-.43,.96-.96,.96-.96-.43-.96-.96,.43-.96,.96-.96Z"/><path class="x" d="M180.48,24.31c.53,0,.96,.43,.96,.96s-.43,.96-.96,.96-.96-.43-.96-.96,.43-.96,.96-.96Z"/><path class="x" d="M180.48,11.74c.53,0,.96,.43,.96,.96s-.43,.96-.96,.96-.96-.43-.96-.96,.43-.96,.96-.96Z"/><path class="x" d="M192.94,24.31c.53,0,.96,.43,.96,.96s-.43,.96-.96,.96-.96-.43-.96-.96,.43-.96,.96-.96Z"/><path class="x" d="M192.94,11.74c.53,0,.96,.43,.96,.96s-.43,.96-.96,.96-.96-.43-.96-.96,.43-.96,.96-.96Z"/><path class="x" d="M205.4,24.31c.53,0,.96,.43,.96,.96s-.43,.96-.96,.96-.96-.43-.96-.96,.43-.96,.96-.96Z"/><path class="x" d="M205.4,11.74c.53,0,.96,.43,.96,.96s-.43,.96-.96,.96-.96-.43-.96-.96,.43-.96,.96-.96Z"/><path class="x" d="M217.86,24.31c.53,0,.96,.43,.96,.96s-.43,.96-.96,.96-.96-.43-.96-.96,.43-.96,.96-.96Z"/><path class="x" d="M217.86,11.74c.53,0,.96,.43,.96,.96s-.43,.96-.96,.96-.96-.43-.96-.96,.43-.96,.96-.96Z"/></g></g><g><path class="f" d="M86.74,47.83c-6.97,.84-14.28-2.29-18.5-7.9-1.16-1.54-2.12-3.35-2.08-5.28,.04-1.93,1.37-3.92,3.28-4.17,2.57-.33,4.58,2.79,3.91,5.28-.67,2.5-3.13,4.15-5.63,4.82-3.96,1.06-8.18,.23-12.09-1.03-3.9-1.26-7.7-2.93-11.75-3.59-4.05-.66-8.53-.16-11.64,2.51-3.11,2.67-4.15,7.9-1.4,10.95,2.12,2.36,6.14,2.69,8.61,.71s3.03-5.97,1.19-8.56c-2.13-2.99-6.26-3.53-9.54-5.18-4.83-2.43-8.04-8.34-6.32-13.47,1.72-5.13,9.07-7.73,13.05-4.07,1.52,1.4,2.43,3.45,4.21,4.51,2.12,1.27,4.99,.7,6.9-.86s2.99-3.94,3.6-6.33c.73-2.86,.88-5.85,1.73-8.68,.85-2.83,2.61-5.61,5.39-6.61,3.03-1.08,6.46,.28,8.91,2.36,2.46,2.08,4.25,4.83,6.43,7.19,2.19,2.36,5.02,4.44,8.24,4.51,3.22,.07,6.58-2.68,6.15-5.86-.37-2.73-3.53-4.57-6.21-3.93s-4.62,3.28-4.88,6.02c-.26,2.75,.93,5.49,2.77,7.56,3.34,3.76,8.89,5.4,13.74,4.07,3.33-.92,6.6-3.95,5.9-7.33-.64-3.08-4.45-4.7-7.48-3.84-3.03,.86-5.23,3.52-6.6,6.35s-2.1,5.93-3.35,8.82-3.19,5.68-6.08,6.92c-4.53,1.93-9.78-.59-13.4-3.93-3.62-3.34-6.48-7.58-10.66-10.18s-10.53-2.86-13.32,1.2c.9-3.98,1.91-8.06,4.36-11.32,2.45-3.26,6.7-5.51,10.62-4.41,3.92,1.1,6.36,6.45,3.78,9.6-1.96,2.39-5.84,2.83-7.25,5.58-.91,1.78-.39,4.06,.94,5.56,1.32,1.49,3.3,2.28,5.28,2.53,3.19,.41,6.72-.6,8.66-3.16,1.95-2.57,1.72-6.75-.9-8.61-3.56-2.52-8.61,.39-10.95,4.07s-3.43,8.22-6.56,11.26c-3.08,3-7.72,4.01-11.99,3.46-4.27-.56-8.24-2.5-11.91-4.74,2.09,.31,4.29-1.25,4.68-3.33,.39-2.08-1.09-4.34-3.15-4.81-2.16-.49-4.29,.77-6.1,2.04-3.9,2.73-7.77,5.98-9.35,10.46-1.58,4.49,.09,10.42,4.58,11.99,4.41,1.54,9.16-1.68,11.79-5.55,2.63-3.86,4.09-8.49,7.12-12.06,3.03-3.56,8.66-5.72,12.37-2.87,2.91,2.24,3.31,6.45,3.05,10.12-.26,3.67-.87,7.57,.82,10.84,1.55,3.01,5.06,4.87,8.43,4.48s6.35-3.01,7.17-6.3c.74-2.93-.15-6.01-.14-9.03,.01-3.02,1.54-6.56,4.54-6.94,3.27-.42,5.54,3,8.26,4.87,4.72,3.24,12.18,1.03,14.37-4.26,1.26-3.05,1.09-6.93,3.62-9.06,2.59-2.19,6.84-1.38,9.38-3.63,2.25-1.99,2.12-5.77,.37-8.21-1.75-2.44-4.7-3.74-7.62-4.44-6.74-1.62-14.1-.53-20.07,2.98-4.9,2.88-8.78,7.22-13.56,10.3-9.28,5.97-21.81,6.45-31.53,1.23-3.3-1.77-6.58-4.81-6.27-8.54,.33-3.87,4.32-6.31,8.05-7.39,8.6-2.48,18.27-.97,25.7,4.02-12.5,5.88-25.01,11.77-37.51,17.65"/><ellipse class="p" cx="163.18" cy="401.72" rx="66.63" ry="3.55"/><g><g><g><path class="m" d="M148.88,162.88l-6.91,34.89c-6.38-.24-12.76-1.35-19.03-3.23,0-2.28,0-4.47,.04-6.56,.16-14.27,.95-23.91,.95-23.91-2.83-19.7-5.68-39.4-8.52-59.11-.81-5.61-1.59-11.5,.36-16.82,1.96-5.32,7.63-9.74,13.1-8.26l7.13,29.54,12.88,53.46Z"/><path class="m" d="M128.88,79.88c-5.47-1.49-11.14,2.94-13.1,8.26-1.95,5.32-1.17,11.21-.36,16.83,2.84,19.7,5.68,39.4,8.52,59.1,0,0-.79,9.65-.96,23.91,3.88-26.5,10.53-52.15,13.01-78.58l-7.12-29.53Z"/><path class="u" d="M148.88,162.88l-6.9,34.88h0c-6.38-.24-12.76-1.35-19.03-3.23,0-2.28,0-4.47,.04-6.56,3.88-26.49,10.52-52.15,13.02-78.56l12.88,53.46Z"/><path class="q" d="M124.18,225.36l11.14,4.15,6.65-31.75c-6.38-.24-12.76-1.35-19.03-3.22,.02,9.25,.33,19.87,1.24,30.82Z"/></g><g><path class="q" d="M124.16,225.2c.96,5.61,2.49,11.14,4.57,16.46,.57,1.47,1.32,3.06,2.76,3.67,1.58,.67,3.32-.11,4.81-.88,2.07-1.07,4.33-2.38,4.95-4.66,.52-1.94-.32-4.03-1.31-5.82-2.67-4.84-6.59-8.99-11.24-11.91l-4.54,3.14Z"/><path class="q" d="M130.05,244.24c1.3,1.99,2.59,3.99,3.89,5.98,1.92-.07,3.87,0,5.79-.07,1.23-.94,2.8-1.98,4.02-2.92-1.35-.94-3.62-.68-4.66,.59-.87-.2-2.08-.14-2.95-.34-1.02-1.59-2.42-3.18-3.45-4.77l-2.65,1.53Z"/><path class="q" d="M132.49,240.97c1.3,1.99,2.59,3.99,3.89,5.98,1.92-.07,3.87,0,5.79-.07,1.23-.94,2.8-1.98,4.02-2.92-1.35-.94-3.62-.68-4.66,.59-.87-.2-2.08-.14-2.95-.34-1.02-1.59-2.42-3.18-3.45-4.77l-2.65,1.53Z"/><path class="q" d="M133.14,238.08c1.3,1.99,2.59,3.99,3.89,5.98,1.92-.07,3.87,0,5.79-.07,1.23-.94,2.8-1.98,4.02-2.92-1.35-.94-3.62-.68-4.66,.59-.87-.2-2.08-.14-2.95-.34-1.02-1.59-2.42-3.18-3.45-4.77l-2.65,1.53Z"/><path class="q" d="M133.99,235.1c1.3,1.99,2.59,3.99,3.89,5.98,1.92-.07,3.87,0,5.79-.07,1.23-.94,2.8-1.98,4.02-2.92-1.35-.94-3.62-.68-4.66,.59-.87-.2-2.08-.14-2.95-.34-1.02-1.59-2.42-3.18-3.45-4.77l-2.65,1.53Z"/></g><g><path class="a`" d="M132.88,228.93c-.38-.51-1.24,0-.85,.52,1.96,2.6,2.01,6.44,0,9.03-.39,.5,.33,1.2,.72,.69,2.27-2.93,2.37-7.27,.13-10.25Z"/><path class="a`" d="M132.86,238.81c-.26-.59-1.11-.06-.85,.52,1.14,2.54,1.53,5.4,1.12,8.15-.09,.63,.88,.88,.97,.25,.45-3.04,.02-6.11-1.24-8.91Z"/></g></g><g><g><path class="a`" d="M170.93,379.08c0,2.13-.02,4.21-.04,6.2h-10.7l-.6-6.2h11.33Z"/><g><path class="y" d="M171.61,384.35l-12.52-.4c-3.49,4.2-24.5,9.48-25.72,15.13h41.13c-.46-5.03-1.39-9.97-2.89-14.73Z"/><path class="ah" d="M133.37,399.08c-.12,.54-.24,1.08-.33,1.63-.15,.86,.41,1.66,1.17,1.66h39.25c.69,0,1.25-.68,1.19-1.47-.04-.61-.09-1.21-.15-1.82h-41.13Z"/></g></g><path class="l" d="M143.21,187.63s-13.49,87.39,13.34,192.25l17.29-.17s9.77-96.27,4.07-137.62c-3.59-26.05,.94-57.43,.94-57.43l-35.64,2.98Z"/></g><g><g><g><path class="a`" d="M191.85,379.08c0,2.13-.02,4.21-.04,6.2h-10.7l-.6-6.2h11.33Z"/><g><path class="m" d="M192.53,384.35l-12.52-.4c-3.49,4.2-24.5,9.48-25.72,15.13h41.13c-.46-5.03-1.39-9.97-2.89-14.73Z"/><path class="ah" d="M154.29,399.08c-.12,.54-.24,1.08-.33,1.63-.15,.86,.41,1.66,1.17,1.66h39.25c.69,0,1.25-.68,1.19-1.47-.04-.61-.09-1.21-.15-1.82h-41.13Z"/></g></g><path class="x" d="M163.97,185.04s-13.36,89.35,13.48,194.22l17.15,.62s19.19-77.12,19.89-139.43c.3-26.3-1.98-60-1.98-60l-48.54,4.59Z"/></g><path class="l" d="M194.68,369.26h-12.77c-.64,0-.76,.99-.11,.99h12.77c.64,0,.76-.99,.11-.99Z"/><path class="l" d="M203.4,214.47c-6.49,.16-12.87-3.09-16.53-8.46-.36-.53-1.22-.01-.85,.52,3.85,5.65,10.55,9.11,17.4,8.94,.64-.02,.63-1.02,0-1Z"/><path class="l" d="M185.86,294.49l-9.94,9.23c-.47,.44,.25,1.13,.72,.69l9.94-9.23c.47-.44-.25-1.13-.72-.69Z"/></g><path class="m" d="M181.57,67.77c-3.56-1.27-7.46-1.14-11.62-1.02-5.36,.14-10.7,.7-15.98,1.64-10.33,1.85-20.39,5.22-29.73,10.01-3.59,1.84-6.05,6.59-5.26,10.54,.6,3.01,1.94,5.81,3.21,8.6,6.5,14.29,11.51,29.26,14.96,44.58,1.78,7.88,3.14,15.86,4.08,23.89,.46,3.9,1.62,25.34,1.27,29.25-.65,7.21,52.16,12.52,69.87-6.22,3.85-4.08-3.76-46.77-4.89-55.12-2.24-16.58-6.31-32.96-12.29-48.59-1.98-5.19-4.46-10.54-8.55-14.41-1.6-1.51-3.29-2.5-5.07-3.13Z"/><path class="u" d="M141.23,166c-.94-8.03-2.3-16-4.08-23.89-2.93-13-7-25.74-12.13-38.04,12.82,20.63,15.06,45.85,26.42,67.89,2.33,4.21,3.99,10.3,9.64,12.3-3.55,.44-10.97-1.33-9.75,1.22,13.26,22.68,43.87,16.34,61.92,.92-.17,1.27-.45,2.17-.87,2.62-17.71,18.75-70.52,13.44-69.87,6.22,.35-3.91-.81-25.35-1.27-29.25Z"/><path class="u" d="M139.1,92.25c1.55,.65,3.31,.15,4.75-.55,1.42-.69,2.72-1.62,3.86-2.71,2.27-2.2,3.89-5.07,4.6-8.15,.4-1.73,.5-3.51,.29-5.27-.06-.51,.73-.54,.79-.04,.81,6.75-2.98,13.85-9.11,16.84-1.72,.84-3.7,1.36-5.54,.59-.47-.2-.11-.91,.36-.71Z"/><g><path class="ah" d="M137.9,74.4c-5.13-9.34-10.27-18.69-15.4-28.03,1.24-.48,.86-2.8,.18-3.94s-2.45-1.43-3.46-.56c-.35-1.19-2.13-2.53-3.36-2.68-1.23-.15-2.53,.49-3.16,1.56-1.71-1.19-5.05-.73-6.2,1.01-1.36-.39-2.43-.43-3.78-.02-1.36,.41-2.47,1.95-1.88,3.24-.96-.72-3.3-.43-4.42,.02s-1.96,1.49-2.16,2.68c-.69-.26-1.54,.15-2.27,.11-.73-.05-1.51,.15-2.01,.69s-.6,1.45-.11,2c-1.5,.09-3.37,.5-4.64,1.31-1.26,.81-2.06,2.56-1.31,3.86-1.3-.09-2.42,1.03-2.7,2.3-.28,1.27,.48,2.7,1.7,3.17-.8,.86-1.22,3.39-.55,4.36,.67,.97,2.04,1.37,3.13,.92-.26,.96,.35,2.17,1.07,2.85,.72,.69,1.83,.94,2.77,.63,5.81,2.49,11.41,5.57,16.14,9.76l32.44-5.22Z"/><path class="h" d="M82.35,65.46c-.67-.97-.25-3.5,.55-4.36-1.22-.47-1.98-1.89-1.7-3.17,.28-1.27,1.4-2.39,2.7-2.3-.75-1.3,.04-3.05,1.31-3.86,1.26-.81,3.14-1.22,4.64-1.31-.49-.54-.38-1.46,.11-2,.5-.54,1.28-.74,2.01-.69,.73,.05,1.59-.36,2.27-.11,.2-1.18,1.05-2.23,2.16-2.68s3.46-.74,4.42-.02c-.58-1.29,.53-2.83,1.88-3.24,1.36-.41,2.42-.37,3.78,.02,1.16-1.74,4.49-2.2,6.2-1.01,.63-1.07,1.92-1.71,3.16-1.56,1.23,.15,3.01,1.49,3.36,2.68,1.01-.87,2.78-.58,3.46,.56,.68,1.14,1.06,3.46-.18,3.94,1.73,3.14,3.45,6.29,5.18,9.43-1.06-1.05-2.11-2.12-3.1-3.24-.8-.9-1.58-1.83-2.32-2.78-.5-.64-1.04-1.28-1.42-2-.49-.93-.88-2.1-1.75-2.74-.83-.62-1.67-.29-2.34,.28-.28-.58-.68-1.11-1.27-1.36-.73-.31-1.4-.04-1.94,.43-.62-.46-1.34-.64-2.11-.25-.73,.37-1.26,1.05-1.73,1.71-.91-.38-1.95-.53-2.88-.14-.87,.36-1.39,1.09-1.65,1.94-1.25-.32-2.55-.54-3.79-.02-.66,.28-1.11,.75-1.44,1.38-.25,.48-.4,1.22-.82,1.58-.45,.39-1.39,.12-1.92,.06-.66-.08-1.36-.18-2.01,0-1.41,.37-2.32,1.44-2.92,2.68-1.26,.12-2.52,.49-3.49,1.27-1.32,1.07-1.49,2.64-.91,4.1-1.11,.58-2.46,1.48-2.22,2.84,.23,1.28,1.73,2.01,2.9,2.49-.16,.82-.16,1.68,.35,2.4,.52,.75,1.4,1.06,2.27,1.17,.26,1.24,.6,2.43,1.05,3.57-.95-.45-1.91-.89-2.88-1.3-.95,.31-2.05,.06-2.77-.63-.72-.69-1.33-1.89-1.07-2.85-1.09,.45-2.46,.04-3.13-.92Z"/><g><path class="q" d="M126.28,62.78c6.69,3.93,13.67,7.4,20.84,10.35,1.69,.7,2.86,2.32,2.85,4.16,0,4.21-1.66,8.02-4.65,10.85-1.45,1.36-3.6,1.66-5.34,.7-4.34-2.4-8.74-4.88-13.04-7.23l-.65-18.82Z"/><path class="a`" d="M126.28,62.78c3.87,2.27,7.83,4.39,11.87,6.34,2.18,3.88,2.78,8.27,2.21,13.03-.4,2-1.05,3.99-1.94,5.83-3.83-2.13-7.7-4.3-11.49-6.37l-.65-18.82Z"/></g><g><path class="q" d="M128.18,86.86c8.94-10.08,5.17-18.58-.4-22.73,1.7-1.98,1.68-5.06-.06-7-.93-1.04-2.29-1.71-3.68-1.65-1.38,.07-2.74,.9-3.28,2.18-.55,1.27-.15,2.92,.99,3.71l-5.21-.02c-2.42-1.44-5.11-3.41-7.52-4.85-6.05,3.54-10.59,8.77-13.6,15.1,1.42,2.02,4.37,5.04,4.67,5.24,10.37,7.41,20.87,18.15,28.08,10.02Z"/><path class="a`" d="M123.54,61.85c-.84-.87-1.78-1.9-1.75-3.2,.03-1.08,.8-2.13,1.93-2.14,.2,0,.35,.22,.33,.4-.02,.22-.2,.32-.4,.33-.75,0-1.17,.95-1.12,1.6,.06,1.03,.92,1.86,1.59,2.56,.14,.14,.08,.4-.06,.52-.17,.13-.38,.08-.52-.06Z"/><path class="a`" d="M124.28,83.83c.43-.48,.86-.96,1.29-1.44,.13-.14,.35-.21,.51-.08,.14,.11,.22,.36,.08,.51-.43,.48-.86,.96-1.29,1.44-.13,.14-.35,.21-.51,.08-.14-.11-.22-.36-.08-.51Z"/><path class="ah" d="M104.94,67.72c1.29,.22,2.16-.99,2.87-1.87l2.65-3.33c.29-.37,.89,.06,.59,.43-1,1.26-1.99,2.52-3,3.77-.78,.97-1.83,1.96-3.19,1.73-.46-.08-.39-.81,.08-.73Z"/><path class="ah" d="M100.35,75.54c.53-.75,1.07-1.5,1.6-2.25,.26-.36,.52-.72,.78-1.09,.1-.15,.24-.34,.25-.53,0-.09-.03-.27-.14-.29-.46-.09-.39-.82,.08-.73,.46,.09,.77,.46,.79,.93,.03,.57-.37,1.03-.68,1.47-.69,.98-1.39,1.95-2.08,2.93-.27,.38-.87-.05-.59-.43Z"/></g><path class="a`" d="M112.22,80.78c-.32-.37-.52-.83-.73-1.26l-.79-1.6c-.54-1.09-1.08-2.19-1.62-3.28-.21-.43,.43-.83,.65-.39,.47,.95,.94,1.91,1.41,2.86,.46,.93,.87,1.9,1.39,2.79,1.07,1.86,3.22,.02,4.75-.05,.49-.02,.51,.74,.02,.76-.96,.04-1.77,.61-2.69,.8-.88,.19-1.78,.08-2.39-.64Z"/><path class="ah" d="M113.15,66.46c.08,1.51-.91,2.99-2.33,3.5-.61,.22-.28,1.16,.33,.94,1.85-.66,3.11-2.56,3-4.52-.03-.64-1.03-.57-1,.08Z"/><path class="ah" d="M107.81,74.69c-.29,.02-.46,.27-.46,.54,0,.12-.01,.23-.04,.39-.02,.08-.03,.16-.06,.24,0,.03-.02,.06-.03,.09,0,0-.02,.06-.03,.07-.12,.32-.25,.53-.43,.76-.39,.48-.85,.79-1.46,.94-.26,.06-.39,.4-.31,.64,.1,.27,.37,.37,.64,.31,1.58-.39,2.69-1.91,2.71-3.5,0-.27-.28-.48-.54-.46Z"/><path class="ah" d="M126.16,77.17c-2.12,.55-4.05,1.73-5.52,3.36-.43,.48,.32,1.14,.75,.66,1.36-1.51,3.13-2.57,5.09-3.08,.26-.07,.39-.4,.31-.64-.09-.27-.37-.38-.64-.31Z"/></g><g><path class="q" d="M136.93,149.27c14.71-2.95,25.6-4.01,38.19-5.17,1.59,5.2,2.51,10.48,2.07,15.93-13.52-.36-27.1-1.94-39.82-4.67-.16-2.12-.28-3.97-.44-6.09Z"/><g><path class="q" d="M147.28,148.19c-5.5-1.47-11.16-2.39-16.86-2.72-1.57-.09-3.33-.08-4.49,.97-1.27,1.15-1.29,3.06-1.21,4.73,.11,2.33,.35,4.93,2.17,6.45,1.55,1.29,3.79,1.39,5.84,1.24,5.51-.41,10.92-2.23,15.51-5.23l-.95-5.43Z"/><path class="q" d="M127.53,145.58c-2.35,.34-4.71,.69-7.06,1.03-.74,1.78-1.62,3.51-2.36,5.29,.34,1.51,.63,3.37,.97,4.87,1.42-.83,2.13-3,1.41-4.48,.55-.7,1-1.83,1.54-2.53,1.87-.27,3.9-.87,5.77-1.14l-.28-3.05Z"/><path class="q" d="M129.48,149.16c-2.35,.34-4.71,.69-7.06,1.03-.74,1.78-1.62,3.51-2.36,5.29,.34,1.51,.63,3.37,.97,4.87,1.42-.83,2.13-3,1.41-4.48,.55-.7,1-1.83,1.54-2.53,1.87-.27,3.9-.87,5.77-1.14l-.28-3.05Z"/><path class="q" d="M131.83,150.96c-2.35,.34-4.71,.69-7.06,1.03-.74,1.78-1.62,3.51-2.36,5.29,.34,1.51,.63,3.37,.97,4.87,1.42-.83,2.13-3,1.41-4.48,.55-.7,1-1.83,1.54-2.53,1.87-.27,3.9-.87,5.77-1.14l-.28-3.05Z"/><path class="q" d="M134.18,152.97c-2.35,.34-4.71,.69-7.06,1.03-.74,1.78-1.62,3.52-2.36,5.29,.34,1.51,.63,3.37,.97,4.87,1.42-.83,2.13-3,1.41-4.48,.55-.7,1-1.83,1.54-2.53,1.87-.27,3.9-.87,5.77-1.14l-.28-3.05Z"/></g></g><g><path class="u" d="M175.7,143c-.21-.6-1.17-.33-.96,.28,2.13,6.07,2.74,12.61,1.74,18.97-.1,.63,.87,.88,.97,.25,1.03-6.53,.44-13.25-1.75-19.49Z"/><path class="u" d="M185.37,140.52c-3.42,.73-6.85,1.45-10.27,2.18-.63,.13-.35,1.09,.28,.96,3.42-.73,6.85-1.45,10.27-2.18,.63-.13,.35-1.09-.28-.96Z"/><path class="u" d="M177.32,106.46c-1.28-3.09-2.68-6.13-4.2-9.1-.29-.57-1.15-.05-.85,.52,5.33,10.46,9.18,21.66,11.43,33.18,.64,3.27,1.14,6.57,1.52,9.88,.07,.63,1.07,.63,1,0-1.34-11.83-4.32-23.46-8.89-34.47Z"/><path class="u" d="M203.27,112.29c-1.5-7.17-3.59-14.22-6.23-21.06-.23-.6-1.19-.33-.96,.28,4.57,11.84,7.47,24.3,8.59,36.94,.56,6.32,.69,12.68,.36,19.01-.16,3.11-.32,6.29-.82,9.36-.22,1.35-.7,2.58-1.91,3.31-1.05,.64-2.33,.84-3.54,.94-3.54,.29-7.13,.27-10.67,.4-3.71,.13-7.42,.26-11.13,.39-.64,.02-.63,1.02,0,1,6.84-.24,13.69-.46,20.53-.72,2.34-.09,5.15-.32,6.66-2.36,.79-1.06,1-2.37,1.15-3.65,.19-1.63,.35-3.27,.48-4.91,1.03-13.01,.16-26.16-2.52-38.93Z"/><path class="u" d="M186.15,140.51c-.57-.29-1.06,.58-.49,.87,3.66,1.85,6.32,5.31,7.2,9.31,.14,.63,1.1,.35,.96-.28-.93-4.24-3.81-7.95-7.68-9.91Z"/></g><path class="u" d="M206.42,173.16c-5.95,3.92-12.52,6.83-19.41,8.65-6.92,1.82-14.12,2.54-21.26,2.1-4.03-.25-8.02-.88-11.93-1.88-.62-.16-.87,.81-.25,.97,7.02,1.79,14.32,2.39,21.54,1.83,7.22-.56,14.35-2.26,21.03-5.06,3.77-1.58,7.39-3.5,10.8-5.75,.54-.35,.02-1.21-.52-.85Z"/></g></g><g><path class="g" d="M109.7,77.78c0,2.61-2.12,4.73-4.73,4.73s-4.73-2.12-4.73-4.73,2.12-4.73,4.73-4.73,4.73,2.12,4.73,4.73Z"/><path class="g" d="M117.05,68.94c0,2.61-2.12,4.73-4.73,4.73s-4.73-2.12-4.73-4.73,2.12-4.73,4.73-4.73,4.73,2.12,4.73,4.73Z"/><path class="g" d="M108.74,72.12c-.34,.5-.69,1.01-1.03,1.51"/></g></g></g></g></svg>