<?xml version="1.0" encoding="UTF-8"?><svg xmlns="http://www.w3.org/2000/svg" viewBox="0 0 308.09 447.01"><defs><style>.d{font-family:PlayfairDisplay-Regular, PlayfairDisplay Regular;font-size:27.48px;}.d,.e,.f{fill:#457b9d;}.g{fill:#213a4a;}.h{fill:#ffd797;}.i{fill:#345c75;}.j{letter-spacing:.1em;}.k{letter-spacing:.1em;}.l{fill:#2a4e80;}.m{fill:#a8dadc;}.n{fill:#94c0c2;}.o{fill:#459a9d;}.p{fill:#ffc9b9;}.f{opacity:.29;}.q{letter-spacing:.1em;}.r{fill:#ffab90;}.s{letter-spacing:.11em;}.t{fill:#1d3557;}.u{fill:#50b2b5;}</style></defs><g id="a"/><g id="b"><g id="c"><g><g><g><path class="m" d="M250.3,95.26c-.69,0-1.25-.56-1.25-1.25s.56-1.25,1.25-1.25,1.25,.56,1.25,1.25-.56,1.25-1.25,1.25Z"/><path class="m" d="M250.3,111.62c-.69,0-1.25-.56-1.25-1.25s.56-1.25,1.25-1.25,1.25,.56,1.25,1.25-.56,1.25-1.25,1.25Z"/><path class="m" d="M250.3,127.98c-.69,0-1.25-.56-1.25-1.25s.56-1.25,1.25-1.25,1.25,.56,1.25,1.25-.56,1.25-1.25,1.25Z"/><path class="m" d="M250.3,144.34c-.69,0-1.25-.56-1.25-1.25s.56-1.25,1.25-1.25,1.25,.56,1.25,1.25-.56,1.25-1.25,1.25Z"/><path class="m" d="M234.08,95.26c-.69,0-1.25-.56-1.25-1.25s.56-1.25,1.25-1.25,1.25,.56,1.25,1.25-.56,1.25-1.25,1.25Z"/><path class="m" d="M234.08,111.62c-.69,0-1.25-.56-1.25-1.25s.56-1.25,1.25-1.25,1.25,.56,1.25,1.25-.56,1.25-1.25,1.25Z"/><circle class="m" cx="234.08" cy="126.72" r="1.25" transform="translate(-1.16 2.17) rotate(-.53)"/><path class="m" d="M234.08,144.34c-.69,0-1.25-.56-1.25-1.25s.56-1.25,1.25-1.25,1.25,.56,1.25,1.25-.56,1.25-1.25,1.25Z"/><path class="m" d="M217.87,95.26c-.69,0-1.25-.56-1.25-1.25s.56-1.25,1.25-1.25,1.25,.56,1.25,1.25-.56,1.25-1.25,1.25Z"/><path class="m" d="M217.87,111.62c-.69,0-1.25-.56-1.25-1.25s.56-1.25,1.25-1.25,1.25,.56,1.25,1.25-.56,1.25-1.25,1.25Z"/><path class="m" d="M217.87,127.98c-.69,0-1.25-.56-1.25-1.25s.56-1.25,1.25-1.25,1.25,.56,1.25,1.25-.56,1.25-1.25,1.25Z"/><path class="m" d="M217.87,144.34c-.69,0-1.25-.56-1.25-1.25s.56-1.25,1.25-1.25,1.25,.56,1.25,1.25-.56,1.25-1.25,1.25Z"/><path class="m" d="M201.65,95.26c-.69,0-1.25-.56-1.25-1.25s.56-1.25,1.25-1.25,1.25,.56,1.25,1.25-.56,1.25-1.25,1.25Z"/><path class="m" d="M201.65,111.62c-.69,0-1.25-.56-1.25-1.25s.56-1.25,1.25-1.25,1.25,.56,1.25,1.25-.56,1.25-1.25,1.25Z"/><path class="m" d="M201.65,127.98c-.69,0-1.25-.56-1.25-1.25s.56-1.25,1.25-1.25,1.25,.56,1.25,1.25-.56,1.25-1.25,1.25Z"/><path class="m" d="M201.65,144.34c-.69,0-1.25-.56-1.25-1.25s.56-1.25,1.25-1.25,1.25,.56,1.25,1.25-.56,1.25-1.25,1.25Z"/></g><g><circle class="m" cx="43.2" cy="282.55" r=".96"/><circle class="m" cx="30.64" cy="282.55" r=".96"/><circle class="m" cx="43.2" cy="270.09" r=".96"/><circle class="m" cx="30.64" cy="270.09" r=".96"/><circle class="m" cx="43.2" cy="257.63" r=".96"/><circle class="m" cx="30.64" cy="257.63" r=".96"/><circle class="m" cx="43.2" cy="245.18" r=".96"/><circle class="m" cx="30.64" cy="245.18" r=".96"/><path class="m" d="M42.24,232.72c0-.53,.43-.96,.96-.96s.96,.43,.96,.96-.43,.96-.96,.96-.96-.43-.96-.96Z"/><path class="m" d="M29.67,232.72c0-.53,.43-.96,.96-.96s.96,.43,.96,.96-.43,.96-.96,.96-.96-.43-.96-.96Z"/><circle class="m" cx="43.2" cy="220.26" r=".96"/><circle class="m" cx="30.64" cy="220.26" r=".96"/><path class="m" d="M42.24,207.8c0-.53,.43-.96,.96-.96s.96,.43,.96,.96-.43,.96-.96,.96-.96-.43-.96-.96Z"/><path class="m" d="M29.67,207.8c0-.53,.43-.96,.96-.96s.96,.43,.96,.96-.43,.96-.96,.96-.96-.43-.96-.96Z"/></g></g><g><g><path class="e" d="M17.77,37.38l-.04-2.03h.63l-.05,2.03h-.53Zm1.36,0l-.05-2.03h.63l-.05,2.03h-.53Z"/><path class="e" d="M20.98,40.61v-5.26h.62l2.36,3.97h-.33l2.33-3.97h.62v5.26h-.71v-4.12h.17l-2.07,3.48h-.35l-2.09-3.48h.19v4.12h-.72Z"/><path class="e" d="M29.82,40.66c-.43,0-.8-.09-1.12-.26-.32-.17-.57-.42-.75-.72-.18-.31-.27-.66-.27-1.05s.09-.75,.26-1.05c.17-.31,.41-.54,.71-.72,.3-.17,.64-.26,1.03-.26s.73,.09,1.02,.26c.3,.17,.53,.41,.69,.72,.17,.31,.25,.67,.25,1.08,0,.03,0,.07,0,.1,0,.04,0,.08-.01,.11h-3.39v-.52h3.01l-.29,.18c0-.26-.05-.48-.16-.68-.11-.2-.26-.36-.45-.47-.19-.11-.42-.17-.67-.17s-.47,.06-.67,.17c-.2,.11-.35,.27-.46,.47-.11,.2-.17,.43-.17,.69v.12c0,.27,.06,.5,.18,.71s.29,.37,.51,.48c.22,.12,.47,.17,.76,.17,.24,0,.45-.04,.64-.12,.19-.08,.36-.2,.51-.36l.4,.47c-.18,.21-.4,.37-.67,.48-.27,.11-.57,.17-.9,.17Z"/><path class="e" d="M34.77,36.59c.33,0,.61,.06,.86,.19,.25,.12,.44,.32,.58,.57,.14,.26,.21,.58,.21,.97v2.29h-.72v-2.21c0-.39-.09-.68-.28-.87-.19-.2-.45-.29-.79-.29-.26,0-.48,.05-.67,.15-.19,.1-.34,.25-.44,.44s-.15,.44-.15,.73v2.05h-.72v-3.98h.69v1.07l-.11-.29c.13-.26,.33-.46,.6-.61,.27-.15,.59-.22,.95-.22Z"/><path class="e" d="M37.18,37.23v-.59h2.54v.59h-2.54Zm1.94,3.43c-.4,0-.71-.11-.93-.32-.22-.21-.33-.52-.33-.92v-3.65h.72v3.62c0,.22,.05,.38,.16,.5,.11,.12,.26,.17,.46,.17,.23,0,.41-.06,.56-.19l.23,.52c-.11,.09-.24,.17-.39,.21s-.31,.07-.48,.07Z"/><path class="e" d="M42.03,40.66c-.3,0-.55-.05-.78-.15-.22-.1-.39-.24-.51-.42-.12-.18-.18-.38-.18-.6s.05-.41,.15-.59c.1-.17,.27-.31,.5-.42,.23-.1,.55-.16,.94-.16h1.26v.52h-1.23c-.36,0-.6,.06-.73,.18-.12,.12-.19,.27-.19,.44,0,.19,.08,.35,.23,.47,.16,.12,.37,.18,.65,.18s.51-.06,.71-.18,.35-.29,.44-.53l.14,.5c-.1,.24-.26,.42-.5,.56-.24,.14-.54,.21-.91,.21Zm1.31-.04v-.84l-.04-.16v-1.43c0-.31-.09-.54-.27-.71-.18-.17-.44-.25-.8-.25-.24,0-.47,.04-.69,.12-.23,.08-.42,.18-.57,.31l-.3-.54c.21-.17,.45-.29,.74-.38,.29-.09,.59-.13,.91-.13,.55,0,.97,.13,1.26,.4,.3,.27,.44,.67,.44,1.22v2.4h-.68Z"/><path class="e" d="M45.36,40.61v-5.57h.72v5.57h-.72Z"/><path class="e" d="M51.6,36.59c.33,0,.61,.06,.86,.19,.25,.12,.44,.32,.58,.57,.14,.26,.21,.58,.21,.97v2.29h-.72v-2.21c0-.39-.09-.68-.28-.87-.19-.2-.45-.29-.79-.29-.26,0-.48,.05-.67,.15-.19,.1-.34,.25-.44,.44s-.15,.44-.15,.73v2.05h-.72v-5.57h.72v2.67l-.14-.29c.13-.26,.33-.46,.6-.61,.27-.15,.59-.22,.95-.22Z"/><path class="e" d="M56.36,40.66c-.43,0-.8-.09-1.12-.26-.32-.17-.57-.42-.75-.72-.18-.31-.27-.66-.27-1.05s.09-.75,.26-1.05c.17-.31,.41-.54,.71-.72,.3-.17,.64-.26,1.03-.26s.73,.09,1.02,.26c.3,.17,.53,.41,.69,.72,.17,.31,.25,.67,.25,1.08,0,.03,0,.07,0,.1,0,.04,0,.08-.01,.11h-3.39v-.52h3.01l-.29,.18c0-.26-.05-.48-.16-.68-.11-.2-.26-.36-.45-.47-.19-.11-.42-.17-.67-.17s-.47,.06-.67,.17c-.2,.11-.35,.27-.46,.47-.11,.2-.17,.43-.17,.69v.12c0,.27,.06,.5,.18,.71s.29,.37,.51,.48c.22,.12,.47,.17,.76,.17,.24,0,.45-.04,.64-.12,.19-.08,.36-.2,.51-.36l.4,.47c-.18,.21-.4,.37-.67,.48-.27,.11-.57,.17-.9,.17Z"/><path class="e" d="M60.24,40.66c-.3,0-.55-.05-.78-.15-.22-.1-.39-.24-.51-.42-.12-.18-.18-.38-.18-.6s.05-.41,.15-.59c.1-.17,.27-.31,.5-.42,.23-.1,.55-.16,.94-.16h1.26v.52h-1.23c-.36,0-.6,.06-.73,.18-.12,.12-.19,.27-.19,.44,0,.19,.08,.35,.23,.47,.16,.12,.37,.18,.65,.18s.51-.06,.71-.18,.35-.29,.44-.53l.14,.5c-.1,.24-.26,.42-.5,.56-.24,.14-.54,.21-.91,.21Zm1.31-.04v-.84l-.04-.16v-1.43c0-.31-.09-.54-.27-.71-.18-.17-.44-.25-.8-.25-.24,0-.47,.04-.69,.12-.23,.08-.42,.18-.57,.31l-.3-.54c.21-.17,.45-.29,.74-.38,.29-.09,.59-.13,.91-.13,.55,0,.97,.13,1.26,.4,.3,.27,.44,.67,.44,1.22v2.4h-.68Z"/><path class="e" d="M63.56,40.61v-5.57h.72v5.57h-.72Z"/><path class="e" d="M65.19,37.23v-.59h2.54v.59h-2.54Zm1.94,3.43c-.4,0-.71-.11-.93-.32-.22-.21-.33-.52-.33-.92v-3.65h.72v3.62c0,.22,.05,.38,.16,.5,.11,.12,.26,.17,.46,.17,.23,0,.41-.06,.56-.19l.23,.52c-.11,.09-.24,.17-.39,.21s-.31,.07-.48,.07Z"/><path class="e" d="M70.99,36.59c.33,0,.61,.06,.86,.19,.25,.12,.44,.32,.58,.57,.14,.26,.21,.58,.21,.97v2.29h-.72v-2.21c0-.39-.09-.68-.28-.87-.19-.2-.45-.29-.79-.29-.26,0-.48,.05-.67,.15-.19,.1-.34,.25-.44,.44s-.15,.44-.15,.73v2.05h-.72v-5.57h.72v2.67l-.14-.29c.13-.26,.33-.46,.6-.61,.27-.15,.59-.22,.95-.22Z"/><path class="e" d="M76.36,35.87c-.14,0-.26-.04-.35-.14-.09-.09-.14-.2-.14-.33s.05-.25,.14-.34c.09-.09,.21-.14,.35-.14s.26,.04,.35,.13c.09,.09,.14,.2,.14,.33s-.04,.25-.14,.34c-.09,.09-.21,.14-.35,.14Zm-.36,4.75v-3.98h.72v3.98h-.72Z"/><path class="e" d="M79.24,40.66c-.33,0-.64-.04-.94-.13-.3-.09-.53-.2-.7-.33l.3-.57c.17,.12,.38,.21,.63,.29,.25,.08,.51,.12,.77,.12,.34,0,.58-.05,.72-.14,.15-.1,.22-.23,.22-.4,0-.12-.04-.22-.14-.29s-.21-.12-.36-.16c-.15-.04-.31-.07-.49-.09s-.36-.06-.54-.11c-.18-.04-.35-.1-.5-.18-.15-.08-.27-.19-.36-.32-.09-.14-.14-.32-.14-.55s.07-.45,.2-.63,.33-.32,.57-.42c.25-.1,.54-.15,.88-.15,.26,0,.52,.03,.79,.09,.27,.06,.49,.15,.66,.27l-.31,.57c-.18-.12-.37-.2-.56-.25s-.39-.07-.59-.07c-.32,0-.55,.05-.71,.15s-.23,.23-.23,.39c0,.13,.05,.24,.14,.31,.09,.07,.21,.13,.36,.17,.15,.04,.31,.07,.49,.1,.18,.03,.36,.06,.54,.1s.34,.1,.49,.18c.15,.07,.27,.18,.36,.32s.14,.32,.14,.54c0,.24-.07,.45-.21,.62-.14,.18-.34,.31-.59,.41s-.56,.15-.92,.15Z"/><path class="e" d="M85.05,40.66c-.3,0-.55-.05-.78-.15-.22-.1-.39-.24-.51-.42-.12-.18-.18-.38-.18-.6s.05-.41,.15-.59c.1-.17,.27-.31,.5-.42,.23-.1,.55-.16,.94-.16h1.26v.52h-1.23c-.36,0-.6,.06-.73,.18-.12,.12-.19,.27-.19,.44,0,.19,.08,.35,.23,.47,.16,.12,.37,.18,.65,.18s.51-.06,.71-.18,.35-.29,.44-.53l.14,.5c-.1,.24-.26,.42-.5,.56-.24,.14-.54,.21-.91,.21Zm1.31-.04v-.84l-.04-.16v-1.43c0-.31-.09-.54-.27-.71-.18-.17-.44-.25-.8-.25-.24,0-.47,.04-.69,.12-.23,.08-.42,.18-.57,.31l-.3-.54c.21-.17,.45-.29,.74-.38,.29-.09,.59-.13,.91-.13,.55,0,.97,.13,1.26,.4,.3,.27,.44,.67,.44,1.22v2.4h-.68Z"/><path class="e" d="M92.13,40.66c-.41,0-.77-.09-1.09-.26-.32-.17-.57-.42-.75-.72-.18-.31-.27-.66-.27-1.05s.09-.75,.27-1.05c.18-.31,.43-.54,.75-.72,.32-.17,.68-.26,1.09-.26,.36,0,.68,.07,.97,.21,.28,.14,.5,.35,.66,.63l-.55,.35c-.13-.2-.29-.34-.48-.43-.19-.09-.39-.14-.6-.14-.26,0-.49,.06-.7,.17-.21,.12-.37,.28-.49,.48-.12,.21-.18,.45-.18,.74s.06,.53,.18,.74c.12,.21,.28,.37,.49,.49,.21,.12,.44,.17,.7,.17,.22,0,.42-.05,.6-.14,.19-.09,.35-.24,.48-.43l.55,.34c-.16,.28-.37,.49-.66,.63-.28,.15-.6,.22-.97,.22Z"/><path class="e" d="M94.68,40.61v-3.98h.69v1.08l-.07-.27c.11-.27,.3-.49,.56-.63,.26-.15,.58-.22,.96-.22v.7s-.06,0-.09,0h-.08c-.39,0-.69,.12-.92,.35-.23,.23-.34,.56-.34,1v1.98h-.72Z"/><path class="e" d="M99.44,40.66c-.34,0-.64-.06-.9-.19s-.46-.32-.6-.58c-.14-.26-.21-.58-.21-.97v-2.29h.72v2.21c0,.39,.09,.68,.28,.88,.19,.2,.45,.29,.79,.29,.25,0,.47-.05,.65-.15,.19-.1,.33-.25,.43-.45,.1-.2,.15-.44,.15-.72v-2.06h.72v3.98h-.68v-1.07l.11,.29c-.13,.27-.33,.47-.59,.62s-.55,.22-.88,.22Z"/><path class="e" d="M104.58,40.66c-.41,0-.77-.09-1.09-.26-.32-.17-.57-.42-.75-.72-.18-.31-.27-.66-.27-1.05s.09-.75,.27-1.05c.18-.31,.43-.54,.75-.72,.32-.17,.68-.26,1.09-.26,.36,0,.68,.07,.97,.21,.28,.14,.5,.35,.66,.63l-.55,.35c-.13-.2-.29-.34-.48-.43-.19-.09-.39-.14-.6-.14-.26,0-.49,.06-.7,.17-.21,.12-.37,.28-.49,.48-.12,.21-.18,.45-.18,.74s.06,.53,.18,.74c.12,.21,.28,.37,.49,.49,.21,.12,.44,.17,.7,.17,.22,0,.42-.05,.6-.14,.19-.09,.35-.24,.48-.43l.55,.34c-.16,.28-.37,.49-.66,.63-.28,.15-.6,.22-.97,.22Z"/><path class="e" d="M107.44,35.87c-.14,0-.26-.04-.35-.14-.09-.09-.14-.2-.14-.33s.05-.25,.14-.34c.09-.09,.21-.14,.35-.14s.26,.04,.35,.13c.09,.09,.14,.2,.14,.33s-.04,.25-.14,.34c-.09,.09-.21,.14-.35,.14Zm-.36,4.75v-3.98h.72v3.98h-.72Z"/><path class="e" d="M110.34,40.66c-.3,0-.55-.05-.78-.15-.22-.1-.39-.24-.51-.42-.12-.18-.18-.38-.18-.6s.05-.41,.15-.59c.1-.17,.27-.31,.5-.42,.23-.1,.55-.16,.94-.16h1.26v.52h-1.23c-.36,0-.6,.06-.73,.18-.12,.12-.19,.27-.19,.44,0,.19,.08,.35,.23,.47,.16,.12,.37,.18,.65,.18s.51-.06,.71-.18,.35-.29,.44-.53l.14,.5c-.1,.24-.26,.42-.5,.56-.24,.14-.54,.21-.91,.21Zm1.31-.04v-.84l-.04-.16v-1.43c0-.31-.09-.54-.27-.71-.18-.17-.44-.25-.8-.25-.24,0-.47,.04-.69,.12-.23,.08-.42,.18-.57,.31l-.3-.54c.21-.17,.45-.29,.74-.38,.29-.09,.59-.13,.91-.13,.55,0,.97,.13,1.26,.4,.3,.27,.44,.67,.44,1.22v2.4h-.68Z"/><path class="e" d="M113.67,40.61v-5.57h.72v5.57h-.72Z"/><path class="e" d="M118.95,40.66c-.3,0-.55-.05-.78-.15-.22-.1-.39-.24-.51-.42-.12-.18-.18-.38-.18-.6s.05-.41,.15-.59c.1-.17,.27-.31,.5-.42,.23-.1,.55-.16,.94-.16h1.26v.52h-1.23c-.36,0-.6,.06-.73,.18-.12,.12-.19,.27-.19,.44,0,.19,.08,.35,.23,.47,.16,.12,.37,.18,.65,.18s.51-.06,.71-.18,.35-.29,.44-.53l.14,.5c-.1,.24-.26,.42-.5,.56-.24,.14-.54,.21-.91,.21Zm1.31-.04v-.84l-.04-.16v-1.43c0-.31-.09-.54-.27-.71-.18-.17-.44-.25-.8-.25-.24,0-.47,.04-.69,.12-.23,.08-.42,.18-.57,.31l-.3-.54c.21-.17,.45-.29,.74-.38,.29-.09,.59-.13,.91-.13,.55,0,.97,.13,1.26,.4,.3,.27,.44,.67,.44,1.22v2.4h-.68Z"/><path class="e" d="M123.42,40.66c-.33,0-.64-.04-.94-.13-.3-.09-.53-.2-.7-.33l.3-.57c.17,.12,.38,.21,.63,.29,.25,.08,.51,.12,.77,.12,.34,0,.58-.05,.72-.14,.15-.1,.22-.23,.22-.4,0-.12-.04-.22-.14-.29s-.21-.12-.36-.16c-.15-.04-.31-.07-.49-.09s-.36-.06-.54-.11c-.18-.04-.35-.1-.5-.18-.15-.08-.27-.19-.36-.32-.09-.14-.14-.32-.14-.55s.07-.45,.2-.63,.33-.32,.57-.42c.25-.1,.54-.15,.88-.15,.26,0,.52,.03,.79,.09,.27,.06,.49,.15,.66,.27l-.31,.57c-.18-.12-.37-.2-.56-.25s-.39-.07-.59-.07c-.32,0-.55,.05-.71,.15s-.23,.23-.23,.39c0,.13,.05,.24,.14,.31,.09,.07,.21,.13,.36,.17,.15,.04,.31,.07,.49,.1,.18,.03,.36,.06,.54,.1s.34,.1,.49,.18c.15,.07,.27,.18,.36,.32s.14,.32,.14,.54c0,.24-.07,.45-.21,.62-.14,.18-.34,.31-.59,.41s-.56,.15-.92,.15Z"/><path class="e" d="M126.04,42.07v-5.44h.69v1.07l-.04,.92,.08,.92v2.52h-.72Zm2.11-1.41c-.33,0-.63-.08-.9-.23-.27-.15-.49-.38-.65-.68-.16-.3-.24-.67-.24-1.13s.08-.83,.24-1.13,.37-.53,.65-.68c.27-.15,.58-.23,.92-.23,.39,0,.74,.09,1.04,.26,.3,.17,.54,.41,.71,.71,.17,.3,.26,.66,.26,1.06s-.09,.76-.26,1.07c-.18,.31-.41,.54-.71,.71-.3,.17-.65,.25-1.04,.25Zm-.06-.63c.26,0,.48-.06,.69-.17s.36-.28,.48-.49,.18-.46,.18-.74-.06-.53-.18-.74c-.12-.21-.28-.37-.48-.48s-.43-.17-.69-.17-.48,.06-.68,.17c-.2,.12-.36,.28-.48,.48-.12,.21-.18,.45-.18,.74s.06,.53,.18,.74,.28,.38,.48,.49c.2,.12,.43,.17,.68,.17Z"/><path class="e" d="M132.94,40.66c-.43,0-.8-.09-1.12-.26-.32-.17-.57-.42-.75-.72-.18-.31-.27-.66-.27-1.05s.09-.75,.26-1.05c.17-.31,.41-.54,.71-.72,.3-.17,.64-.26,1.03-.26s.73,.09,1.02,.26c.3,.17,.53,.41,.69,.72,.17,.31,.25,.67,.25,1.08,0,.03,0,.07,0,.1,0,.04,0,.08-.01,.11h-3.39v-.52h3.01l-.29,.18c0-.26-.05-.48-.16-.68-.11-.2-.26-.36-.45-.47-.19-.11-.42-.17-.67-.17s-.47,.06-.67,.17c-.2,.11-.35,.27-.46,.47-.11,.2-.17,.43-.17,.69v.12c0,.27,.06,.5,.18,.71s.29,.37,.51,.48c.22,.12,.47,.17,.76,.17,.24,0,.45-.04,.64-.12,.19-.08,.36-.2,.51-.36l.4,.47c-.18,.21-.4,.37-.67,.48-.27,.11-.57,.17-.9,.17Z"/><path class="e" d="M137.5,40.66c-.41,0-.77-.09-1.09-.26-.32-.17-.57-.42-.75-.72-.18-.31-.27-.66-.27-1.05s.09-.75,.27-1.05c.18-.31,.43-.54,.75-.72,.32-.17,.68-.26,1.09-.26,.36,0,.68,.07,.97,.21,.28,.14,.5,.35,.66,.63l-.55,.35c-.13-.2-.29-.34-.48-.43-.19-.09-.39-.14-.6-.14-.26,0-.49,.06-.7,.17-.21,.12-.37,.28-.49,.48-.12,.21-.18,.45-.18,.74s.06,.53,.18,.74c.12,.21,.28,.37,.49,.49,.21,.12,.44,.17,.7,.17,.22,0,.42-.05,.6-.14,.19-.09,.35-.24,.48-.43l.55,.34c-.16,.28-.37,.49-.66,.63-.28,.15-.6,.22-.97,.22Z"/><path class="e" d="M139.53,37.23v-.59h2.54v.59h-2.54Zm1.94,3.43c-.4,0-.71-.11-.93-.32-.22-.21-.33-.52-.33-.92v-3.65h.72v3.62c0,.22,.05,.38,.16,.5,.11,.12,.26,.17,.46,.17,.23,0,.41-.06,.56-.19l.23,.52c-.11,.09-.24,.17-.39,.21s-.31,.07-.48,.07Z"/><path class="e" d="M146.94,40.66c-.4,0-.76-.09-1.07-.26s-.56-.42-.74-.72-.27-.66-.27-1.05,.09-.75,.27-1.05c.18-.31,.43-.54,.74-.72s.67-.26,1.07-.26,.75,.09,1.06,.26,.56,.41,.74,.71c.18,.3,.27,.65,.27,1.06s-.09,.75-.27,1.05c-.18,.3-.42,.55-.74,.72s-.67,.26-1.06,.26Zm0-.63c.26,0,.48-.06,.69-.17,.2-.12,.36-.28,.48-.49s.17-.46,.17-.74-.06-.53-.17-.74c-.12-.21-.27-.37-.48-.48-.2-.12-.43-.17-.69-.17s-.48,.06-.68,.17-.36,.28-.48,.48c-.12,.21-.18,.45-.18,.74s.06,.53,.18,.74c.12,.21,.28,.38,.48,.49s.43,.17,.68,.17Z"/><path class="e" d="M149.43,37.23v-.59h2.54v.59h-2.54Zm.68,3.39v-4.33c0-.39,.11-.7,.34-.94s.55-.35,.97-.35c.16,0,.3,.02,.45,.06,.14,.04,.26,.1,.36,.18l-.22,.55c-.07-.06-.16-.11-.26-.14s-.2-.05-.3-.05c-.21,0-.37,.06-.48,.18-.11,.12-.17,.29-.17,.52v.53l.02,.33v3.46h-.72Z"/><path class="e" d="M156.38,40.66c-.4,0-.76-.09-1.07-.26s-.56-.42-.74-.72-.27-.66-.27-1.05,.09-.75,.27-1.05c.18-.31,.43-.54,.74-.72s.67-.26,1.07-.26,.75,.09,1.06,.26,.56,.41,.74,.71c.18,.3,.27,.65,.27,1.06s-.09,.75-.27,1.05c-.18,.3-.42,.55-.74,.72s-.67,.26-1.06,.26Zm0-.63c.26,0,.48-.06,.69-.17,.2-.12,.36-.28,.48-.49s.17-.46,.17-.74-.06-.53-.17-.74c-.12-.21-.27-.37-.48-.48-.2-.12-.43-.17-.69-.17s-.48,.06-.68,.17-.36,.28-.48,.48c-.12,.21-.18,.45-.18,.74s.06,.53,.18,.74c.12,.21,.28,.38,.48,.49s.43,.17,.68,.17Z"/><path class="e" d="M160.38,40.61l-1.74-3.98h.75l1.55,3.6h-.36l1.58-3.6h.71l-1.74,3.98h-.74Z"/><path class="e" d="M165.19,40.66c-.43,0-.8-.09-1.12-.26-.32-.17-.57-.42-.75-.72-.18-.31-.27-.66-.27-1.05s.09-.75,.26-1.05c.17-.31,.41-.54,.71-.72,.3-.17,.64-.26,1.03-.26s.73,.09,1.02,.26c.3,.17,.53,.41,.69,.72,.17,.31,.25,.67,.25,1.08,0,.03,0,.07,0,.1,0,.04,0,.08-.01,.11h-3.39v-.52h3.01l-.29,.18c0-.26-.05-.48-.16-.68-.11-.2-.26-.36-.45-.47-.19-.11-.42-.17-.67-.17s-.47,.06-.67,.17c-.2,.11-.35,.27-.46,.47-.11,.2-.17,.43-.17,.69v.12c0,.27,.06,.5,.18,.71s.29,.37,.51,.48c.22,.12,.47,.17,.76,.17,.24,0,.45-.04,.64-.12,.19-.08,.36-.2,.51-.36l.4,.47c-.18,.21-.4,.37-.67,.48-.27,.11-.57,.17-.9,.17Z"/><path class="e" d="M168.01,40.61v-3.98h.69v1.08l-.07-.27c.11-.27,.3-.49,.56-.63,.26-.15,.58-.22,.96-.22v.7s-.06,0-.09,0h-.08c-.39,0-.69,.12-.92,.35-.23,.23-.34,.56-.34,1v1.98h-.72Z"/><path class="e" d="M171.91,40.66c-.3,0-.55-.05-.78-.15-.22-.1-.39-.24-.51-.42-.12-.18-.18-.38-.18-.6s.05-.41,.15-.59c.1-.17,.27-.31,.5-.42,.23-.1,.55-.16,.94-.16h1.26v.52h-1.23c-.36,0-.6,.06-.73,.18-.12,.12-.19,.27-.19,.44,0,.19,.08,.35,.23,.47,.16,.12,.37,.18,.65,.18s.51-.06,.71-.18,.35-.29,.44-.53l.14,.5c-.1,.24-.26,.42-.5,.56-.24,.14-.54,.21-.91,.21Zm1.31-.04v-.84l-.04-.16v-1.43c0-.31-.09-.54-.27-.71-.18-.17-.44-.25-.8-.25-.24,0-.47,.04-.69,.12-.23,.08-.42,.18-.57,.31l-.3-.54c.21-.17,.45-.29,.74-.38,.29-.09,.59-.13,.91-.13,.55,0,.97,.13,1.26,.4,.3,.27,.44,.67,.44,1.22v2.4h-.68Z"/><path class="e" d="M175.24,40.61v-5.57h.72v5.57h-.72Z"/><path class="e" d="M177.34,40.61v-5.57h.72v5.57h-.72Z"/><path class="e" d="M182.29,40.61l-1.48-3.98h.68l1.31,3.6h-.32l1.37-3.6h.61l1.34,3.6h-.32l1.34-3.6h.65l-1.49,3.98h-.69l-1.25-3.29h.21l-1.27,3.29h-.69Z"/><path class="e" d="M189.86,40.66c-.43,0-.8-.09-1.12-.26-.32-.17-.57-.42-.75-.72-.18-.31-.27-.66-.27-1.05s.09-.75,.26-1.05c.17-.31,.41-.54,.71-.72,.3-.17,.64-.26,1.03-.26s.73,.09,1.02,.26c.3,.17,.53,.41,.69,.72,.17,.31,.25,.67,.25,1.08,0,.03,0,.07,0,.1,0,.04,0,.08-.01,.11h-3.39v-.52h3.01l-.29,.18c0-.26-.05-.48-.16-.68-.11-.2-.26-.36-.45-.47-.19-.11-.42-.17-.67-.17s-.47,.06-.67,.17c-.2,.11-.35,.27-.46,.47-.11,.2-.17,.43-.17,.69v.12c0,.27,.06,.5,.18,.71s.29,.37,.51,.48c.22,.12,.47,.17,.76,.17,.24,0,.45-.04,.64-.12,.19-.08,.36-.2,.51-.36l.4,.47c-.18,.21-.4,.37-.67,.48-.27,.11-.57,.17-.9,.17Z"/><path class="e" d="M192.69,40.61v-5.57h.72v5.57h-.72Z"/><path class="e" d="M194.78,40.61v-5.57h.72v5.57h-.72Z"/><path class="e" d="M196.62,38.86v-.62h2.02v.62h-2.02Z"/><path class="e" d="M199.76,40.61v-5.57h.72v2.65l-.08,.92,.04,.92v1.07h-.69Zm2.11,.04c-.34,0-.65-.08-.92-.23-.27-.15-.49-.38-.65-.68-.16-.3-.24-.67-.24-1.13s.08-.83,.24-1.13c.16-.3,.38-.53,.65-.68,.27-.15,.57-.23,.9-.23,.39,0,.74,.09,1.04,.26,.3,.17,.54,.41,.71,.71,.17,.3,.26,.66,.26,1.06s-.09,.76-.26,1.07c-.18,.31-.41,.54-.71,.71-.3,.17-.65,.25-1.04,.25Zm-.06-.63c.26,0,.48-.06,.69-.17s.36-.28,.48-.49,.18-.46,.18-.74-.06-.53-.18-.74c-.12-.21-.28-.37-.48-.48s-.43-.17-.69-.17-.48,.06-.68,.17c-.2,.12-.36,.28-.48,.48-.12,.21-.18,.45-.18,.74s.06,.53,.18,.74,.28,.38,.48,.49c.2,.12,.43,.17,.68,.17Z"/><path class="e" d="M206.65,40.66c-.43,0-.8-.09-1.12-.26-.32-.17-.57-.42-.75-.72-.18-.31-.27-.66-.27-1.05s.09-.75,.26-1.05c.17-.31,.41-.54,.71-.72,.3-.17,.64-.26,1.03-.26s.73,.09,1.02,.26c.3,.17,.53,.41,.69,.72,.17,.31,.25,.67,.25,1.08,0,.03,0,.07,0,.1,0,.04,0,.08-.01,.11h-3.39v-.52h3.01l-.29,.18c0-.26-.05-.48-.16-.68-.11-.2-.26-.36-.45-.47-.19-.11-.42-.17-.67-.17s-.47,.06-.67,.17c-.2,.11-.35,.27-.46,.47-.11,.2-.17,.43-.17,.69v.12c0,.27,.06,.5,.18,.71s.29,.37,.51,.48c.22,.12,.47,.17,.76,.17,.24,0,.45-.04,.64-.12,.19-.08,.36-.2,.51-.36l.4,.47c-.18,.21-.4,.37-.67,.48-.27,.11-.57,.17-.9,.17Z"/><path class="e" d="M209.84,35.87c-.14,0-.26-.04-.35-.14-.09-.09-.14-.2-.14-.33s.05-.25,.14-.34c.09-.09,.21-.14,.35-.14s.26,.04,.35,.13c.09,.09,.14,.2,.14,.33s-.04,.25-.14,.34c-.09,.09-.21,.14-.35,.14Zm-.36,4.75v-3.98h.72v3.98h-.72Z"/><path class="e" d="M213.7,36.59c.33,0,.61,.06,.86,.19,.25,.12,.44,.32,.58,.57,.14,.26,.21,.58,.21,.97v2.29h-.72v-2.21c0-.39-.09-.68-.28-.87-.19-.2-.45-.29-.79-.29-.26,0-.48,.05-.67,.15-.19,.1-.34,.25-.44,.44s-.15,.44-.15,.73v2.05h-.72v-3.98h.69v1.07l-.11-.29c.13-.26,.33-.46,.6-.61,.27-.15,.59-.22,.95-.22Z"/><path class="e" d="M218.34,40.45c-.39,0-.73-.08-1.03-.24-.3-.16-.54-.39-.72-.68-.18-.29-.27-.62-.27-1.01s.09-.72,.27-1.01c.18-.29,.42-.51,.72-.67,.3-.16,.65-.24,1.03-.24,.34,0,.65,.07,.93,.21,.28,.14,.5,.35,.67,.63,.17,.29,.25,.65,.25,1.08s-.08,.79-.25,1.07c-.17,.29-.39,.5-.67,.64-.28,.14-.59,.21-.93,.21Zm.09,1.67c-.37,0-.72-.05-1.06-.15-.34-.1-.62-.25-.84-.44l.35-.56c.19,.16,.41,.29,.68,.38s.55,.14,.85,.14c.47,0,.82-.11,1.04-.33,.22-.22,.33-.56,.33-1.01v-.84l.08-.79-.04-.8v-1.09h.68v3.44c0,.7-.18,1.22-.53,1.55-.35,.33-.86,.5-1.54,.5Zm0-2.3c.27,0,.5-.06,.71-.17,.21-.11,.37-.26,.48-.46s.18-.42,.18-.68-.06-.48-.18-.68-.28-.35-.48-.45c-.21-.11-.44-.16-.71-.16s-.5,.05-.71,.16c-.21,.11-.37,.26-.49,.45s-.18,.42-.18,.68,.06,.48,.18,.68,.28,.35,.49,.46c.21,.11,.44,.17,.71,.17Z"/><path class="e" d="M221.58,41.72l.38-1.52,.1,.44c-.15,0-.27-.04-.36-.14-.1-.09-.15-.21-.15-.37s.05-.27,.15-.37c.1-.1,.22-.14,.36-.14s.26,.05,.35,.15,.14,.22,.14,.36c0,.05,0,.1-.01,.15,0,.05-.02,.1-.04,.17s-.04,.14-.08,.23l-.35,1.04h-.47Z"/><path class="e" d="M227.37,40.66c-.43,0-.8-.09-1.12-.26-.32-.17-.57-.42-.75-.72-.18-.31-.27-.66-.27-1.05s.09-.75,.26-1.05c.17-.31,.41-.54,.71-.72,.3-.17,.64-.26,1.03-.26s.73,.09,1.02,.26c.3,.17,.53,.41,.69,.72,.17,.31,.25,.67,.25,1.08,0,.03,0,.07,0,.1,0,.04,0,.08-.01,.11h-3.39v-.52h3.01l-.29,.18c0-.26-.05-.48-.16-.68-.11-.2-.26-.36-.45-.47-.19-.11-.42-.17-.67-.17s-.47,.06-.67,.17c-.2,.11-.35,.27-.46,.47-.11,.2-.17,.43-.17,.69v.12c0,.27,.06,.5,.18,.71s.29,.37,.51,.48c.22,.12,.47,.17,.76,.17,.24,0,.45-.04,.64-.12,.19-.08,.36-.2,.51-.36l.4,.47c-.18,.21-.4,.37-.67,.48-.27,.11-.57,.17-.9,.17Z"/><path class="e" d="M232.32,36.59c.33,0,.61,.06,.86,.19,.25,.12,.44,.32,.58,.57,.14,.26,.21,.58,.21,.97v2.29h-.72v-2.21c0-.39-.09-.68-.28-.87-.19-.2-.45-.29-.79-.29-.26,0-.48,.05-.67,.15-.19,.1-.34,.25-.44,.44s-.15,.44-.15,.73v2.05h-.72v-3.98h.69v1.07l-.11-.29c.13-.26,.33-.46,.6-.61,.27-.15,.59-.22,.95-.22Z"/><path class="e" d="M237.04,40.66c-.41,0-.77-.09-1.09-.26s-.57-.42-.75-.72c-.18-.31-.27-.66-.27-1.05s.09-.75,.27-1.05c.18-.31,.43-.54,.75-.72s.68-.26,1.09-.26c.36,0,.68,.07,.96,.21,.28,.14,.5,.35,.66,.63l-.55,.35c-.13-.2-.29-.34-.48-.43s-.39-.14-.61-.14c-.26,0-.49,.06-.7,.17-.21,.12-.37,.28-.49,.48-.12,.21-.18,.45-.18,.74s.06,.53,.18,.74c.12,.21,.28,.37,.49,.49,.21,.12,.44,.17,.7,.17,.21,0,.42-.05,.61-.14s.35-.24,.48-.43l.55,.34c-.16,.28-.38,.49-.66,.63-.28,.15-.6,.22-.96,.22Z"/><path class="e" d="M241.24,40.66c-.4,0-.76-.09-1.07-.26s-.56-.42-.74-.72-.27-.66-.27-1.05,.09-.75,.27-1.05c.18-.31,.43-.54,.74-.72s.67-.26,1.07-.26,.75,.09,1.06,.26c.31,.17,.56,.41,.74,.71,.18,.3,.27,.65,.27,1.06s-.09,.75-.27,1.05c-.18,.3-.42,.55-.74,.72-.31,.17-.67,.26-1.06,.26Zm0-.63c.25,0,.48-.06,.69-.17,.2-.12,.36-.28,.48-.49s.17-.46,.17-.74-.06-.53-.17-.74c-.12-.21-.27-.37-.48-.48-.2-.12-.43-.17-.69-.17s-.48,.06-.68,.17-.36,.28-.48,.48c-.12,.21-.18,.45-.18,.74s.06,.53,.18,.74,.28,.38,.48,.49,.43,.17,.68,.17Z"/><path class="e" d="M249.28,36.59c.32,0,.6,.06,.85,.19,.25,.12,.44,.32,.58,.57s.21,.58,.21,.97v2.29h-.72v-2.21c0-.39-.09-.68-.27-.87s-.43-.29-.76-.29c-.24,0-.45,.05-.63,.15-.18,.1-.32,.25-.42,.44s-.15,.44-.15,.73v2.05h-.72v-2.21c0-.39-.09-.68-.27-.87s-.43-.29-.76-.29c-.24,0-.44,.05-.62,.15-.18,.1-.32,.25-.42,.44s-.15,.44-.15,.73v2.05h-.72v-3.98h.69v1.06l-.11-.27c.12-.26,.32-.46,.58-.61,.26-.15,.56-.22,.91-.22,.38,0,.71,.09,.98,.28s.46,.47,.54,.85l-.29-.12c.12-.31,.33-.55,.63-.74,.3-.19,.65-.28,1.05-.28Z"/><path class="e" d="M251.99,38.86v-.62h2.02v.62h-2.02Z"/><path class="e" d="M21.62,53.34v-5.44h.69v1.07l-.04,.92,.08,.92v2.52h-.72Zm2.11-1.41c-.33,0-.63-.08-.9-.23-.27-.15-.49-.38-.65-.68-.16-.3-.24-.68-.24-1.13s.08-.83,.24-1.13,.37-.53,.65-.68,.58-.23,.92-.23c.39,0,.74,.08,1.04,.26,.3,.17,.54,.41,.71,.71,.17,.3,.26,.66,.26,1.06s-.09,.76-.26,1.07c-.18,.31-.41,.54-.71,.71-.3,.17-.65,.25-1.04,.25Zm-.06-.63c.26,0,.48-.06,.69-.17s.36-.28,.48-.49,.18-.46,.18-.74-.06-.53-.18-.74-.28-.37-.48-.48-.43-.17-.69-.17-.48,.06-.68,.17c-.2,.12-.36,.28-.48,.48s-.18,.46-.18,.74,.06,.53,.18,.74,.28,.38,.48,.49c.2,.12,.43,.17,.68,.17Z"/><path class="e" d="M27.87,51.92c-.3,0-.55-.05-.78-.15-.22-.1-.39-.24-.51-.42-.12-.18-.18-.38-.18-.6s.05-.41,.15-.59c.1-.17,.27-.32,.5-.42,.23-.11,.55-.16,.94-.16h1.26v.52h-1.23c-.36,0-.6,.06-.73,.18s-.19,.27-.19,.44c0,.19,.08,.35,.23,.47,.16,.12,.37,.18,.65,.18s.51-.06,.71-.18,.35-.29,.44-.53l.14,.5c-.1,.24-.26,.42-.5,.56-.24,.14-.54,.21-.91,.21Zm1.31-.04v-.84l-.04-.16v-1.43c0-.31-.09-.54-.27-.71s-.44-.25-.8-.25c-.24,0-.47,.04-.69,.12-.23,.08-.42,.18-.57,.31l-.3-.54c.21-.17,.45-.29,.74-.38,.29-.09,.59-.13,.91-.13,.55,0,.97,.13,1.26,.4s.44,.67,.44,1.22v2.4h-.68Z"/><path class="e" d="M32.34,51.92c-.33,0-.64-.04-.94-.13-.3-.09-.53-.2-.7-.33l.3-.57c.17,.12,.38,.21,.63,.29,.25,.08,.51,.12,.77,.12,.34,0,.58-.05,.72-.14,.15-.1,.22-.23,.22-.4,0-.12-.04-.22-.14-.29s-.21-.12-.36-.16c-.15-.03-.31-.07-.49-.09-.18-.03-.36-.06-.54-.1-.18-.04-.35-.1-.5-.18-.15-.08-.27-.19-.36-.32-.09-.14-.14-.32-.14-.55s.07-.45,.2-.63,.33-.32,.57-.42c.25-.1,.54-.15,.88-.15,.26,0,.52,.03,.79,.09s.49,.15,.66,.27l-.31,.57c-.18-.12-.37-.2-.56-.25s-.39-.07-.59-.07c-.32,0-.55,.05-.71,.15-.16,.1-.23,.23-.23,.39,0,.14,.05,.24,.14,.31,.09,.07,.21,.13,.36,.17,.15,.04,.31,.07,.49,.1,.18,.03,.36,.06,.54,.11,.18,.04,.34,.1,.49,.18,.15,.08,.27,.18,.36,.32,.09,.13,.14,.32,.14,.54,0,.24-.07,.45-.21,.62-.14,.18-.34,.31-.59,.41s-.56,.15-.92,.15Z"/><path class="e" d="M36.1,51.92c-.33,0-.64-.04-.94-.13-.3-.09-.53-.2-.7-.33l.3-.57c.17,.12,.38,.21,.63,.29,.25,.08,.51,.12,.77,.12,.34,0,.58-.05,.72-.14,.15-.1,.22-.23,.22-.4,0-.12-.04-.22-.14-.29s-.21-.12-.36-.16c-.15-.03-.31-.07-.49-.09-.18-.03-.36-.06-.54-.1-.18-.04-.35-.1-.5-.18-.15-.08-.27-.19-.36-.32-.09-.14-.14-.32-.14-.55s.07-.45,.2-.63,.33-.32,.57-.42c.25-.1,.54-.15,.88-.15,.26,0,.52,.03,.79,.09s.49,.15,.66,.27l-.31,.57c-.18-.12-.37-.2-.56-.25s-.39-.07-.59-.07c-.32,0-.55,.05-.71,.15-.16,.1-.23,.23-.23,.39,0,.14,.05,.24,.14,.31,.09,.07,.21,.13,.36,.17,.15,.04,.31,.07,.49,.1,.18,.03,.36,.06,.54,.11,.18,.04,.34,.1,.49,.18,.15,.08,.27,.18,.36,.32,.09,.13,.14,.32,.14,.54,0,.24-.07,.45-.21,.62-.14,.18-.34,.31-.59,.41s-.56,.15-.92,.15Z"/><path class="e" d="M39.08,47.13c-.14,0-.26-.04-.35-.13-.09-.09-.14-.2-.14-.33s.05-.25,.14-.34,.21-.13,.35-.13,.26,.04,.35,.13c.09,.09,.14,.2,.14,.33s-.04,.25-.14,.34c-.09,.09-.21,.14-.35,.14Zm-.36,4.75v-3.98h.72v3.98h-.72Z"/><path class="e" d="M42.95,47.86c.33,0,.61,.06,.86,.19,.25,.13,.44,.32,.58,.57,.14,.25,.21,.58,.21,.97v2.29h-.72v-2.21c0-.39-.09-.68-.28-.87-.19-.2-.45-.29-.79-.29-.26,0-.48,.05-.67,.15-.19,.1-.34,.25-.44,.44s-.15,.44-.15,.73v2.05h-.72v-3.98h.69v1.07l-.11-.29c.13-.26,.33-.46,.6-.61s.59-.22,.95-.22Z"/><path class="e" d="M47.59,51.71c-.39,0-.73-.08-1.03-.24-.3-.16-.54-.39-.72-.68-.18-.29-.27-.63-.27-1.01s.09-.72,.27-1.01,.42-.51,.72-.67c.3-.16,.65-.24,1.03-.24,.34,0,.65,.07,.93,.21,.28,.14,.5,.35,.67,.63,.17,.29,.25,.65,.25,1.08s-.08,.79-.25,1.07c-.17,.29-.39,.5-.67,.64-.28,.14-.59,.21-.93,.21Zm.09,1.67c-.37,0-.72-.05-1.06-.15-.34-.1-.62-.25-.84-.44l.35-.56c.19,.16,.41,.29,.68,.38s.55,.14,.85,.14c.47,0,.82-.11,1.04-.33,.22-.22,.33-.56,.33-1.01v-.84l.08-.79-.04-.8v-1.09h.68v3.44c0,.7-.18,1.22-.53,1.55-.35,.33-.86,.5-1.54,.5Zm0-2.3c.27,0,.5-.06,.71-.17,.21-.11,.37-.26,.48-.46s.18-.42,.18-.68-.06-.48-.18-.68-.28-.35-.48-.45c-.21-.11-.44-.16-.71-.16s-.5,.05-.71,.16c-.21,.11-.37,.26-.49,.45s-.18,.42-.18,.68,.06,.48,.18,.68,.28,.35,.49,.46c.21,.11,.44,.17,.71,.17Z"/><path class="e" d="M54.84,51.92c-.4,0-.76-.09-1.07-.26s-.56-.42-.74-.72c-.18-.31-.27-.66-.27-1.05s.09-.75,.27-1.05,.43-.54,.74-.72c.31-.17,.67-.26,1.07-.26s.75,.09,1.06,.26c.31,.17,.56,.41,.74,.71s.27,.66,.27,1.06-.09,.75-.27,1.05c-.18,.3-.42,.55-.74,.72s-.67,.26-1.06,.26Zm0-.63c.26,0,.48-.06,.69-.17,.2-.12,.36-.28,.48-.49s.17-.46,.17-.74-.06-.53-.17-.74-.27-.37-.48-.48c-.2-.12-.43-.17-.69-.17s-.48,.06-.68,.17-.36,.28-.48,.48c-.12,.21-.18,.46-.18,.74s.06,.53,.18,.74c.12,.21,.28,.38,.48,.49s.43,.17,.68,.17Z"/><path class="e" d="M59.58,51.92c-.34,0-.64-.06-.9-.19s-.46-.32-.6-.58c-.14-.26-.21-.58-.21-.97v-2.29h.72v2.21c0,.39,.09,.68,.28,.88,.19,.2,.45,.29,.79,.29,.25,0,.47-.05,.65-.15,.19-.1,.33-.25,.43-.45,.1-.2,.15-.44,.15-.72v-2.06h.72v3.98h-.68v-1.07l.11,.29c-.13,.27-.33,.47-.59,.62s-.55,.22-.88,.22Z"/><path class="e" d="M62.99,51.88v-3.98h.69v1.08l-.07-.27c.11-.28,.3-.49,.56-.63s.58-.22,.96-.22v.7s-.06,0-.09,0h-.08c-.39,0-.69,.12-.92,.35-.23,.23-.34,.56-.34,1v1.98h-.72Z"/><path class="e" d="M69.87,51.92c-.43,0-.8-.09-1.12-.26-.32-.17-.57-.42-.75-.72-.18-.31-.27-.66-.27-1.05s.09-.75,.26-1.05,.41-.54,.71-.72c.3-.17,.64-.26,1.03-.26s.73,.08,1.02,.26c.3,.17,.53,.41,.69,.72,.17,.31,.25,.67,.25,1.08,0,.03,0,.07,0,.11,0,.04,0,.08-.01,.11h-3.39v-.52h3.01l-.29,.18c0-.26-.05-.48-.16-.68-.11-.2-.26-.36-.45-.47-.19-.11-.42-.17-.67-.17s-.47,.06-.67,.17c-.2,.11-.35,.27-.46,.47-.11,.2-.17,.43-.17,.69v.12c0,.27,.06,.5,.18,.71s.29,.37,.51,.48c.22,.12,.47,.17,.76,.17,.24,0,.45-.04,.64-.12,.19-.08,.36-.2,.51-.36l.4,.47c-.18,.21-.4,.37-.67,.48-.27,.11-.57,.17-.9,.17Z"/><path class="e" d="M77.67,47.86c.32,0,.6,.06,.85,.19,.25,.13,.44,.32,.57,.57,.14,.25,.21,.58,.21,.97v2.29h-.72v-2.21c0-.39-.09-.68-.27-.87-.18-.2-.43-.29-.76-.29-.24,0-.45,.05-.63,.15-.18,.1-.32,.25-.42,.44s-.15,.44-.15,.73v2.05h-.72v-2.21c0-.39-.09-.68-.27-.87-.18-.2-.43-.29-.76-.29-.24,0-.44,.05-.62,.15-.18,.1-.32,.25-.42,.44s-.15,.44-.15,.73v2.05h-.72v-3.98h.69v1.06l-.11-.27c.13-.26,.32-.46,.58-.61,.26-.15,.56-.22,.91-.22,.38,0,.71,.09,.98,.28,.28,.19,.46,.47,.54,.85l-.29-.12c.12-.3,.33-.55,.63-.74,.3-.19,.65-.28,1.05-.28Z"/><path class="e" d="M82.33,51.92c-.4,0-.76-.09-1.07-.26s-.56-.42-.74-.72c-.18-.31-.27-.66-.27-1.05s.09-.75,.27-1.05,.43-.54,.74-.72c.31-.17,.67-.26,1.07-.26s.75,.09,1.06,.26c.31,.17,.56,.41,.74,.71s.27,.66,.27,1.06-.09,.75-.27,1.05c-.18,.3-.42,.55-.74,.72s-.67,.26-1.06,.26Zm0-.63c.26,0,.48-.06,.69-.17,.2-.12,.36-.28,.48-.49s.17-.46,.17-.74-.06-.53-.17-.74-.27-.37-.48-.48c-.2-.12-.43-.17-.69-.17s-.48,.06-.68,.17-.36,.28-.48,.48c-.12,.21-.18,.46-.18,.74s.06,.53,.18,.74c.12,.21,.28,.38,.48,.49s.43,.17,.68,.17Z"/><path class="e" d="M84.83,48.49v-.59h2.54v.59h-2.54Zm1.94,3.43c-.4,0-.71-.11-.93-.32-.22-.21-.33-.52-.33-.92v-3.65h.72v3.62c0,.21,.05,.38,.16,.5,.11,.12,.26,.17,.46,.17,.23,0,.41-.06,.56-.19l.23,.52c-.11,.09-.24,.17-.39,.21s-.31,.07-.48,.07Z"/><path class="e" d="M88.87,47.13c-.14,0-.26-.04-.35-.13-.09-.09-.14-.2-.14-.33s.05-.25,.14-.34,.21-.13,.35-.13,.26,.04,.35,.13c.09,.09,.14,.2,.14,.33s-.04,.25-.14,.34c-.09,.09-.21,.14-.35,.14Zm-.36,4.75v-3.98h.72v3.98h-.72Z"/><path class="e" d="M92.31,51.92c-.4,0-.76-.09-1.07-.26s-.56-.42-.74-.72c-.18-.31-.27-.66-.27-1.05s.09-.75,.27-1.05,.43-.54,.74-.72c.31-.17,.67-.26,1.07-.26s.75,.09,1.06,.26c.31,.17,.56,.41,.74,.71s.27,.66,.27,1.06-.09,.75-.27,1.05c-.18,.3-.42,.55-.74,.72s-.67,.26-1.06,.26Zm0-.63c.26,0,.48-.06,.69-.17,.2-.12,.36-.28,.48-.49s.17-.46,.17-.74-.06-.53-.17-.74-.27-.37-.48-.48c-.2-.12-.43-.17-.69-.17s-.48,.06-.68,.17-.36,.28-.48,.48c-.12,.21-.18,.46-.18,.74s.06,.53,.18,.74c.12,.21,.28,.38,.48,.49s.43,.17,.68,.17Z"/><path class="e" d="M97.5,47.86c.33,0,.61,.06,.86,.19,.25,.13,.44,.32,.58,.57,.14,.25,.21,.58,.21,.97v2.29h-.72v-2.21c0-.39-.09-.68-.28-.87-.19-.2-.45-.29-.79-.29-.26,0-.48,.05-.67,.15-.19,.1-.34,.25-.44,.44s-.15,.44-.15,.73v2.05h-.72v-3.98h.69v1.07l-.11-.29c.13-.26,.33-.46,.6-.61s.59-.22,.95-.22Z"/><path class="e" d="M101.65,51.92c-.3,0-.55-.05-.78-.15-.22-.1-.39-.24-.51-.42-.12-.18-.18-.38-.18-.6s.05-.41,.15-.59c.1-.17,.27-.32,.5-.42,.23-.11,.55-.16,.94-.16h1.26v.52h-1.23c-.36,0-.6,.06-.73,.18s-.19,.27-.19,.44c0,.19,.08,.35,.23,.47,.16,.12,.37,.18,.65,.18s.51-.06,.71-.18,.35-.29,.44-.53l.14,.5c-.1,.24-.26,.42-.5,.56-.24,.14-.54,.21-.91,.21Zm1.31-.04v-.84l-.04-.16v-1.43c0-.31-.09-.54-.27-.71s-.44-.25-.8-.25c-.24,0-.47,.04-.69,.12-.23,.08-.42,.18-.57,.31l-.3-.54c.21-.17,.45-.29,.74-.38,.29-.09,.59-.13,.91-.13,.55,0,.97,.13,1.26,.4s.44,.67,.44,1.22v2.4h-.68Z"/><path class="e" d="M104.98,51.88v-5.57h.72v5.57h-.72Z"/><path class="e" d="M106.79,52.99l.38-1.52,.1,.44c-.15,0-.27-.04-.36-.14-.1-.09-.15-.21-.15-.37s.05-.27,.15-.37c.1-.1,.22-.14,.36-.14s.26,.05,.35,.15,.14,.22,.14,.36c0,.05,0,.1-.01,.15,0,.05-.02,.1-.04,.17s-.04,.14-.08,.23l-.35,1.04h-.47Z"/><path class="e" d="M110.8,53.34v-5.44h.69v1.07l-.04,.92,.08,.92v2.52h-.72Zm2.11-1.41c-.33,0-.63-.08-.9-.23-.27-.15-.49-.38-.65-.68-.16-.3-.24-.68-.24-1.13s.08-.83,.24-1.13,.37-.53,.65-.68,.58-.23,.92-.23c.39,0,.74,.08,1.04,.26,.3,.17,.54,.41,.71,.71,.17,.3,.26,.66,.26,1.06s-.09,.76-.26,1.07c-.18,.31-.41,.54-.71,.71-.3,.17-.65,.25-1.04,.25Zm-.06-.63c.26,0,.48-.06,.69-.17s.36-.28,.48-.49,.18-.46,.18-.74-.06-.53-.18-.74-.28-.37-.48-.48-.43-.17-.69-.17-.48,.06-.68,.17c-.2,.12-.36,.28-.48,.48s-.18,.46-.18,.74,.06,.53,.18,.74,.28,.38,.48,.49c.2,.12,.43,.17,.68,.17Z"/><path class="e" d="M117.07,51.92c-.33,0-.64-.04-.94-.13-.3-.09-.53-.2-.7-.33l.3-.57c.17,.12,.38,.21,.63,.29,.25,.08,.51,.12,.77,.12,.34,0,.58-.05,.72-.14,.15-.1,.22-.23,.22-.4,0-.12-.04-.22-.14-.29s-.21-.12-.36-.16c-.15-.03-.31-.07-.49-.09-.18-.03-.36-.06-.54-.1-.18-.04-.35-.1-.5-.18-.15-.08-.27-.19-.36-.32-.09-.14-.14-.32-.14-.55s.07-.45,.2-.63,.33-.32,.57-.42c.25-.1,.54-.15,.88-.15,.26,0,.52,.03,.79,.09s.49,.15,.66,.27l-.31,.57c-.18-.12-.37-.2-.56-.25s-.39-.07-.59-.07c-.32,0-.55,.05-.71,.15-.16,.1-.23,.23-.23,.39,0,.14,.05,.24,.14,.31,.09,.07,.21,.13,.36,.17,.15,.04,.31,.07,.49,.1,.18,.03,.36,.06,.54,.11,.18,.04,.34,.1,.49,.18,.15,.08,.27,.18,.36,.32,.09,.13,.14,.32,.14,.54,0,.24-.07,.45-.21,.62-.14,.18-.34,.31-.59,.41s-.56,.15-.92,.15Z"/><path class="e" d="M119.79,53.38c-.19,0-.38-.03-.56-.09-.18-.06-.34-.15-.47-.27l.31-.54c.1,.09,.21,.17,.33,.22,.12,.05,.25,.08,.38,.08,.17,0,.32-.05,.44-.14s.22-.25,.32-.48l.25-.55,.08-.09,1.56-3.61h.71l-1.93,4.38c-.12,.28-.24,.5-.39,.66-.14,.16-.3,.27-.47,.34-.17,.07-.36,.1-.56,.1Zm.95-1.37l-1.82-4.11h.75l1.55,3.54-.48,.56Z"/><path class="e" d="M125.43,51.92c-.41,0-.77-.09-1.09-.26-.32-.17-.57-.42-.75-.72-.18-.31-.27-.66-.27-1.05s.09-.75,.27-1.05,.43-.54,.75-.72c.32-.17,.68-.26,1.09-.26,.36,0,.68,.07,.97,.21,.28,.14,.5,.35,.66,.63l-.55,.35c-.13-.2-.29-.34-.48-.43-.19-.09-.39-.14-.6-.14-.26,0-.49,.06-.7,.17-.21,.12-.37,.28-.49,.48-.12,.21-.18,.46-.18,.74s.06,.53,.18,.74c.12,.21,.28,.37,.49,.49,.21,.12,.44,.17,.7,.17,.22,0,.42-.05,.6-.14,.19-.09,.35-.24,.48-.43l.55,.34c-.16,.28-.37,.49-.66,.63-.28,.15-.6,.22-.97,.22Z"/><path class="e" d="M130.06,47.86c.33,0,.61,.06,.86,.19,.25,.13,.44,.32,.58,.57,.14,.25,.21,.58,.21,.97v2.29h-.72v-2.21c0-.39-.09-.68-.28-.87-.19-.2-.45-.29-.79-.29-.26,0-.48,.05-.67,.15-.19,.1-.34,.25-.44,.44s-.15,.44-.15,.73v2.05h-.72v-5.57h.72v2.67l-.14-.29c.13-.26,.33-.46,.6-.61s.59-.22,.95-.22Z"/><path class="e" d="M134.76,51.92c-.4,0-.76-.09-1.07-.26s-.56-.42-.74-.72c-.18-.31-.27-.66-.27-1.05s.09-.75,.27-1.05,.43-.54,.74-.72c.31-.17,.67-.26,1.07-.26s.75,.09,1.06,.26c.31,.17,.56,.41,.74,.71s.27,.66,.27,1.06-.09,.75-.27,1.05c-.18,.3-.42,.55-.74,.72s-.67,.26-1.06,.26Zm0-.63c.26,0,.48-.06,.69-.17,.2-.12,.36-.28,.48-.49s.17-.46,.17-.74-.06-.53-.17-.74-.27-.37-.48-.48c-.2-.12-.43-.17-.69-.17s-.48,.06-.68,.17-.36,.28-.48,.48c-.12,.21-.18,.46-.18,.74s.06,.53,.18,.74c.12,.21,.28,.38,.48,.49s.43,.17,.68,.17Z"/><path class="e" d="M137.82,51.88v-5.57h.72v5.57h-.72Z"/><path class="e" d="M141.62,51.92c-.4,0-.76-.09-1.07-.26s-.56-.42-.74-.72c-.18-.31-.27-.66-.27-1.05s.09-.75,.27-1.05,.43-.54,.74-.72c.31-.17,.67-.26,1.07-.26s.75,.09,1.06,.26c.31,.17,.56,.41,.74,.71s.27,.66,.27,1.06-.09,.75-.27,1.05c-.18,.3-.42,.55-.74,.72s-.67,.26-1.06,.26Zm0-.63c.26,0,.48-.06,.69-.17,.2-.12,.36-.28,.48-.49s.17-.46,.17-.74-.06-.53-.17-.74-.27-.37-.48-.48c-.2-.12-.43-.17-.69-.17s-.48,.06-.68,.17-.36,.28-.48,.48c-.12,.21-.18,.46-.18,.74s.06,.53,.18,.74c.12,.21,.28,.38,.48,.49s.43,.17,.68,.17Z"/><path class="e" d="M146.34,51.71c-.39,0-.73-.08-1.03-.24-.3-.16-.54-.39-.72-.68-.18-.29-.27-.63-.27-1.01s.09-.72,.27-1.01,.42-.51,.72-.67c.3-.16,.65-.24,1.03-.24,.34,0,.65,.07,.93,.21,.28,.14,.5,.35,.67,.63,.17,.29,.25,.65,.25,1.08s-.08,.79-.25,1.07c-.17,.29-.39,.5-.67,.64-.28,.14-.59,.21-.93,.21Zm.09,1.67c-.37,0-.72-.05-1.06-.15-.34-.1-.62-.25-.84-.44l.35-.56c.19,.16,.41,.29,.68,.38s.55,.14,.85,.14c.47,0,.82-.11,1.04-.33,.22-.22,.33-.56,.33-1.01v-.84l.08-.79-.04-.8v-1.09h.68v3.44c0,.7-.18,1.22-.53,1.55-.35,.33-.86,.5-1.54,.5Zm0-2.3c.27,0,.5-.06,.71-.17,.21-.11,.37-.26,.48-.46s.18-.42,.18-.68-.06-.48-.18-.68-.28-.35-.48-.45c-.21-.11-.44-.16-.71-.16s-.5,.05-.71,.16c-.21,.11-.37,.26-.49,.45s-.18,.42-.18,.68,.06,.48,.18,.68,.28,.35,.49,.46c.21,.11,.44,.17,.71,.17Z"/><path class="e" d="M150.23,47.13c-.14,0-.26-.04-.35-.13-.09-.09-.14-.2-.14-.33s.05-.25,.14-.34,.21-.13,.35-.13,.26,.04,.35,.13c.09,.09,.14,.2,.14,.33s-.04,.25-.14,.34c-.09,.09-.21,.14-.35,.14Zm-.36,4.75v-3.98h.72v3.98h-.72Z"/><path class="e" d="M153.7,51.92c-.41,0-.77-.09-1.09-.26-.32-.17-.57-.42-.75-.72-.18-.31-.27-.66-.27-1.05s.09-.75,.27-1.05,.43-.54,.75-.72c.32-.17,.68-.26,1.09-.26,.36,0,.68,.07,.97,.21,.28,.14,.5,.35,.66,.63l-.55,.35c-.13-.2-.29-.34-.48-.43-.19-.09-.39-.14-.6-.14-.26,0-.49,.06-.7,.17-.21,.12-.37,.28-.49,.48-.12,.21-.18,.46-.18,.74s.06,.53,.18,.74c.12,.21,.28,.37,.49,.49,.21,.12,.44,.17,.7,.17,.22,0,.42-.05,.6-.14,.19-.09,.35-.24,.48-.43l.55,.34c-.16,.28-.37,.49-.66,.63-.28,.15-.6,.22-.97,.22Z"/><path class="e" d="M157.42,51.92c-.3,0-.55-.05-.78-.15-.22-.1-.39-.24-.51-.42-.12-.18-.18-.38-.18-.6s.05-.41,.15-.59c.1-.17,.27-.32,.5-.42,.23-.11,.55-.16,.94-.16h1.26v.52h-1.23c-.36,0-.6,.06-.73,.18s-.19,.27-.19,.44c0,.19,.08,.35,.23,.47,.16,.12,.37,.18,.65,.18s.51-.06,.71-.18,.35-.29,.44-.53l.14,.5c-.1,.24-.26,.42-.5,.56-.24,.14-.54,.21-.91,.21Zm1.31-.04v-.84l-.04-.16v-1.43c0-.31-.09-.54-.27-.71s-.44-.25-.8-.25c-.24,0-.47,.04-.69,.12-.23,.08-.42,.18-.57,.31l-.3-.54c.21-.17,.45-.29,.74-.38,.29-.09,.59-.13,.91-.13,.55,0,.97,.13,1.26,.4s.44,.67,.44,1.22v2.4h-.68Z"/><path class="e" d="M160.74,51.88v-5.57h.72v5.57h-.72Z"/><path class="e" d="M162.55,52.99l.38-1.52,.1,.44c-.15,0-.27-.04-.36-.14-.1-.09-.15-.21-.15-.37s.05-.27,.15-.37c.1-.1,.22-.14,.36-.14s.26,.05,.35,.15,.14,.22,.14,.36c0,.05,0,.1-.01,.15,0,.05-.02,.1-.04,.17s-.04,.14-.08,.23l-.35,1.04h-.47Z"/><path class="e" d="M167.73,51.92c-.3,0-.55-.05-.78-.15-.22-.1-.39-.24-.51-.42-.12-.18-.18-.38-.18-.6s.05-.41,.15-.59c.1-.17,.27-.32,.5-.42,.23-.11,.55-.16,.94-.16h1.26v.52h-1.23c-.36,0-.6,.06-.73,.18s-.19,.27-.19,.44c0,.19,.08,.35,.23,.47,.16,.12,.37,.18,.65,.18s.51-.06,.71-.18,.35-.29,.44-.53l.14,.5c-.1,.24-.26,.42-.5,.56-.24,.14-.54,.21-.91,.21Zm1.31-.04v-.84l-.04-.16v-1.43c0-.31-.09-.54-.27-.71s-.44-.25-.8-.25c-.24,0-.47,.04-.69,.12-.23,.08-.42,.18-.57,.31l-.3-.54c.21-.17,.45-.29,.74-.38,.29-.09,.59-.13,.91-.13,.55,0,.97,.13,1.26,.4s.44,.67,.44,1.22v2.4h-.68Z"/><path class="e" d="M173.18,47.86c.33,0,.61,.06,.86,.19,.25,.13,.44,.32,.58,.57,.14,.25,.21,.58,.21,.97v2.29h-.72v-2.21c0-.39-.09-.68-.28-.87-.19-.2-.45-.29-.79-.29-.26,0-.48,.05-.67,.15-.19,.1-.34,.25-.44,.44s-.15,.44-.15,.73v2.05h-.72v-3.98h.69v1.07l-.11-.29c.13-.26,.33-.46,.6-.61s.59-.22,.95-.22Z"/><path class="e" d="M177.82,51.92c-.39,0-.73-.08-1.03-.25-.3-.17-.54-.41-.72-.71s-.26-.66-.26-1.07,.09-.76,.26-1.06c.18-.3,.41-.54,.72-.71,.3-.17,.65-.26,1.03-.26,.34,0,.64,.08,.91,.23s.49,.38,.65,.68c.16,.3,.24,.68,.24,1.13s-.08,.83-.24,1.13c-.16,.3-.37,.53-.64,.68-.27,.15-.58,.23-.92,.23Zm.06-.63c.25,0,.48-.06,.68-.17s.36-.28,.48-.49,.18-.46,.18-.74-.06-.53-.18-.74-.28-.37-.48-.48-.43-.17-.68-.17-.48,.06-.68,.17-.36,.28-.48,.48c-.12,.21-.18,.46-.18,.74s.06,.53,.18,.74c.12,.21,.28,.38,.48,.49s.43,.17,.68,.17Zm1.36,.59v-1.07l.04-.92-.08-.92v-2.65h.72v5.57h-.69Z"/><path class="e" d="M184.46,51.92c-.33,0-.64-.04-.94-.13-.3-.09-.53-.2-.7-.33l.3-.57c.17,.12,.38,.21,.63,.29,.25,.08,.51,.12,.77,.12,.34,0,.58-.05,.72-.14,.15-.1,.22-.23,.22-.4,0-.12-.04-.22-.14-.29s-.21-.12-.36-.16c-.15-.03-.31-.07-.49-.09-.18-.03-.36-.06-.54-.1-.18-.04-.35-.1-.5-.18-.15-.08-.27-.19-.36-.32-.09-.14-.14-.32-.14-.55s.07-.45,.2-.63,.33-.32,.57-.42c.25-.1,.54-.15,.88-.15,.26,0,.52,.03,.79,.09s.49,.15,.66,.27l-.31,.57c-.18-.12-.37-.2-.56-.25s-.39-.07-.59-.07c-.32,0-.55,.05-.71,.15-.16,.1-.23,.23-.23,.39,0,.14,.05,.24,.14,.31,.09,.07,.21,.13,.36,.17,.15,.04,.31,.07,.49,.1,.18,.03,.36,.06,.54,.11,.18,.04,.34,.1,.49,.18,.15,.08,.27,.18,.36,.32,.09,.13,.14,.32,.14,.54,0,.24-.07,.45-.21,.62-.14,.18-.34,.31-.59,.41s-.56,.15-.92,.15Z"/><path class="e" d="M188.78,51.92c-.4,0-.76-.09-1.07-.26s-.56-.42-.74-.72c-.18-.31-.27-.66-.27-1.05s.09-.75,.27-1.05,.43-.54,.74-.72c.31-.17,.67-.26,1.07-.26s.75,.09,1.06,.26c.31,.17,.56,.41,.74,.71s.27,.66,.27,1.06-.09,.75-.27,1.05c-.18,.3-.42,.55-.74,.72s-.67,.26-1.06,.26Zm0-.63c.26,0,.48-.06,.69-.17,.2-.12,.36-.28,.48-.49s.17-.46,.17-.74-.06-.53-.17-.74-.27-.37-.48-.48c-.2-.12-.43-.17-.69-.17s-.48,.06-.68,.17-.36,.28-.48,.48c-.12,.21-.18,.46-.18,.74s.06,.53,.18,.74c.12,.21,.28,.38,.48,.49s.43,.17,.68,.17Z"/><path class="e" d="M193.58,51.92c-.41,0-.77-.09-1.09-.26-.32-.17-.57-.42-.75-.72-.18-.31-.27-.66-.27-1.05s.09-.75,.27-1.05,.43-.54,.75-.72c.32-.17,.68-.26,1.09-.26,.36,0,.68,.07,.97,.21,.28,.14,.5,.35,.66,.63l-.55,.35c-.13-.2-.29-.34-.48-.43-.19-.09-.39-.14-.6-.14-.26,0-.49,.06-.7,.17-.21,.12-.37,.28-.49,.48-.12,.21-.18,.46-.18,.74s.06,.53,.18,.74c.12,.21,.28,.37,.49,.49,.21,.12,.44,.17,.7,.17,.22,0,.42-.05,.6-.14,.19-.09,.35-.24,.48-.43l.55,.34c-.16,.28-.37,.49-.66,.63-.28,.15-.6,.22-.97,.22Z"/><path class="e" d="M196.45,47.13c-.14,0-.26-.04-.35-.13-.09-.09-.14-.2-.14-.33s.05-.25,.14-.34,.21-.13,.35-.13,.26,.04,.35,.13c.09,.09,.14,.2,.14,.33s-.04,.25-.14,.34c-.09,.09-.21,.14-.35,.14Zm-.36,4.75v-3.98h.72v3.98h-.72Z"/><path class="e" d="M199.34,51.92c-.3,0-.55-.05-.78-.15-.22-.1-.39-.24-.51-.42-.12-.18-.18-.38-.18-.6s.05-.41,.15-.59c.1-.17,.27-.32,.5-.42,.23-.11,.55-.16,.94-.16h1.26v.52h-1.23c-.36,0-.6,.06-.73,.18s-.19,.27-.19,.44c0,.19,.08,.35,.23,.47,.16,.12,.37,.18,.65,.18s.51-.06,.71-.18,.35-.29,.44-.53l.14,.5c-.1,.24-.26,.42-.5,.56-.24,.14-.54,.21-.91,.21Zm1.31-.04v-.84l-.04-.16v-1.43c0-.31-.09-.54-.27-.71s-.44-.25-.8-.25c-.24,0-.47,.04-.69,.12-.23,.08-.42,.18-.57,.31l-.3-.54c.21-.17,.45-.29,.74-.38,.29-.09,.59-.13,.91-.13,.55,0,.97,.13,1.26,.4s.44,.67,.44,1.22v2.4h-.68Z"/><path class="e" d="M202.67,51.88v-5.57h.72v5.57h-.72Z"/><path class="e" d="M207.63,51.88l-1.48-3.98h.68l1.31,3.6h-.32l1.37-3.6h.61l1.34,3.6h-.32l1.34-3.6h.65l-1.49,3.98h-.69l-1.25-3.29h.21l-1.27,3.29h-.69Z"/><path class="e" d="M215.2,51.92c-.43,0-.8-.09-1.12-.26-.32-.17-.57-.42-.75-.72-.18-.31-.27-.66-.27-1.05s.09-.75,.26-1.05,.41-.54,.71-.72c.3-.17,.64-.26,1.03-.26s.73,.08,1.02,.26c.3,.17,.53,.41,.69,.72,.17,.31,.25,.67,.25,1.08,0,.03,0,.07,0,.11,0,.04,0,.08-.01,.11h-3.39v-.52h3.01l-.29,.18c0-.26-.05-.48-.16-.68-.11-.2-.26-.36-.45-.47-.19-.11-.42-.17-.67-.17s-.47,.06-.67,.17c-.2,.11-.35,.27-.46,.47-.11,.2-.17,.43-.17,.69v.12c0,.27,.06,.5,.18,.71s.29,.37,.51,.48c.22,.12,.47,.17,.76,.17,.24,0,.45-.04,.64-.12,.19-.08,.36-.2,.51-.36l.4,.47c-.18,.21-.4,.37-.67,.48-.27,.11-.57,.17-.9,.17Z"/><path class="e" d="M218.02,51.88v-5.57h.72v5.57h-.72Z"/><path class="e" d="M220.12,51.88v-5.57h.72v5.57h-.72Z"/><path class="e" d="M221.96,50.13v-.62h2.02v.62h-2.02Z"/><path class="e" d="M225.09,51.88v-5.57h.72v2.65l-.08,.92,.04,.92v1.07h-.69Zm2.11,.04c-.34,0-.65-.08-.92-.23-.27-.15-.49-.38-.65-.68-.16-.3-.24-.68-.24-1.13s.08-.83,.24-1.13c.16-.3,.38-.53,.65-.68s.57-.23,.9-.23c.39,0,.74,.08,1.04,.26,.3,.17,.54,.41,.71,.71,.17,.3,.26,.66,.26,1.06s-.09,.76-.26,1.07c-.18,.31-.41,.54-.71,.71-.3,.17-.65,.25-1.04,.25Zm-.06-.63c.26,0,.48-.06,.69-.17s.36-.28,.48-.49,.18-.46,.18-.74-.06-.53-.18-.74-.28-.37-.48-.48-.43-.17-.69-.17-.48,.06-.68,.17c-.2,.12-.36,.28-.48,.48s-.18,.46-.18,.74,.06,.53,.18,.74,.28,.38,.48,.49c.2,.12,.43,.17,.68,.17Z"/><path class="e" d="M231.99,51.92c-.43,0-.8-.09-1.12-.26-.32-.17-.57-.42-.75-.72-.18-.31-.27-.66-.27-1.05s.09-.75,.26-1.05,.41-.54,.71-.72c.3-.17,.64-.26,1.03-.26s.73,.08,1.02,.26c.3,.17,.53,.41,.69,.72,.17,.31,.25,.67,.25,1.08,0,.03,0,.07,0,.11,0,.04,0,.08-.01,.11h-3.39v-.52h3.01l-.29,.18c0-.26-.05-.48-.16-.68-.11-.2-.26-.36-.45-.47-.19-.11-.42-.17-.67-.17s-.47,.06-.67,.17c-.2,.11-.35,.27-.46,.47-.11,.2-.17,.43-.17,.69v.12c0,.27,.06,.5,.18,.71s.29,.37,.51,.48c.22,.12,.47,.17,.76,.17,.24,0,.45-.04,.64-.12,.19-.08,.36-.2,.51-.36l.4,.47c-.18,.21-.4,.37-.67,.48-.27,.11-.57,.17-.9,.17Z"/><path class="e" d="M235.17,47.13c-.14,0-.26-.04-.35-.13-.09-.09-.14-.2-.14-.33s.05-.25,.14-.34,.21-.13,.35-.13,.26,.04,.35,.13c.09,.09,.14,.2,.14,.33s-.04,.25-.14,.34c-.09,.09-.21,.14-.35,.14Zm-.36,4.75v-3.98h.72v3.98h-.72Z"/><path class="e" d="M239.03,47.86c.33,0,.61,.06,.86,.19,.25,.13,.44,.32,.58,.57,.14,.25,.21,.58,.21,.97v2.29h-.72v-2.21c0-.39-.09-.68-.28-.87-.19-.2-.45-.29-.79-.29-.25,0-.48,.05-.67,.15-.19,.1-.34,.25-.44,.44s-.15,.44-.15,.73v2.05h-.72v-3.98h.69v1.07l-.11-.29c.13-.26,.33-.46,.6-.61,.27-.15,.59-.22,.95-.22Z"/><path class="e" d="M243.68,51.71c-.39,0-.73-.08-1.03-.24-.3-.16-.54-.39-.72-.68-.18-.29-.27-.63-.27-1.01s.09-.72,.27-1.01,.42-.51,.72-.67c.3-.16,.65-.24,1.03-.24,.34,0,.65,.07,.93,.21s.5,.35,.67,.63c.17,.29,.25,.65,.25,1.08s-.08,.79-.25,1.07-.39,.5-.67,.64c-.28,.14-.59,.21-.93,.21Zm.09,1.67c-.37,0-.72-.05-1.06-.15-.34-.1-.62-.25-.84-.44l.35-.56c.19,.16,.41,.29,.68,.38s.55,.14,.85,.14c.47,0,.82-.11,1.04-.33,.22-.22,.33-.56,.33-1.01v-.84l.08-.79-.04-.8v-1.09h.68v3.44c0,.7-.17,1.22-.53,1.55-.35,.33-.86,.5-1.54,.5Zm0-2.3c.26,0,.5-.06,.71-.17,.21-.11,.37-.26,.48-.46,.12-.2,.18-.42,.18-.68s-.06-.48-.18-.68c-.12-.2-.28-.35-.48-.45-.21-.11-.44-.16-.71-.16s-.5,.05-.71,.16c-.21,.11-.37,.26-.49,.45-.12,.2-.18,.42-.18,.68s.06,.48,.18,.68c.12,.2,.28,.35,.49,.46,.21,.11,.44,.17,.71,.17Z"/><path class="e" d="M247.38,51.92c-.14,0-.26-.05-.36-.15-.1-.1-.15-.22-.15-.37s.05-.27,.15-.37c.1-.1,.22-.14,.36-.14s.25,.05,.35,.14c.1,.09,.15,.22,.15,.37s-.05,.27-.15,.37-.21,.15-.35,.15Z"/><path class="e" d="M248.33,48.65l-.04-2.03h.63l-.05,2.03h-.53Zm1.36,0l-.04-2.03h.63l-.05,2.03h-.53Z"/></g><text class="d" transform="translate(38.28 23)"><tspan class="s" x="0" y="0">M</tspan><tspan class="q" x="25.01" y="0">e</tspan><tspan class="k" x="41.52" y="0">n</tspan><tspan class="j" x="59.42" y="0">tal Health</tspan></text></g><g><g><g><path class="u" d="M255.58,191.87c-11.55-13.44-27.02-24.68-44.67-26.35-17.64-1.66-37.07,8.79-41.23,26.01,3.17-4.2,8.89-5.9,14.11-5.28,5.22,.62,10,3.24,14.25,6.34,12.95,9.45,21.91,23.46,28.43,38.1,6.52,14.64,10.88,30.14,16.52,45.15,2.5,6.64,5.36,13.36,10.3,18.44,6.12,6.29,17.2,10.02,24.4,3.27,5.09-4.78,7.24-10.65,7.25-17.43,.02-9.86-.09-19.55-1.78-29.3-1.78-10.21-4.83-20.21-9.07-29.67-4.74-10.58-10.96-20.49-18.52-29.28Z"/><path class="o" d="M212.44,198.22c19.47,26.27,30.17,54.58,43.5,85.36,5.07,10.42,13.38,13.85,22.33,13.41-.19,.19-.38,.38-.58,.57-7.2,6.76-18.28,3.02-24.4-3.27-4.95-5.09-7.81-11.8-10.3-18.44-5.64-15-10-30.5-16.52-45.15-6.52-14.64-15.48-28.65-28.43-38.1-4.25-3.1-9.03-5.72-14.25-6.34-5.22-.62-10.94,1.08-14.11,5.28,.41-1.7,.98-3.33,1.67-4.9,13.39-9.31,31.96-1.77,41.09,11.58Z"/><path class="t" d="M207.85,181.84c8.96-.17,17.56,3.25,24.71,8.5,8.07,5.93,14.08,14.14,18.76,22.9,5.22,9.75,9.19,20.21,12.92,30.6,3.93,10.93,7.36,22.04,10.28,33.28,2.91,11.19,5.32,22.52,7.22,33.92,.24,1.41,.46,2.83,.68,4.25,.1,.64-.9,.71-1,.07-1.76-11.34-4.02-22.6-6.79-33.74-2.74-11.04-5.97-21.96-9.68-32.72-3.59-10.41-7.46-20.83-12.26-30.76-4.38-9.06-9.89-17.83-17.57-24.47-6.67-5.77-14.94-9.99-23.82-10.74-1.13-.1-2.26-.12-3.4-.1-.64,.01-.72-.99-.07-1Z"/><path class="t" d="M215.64,190.05c5.73-.97,11.62-.52,17.15,1.23l-8.64-13.96c-.34-.55,.48-1.12,.82-.57,3.12,5.04,6.24,10.09,9.37,15.13,.28,.45-.17,.9-.63,.73-5.75-2.06-11.98-2.59-18-1.57-.63,.11-.7-.89-.07-1Z"/><path class="t" d="M238.96,217.57c6.86,4.56,13.2,9.91,18.83,15.92,1.24,1.33,2.44,2.69,3.61,4.08-.38-7.86-1.64-15.66-3.8-23.23-.65-2.28-1.38-4.54-2.19-6.77-.22-.61,.72-.94,.94-.34,2.85,7.91,4.75,16.16,5.62,24.52,.25,2.4,.41,4.81,.49,7.22,.02,.52-.6,.7-.91,.32-5.19-6.3-11.1-11.99-17.59-16.94-1.84-1.4-3.73-2.75-5.66-4.03-.54-.36,.12-1.11,.65-.76Z"/><path class="t" d="M255.3,258.37c6.23,4.43,11.72,9.87,16.21,16.05,1,1.38,1.94,2.82,2.84,4.27,1.14-9.28,1.47-18.65,.96-27.99-.04-.64,.96-.72,1-.07,.54,9.89,.16,19.82-1.14,29.63-.05,.42-.69,.55-.9,.19-3.87-6.54-8.79-12.42-14.56-17.37-1.62-1.39-3.31-2.71-5.06-3.95-.52-.37,.13-1.13,.65-.76Z"/></g><g><path class="o" d="M216.17,262.08c-14.75-2.77-34.21,1.13-43.53,15.59,.2-12.2,9.55-23.02,21.11-27.67,3.51-.29,7.01-.09,10.46,.71,1.98,.46,2.79-2.6,.8-3.06-.19-.04-.39-.08-.58-.12,9.29-.81,18.68,1.4,27.38,5.28,2.91,2.65,5.47,5.69,7.47,9.08,1.04,1.76,3.77,.16,2.73-1.6-.69-1.17-1.46-2.31-2.27-3.41,.84,.49,1.67,.99,2.49,1.5,5.66,3.56,10.94,7.71,15.79,12.31,2.91,5.19,4.95,10.97,6.92,16.43,.69,1.91,3.75,1.1,3.06-.81-1.01-2.81-2.05-5.69-3.19-8.54,5.67,6.51,10.54,13.71,14.46,21.4,3.81,7.46,6.31,15.28,8.76,23.25,1.68,5.48,1.41,10.78-1.51,15.91-.04,.07-.08,.13-.12,.19-17.21-31.17-34.53-67.61-70.22-76.45Z"/><path class="u" d="M216.17,262.08c35.69,8.84,53.01,45.28,70.22,76.45-4.2,7.06-13.97,6.79-20.43,3.26-4.8-2.62-8.53-6.77-11.94-11.07,3.77,.7,7.48,1.78,11.09,3.06,1.92,.68,2.71-2.38,.8-3.06-4.77-1.7-9.65-2.97-14.68-3.62-3.63-4.79-7.12-9.68-10.66-14.53,2.4,.54,4.77,1.21,7.08,1.94,1.95,.61,2.74-2.45,.8-3.06-3.46-1.09-7.04-2.03-10.68-2.64-3.01-4.02-6.1-7.96-9.4-11.74-4.55-5.21-9.58-10.12-15.11-14.27,3.44-.33,6.9-.37,10.36-.11,2.04,.15,2.02-3.02,0-3.17-4.78-.35-9.45-.05-14.08,.65-4.27-2.82-8.83-5.16-13.69-6.82-.24-.08-.49-.16-.74-.24,.57-.19,1.13-.38,1.7-.57,.81-.27,1.36-1.07,1.12-1.94-.21-.79-1.12-1.39-1.94-1.12-2.09,.69-4.22,1.42-6.27,2.3-2.32-.36-4.67-.43-6.98,0-4.38,.8-8.58,3.61-10.09,7.79-.04-.64-.05-1.27-.04-1.91,9.32-14.46,28.78-18.36,43.53-15.59Z"/><path class="t" d="M201.11,262.2c7.21-2.37,15.01-1.76,22.11,.7,8.01,2.78,14.92,7.92,20.9,13.83,6.66,6.58,12.48,14.05,18.09,21.52,5.91,7.86,11.46,15.99,16.63,24.35,5.15,8.32,9.93,16.88,14.31,25.63,.54,1.09,1.08,2.17,1.61,3.26,.24,.49-.55,.8-.79,.31-4.26-8.73-8.9-17.27-13.92-25.59-4.98-8.24-10.32-16.27-16-24.04-5.5-7.53-11.24-14.99-17.59-21.81-5.81-6.24-12.45-11.95-20.32-15.4-6.84-3-14.58-4.35-21.95-2.74-.94,.21-1.86,.47-2.77,.77-.52,.17-.83-.62-.31-.79Z"/><path class="t" d="M209.47,266.89c4.39-2.22,9.27-3.32,14.18-3.29-3.49-3.04-6.98-6.09-10.47-9.13-.41-.36,.11-1.02,.52-.66,3.78,3.3,7.57,6.6,11.35,9.9,.34,.29,.09,.77-.33,.75-5.17-.23-10.33,.9-14.95,3.22-.49,.25-.79-.54-.31-.79Z"/><path class="t" d="M235.2,283.32c6.69,1.97,13.15,4.72,19.21,8.17,1.34,.76,2.65,1.57,3.94,2.4-2.27-6.26-5.24-12.26-8.87-17.84-1.1-1.68-2.25-3.32-3.46-4.93-.33-.44,.35-.94,.68-.51,4.28,5.68,7.87,11.88,10.67,18.43,.8,1.88,1.53,3.78,2.2,5.71,.14,.41-.31,.71-.66,.49-5.77-3.8-11.97-6.93-18.46-9.31-1.84-.68-3.71-1.29-5.59-1.84-.52-.15-.18-.93,.34-.78Z"/><path class="t" d="M258.6,312.24c6.14,2.02,11.94,5.05,17.12,8.94,1.16,.87,2.27,1.79,3.36,2.74-1.39-7.79-3.47-15.45-6.22-22.88-.19-.51,.6-.82,.79-.31,2.91,7.86,5.08,15.99,6.48,24.25,.06,.35-.42,.62-.68,.38-4.76-4.32-10.21-7.85-16.11-10.41-1.66-.72-3.36-1.36-5.08-1.93-.52-.17-.18-.95,.34-.78Z"/></g><g><path class="o" d="M261.89,160.56c-12.79-7.85-32.36-11.15-46.23-.97,4.54-11.33,17.14-18.09,29.6-18.31,3.38,.98,6.58,2.42,9.52,4.4,1.69,1.14,3.54-1.43,1.84-2.57-.16-.11-.33-.21-.5-.32,8.96,2.56,16.95,7.98,23.69,14.71,1.77,3.51,3.07,7.27,3.73,11.15,.34,2.01,3.46,1.49,3.12-.52-.23-1.34-.53-2.68-.9-4,.61,.76,1.2,1.52,1.78,2.29,4.02,5.34,7.47,11.11,10.35,17.14,.87,5.89,.71,12.01,.6,17.82-.04,2.03,3.11,2.37,3.15,.33,.06-2.99,.12-6.05,.07-9.12,2.97,8.1,4.95,16.57,5.87,25.15,.89,8.33,.44,16.52-.12,24.85-.38,5.72-2.53,10.57-7.09,14.32-.06,.05-.12,.09-.18,.14-4.95-35.26-8.12-75.48-38.3-96.48Z"/><path class="u" d="M261.89,160.56c30.18,21,33.35,61.23,38.3,96.48-6.44,5.1-15.47,1.35-20.25-4.25-3.55-4.16-5.56-9.37-7.2-14.61,3.27,2,6.35,4.33,9.27,6.82,1.55,1.33,3.38-1.26,1.84-2.57-3.85-3.29-7.96-6.22-12.42-8.62-1.68-5.77-3.19-11.58-4.78-17.38,2.05,1.36,4.03,2.83,5.93,4.34,1.6,1.27,3.44-1.31,1.84-2.57-2.84-2.25-5.85-4.41-9.03-6.28-1.38-4.82-2.85-9.61-4.59-14.32-2.39-6.49-5.34-12.87-9.02-18.72,3.33,.92,6.58,2.12,9.72,3.6,1.85,.87,2.96-2.1,1.13-2.96-4.33-2.04-8.81-3.42-13.38-4.42-2.99-4.16-6.41-7.97-10.35-11.26-.2-.16-.4-.32-.6-.48,.6,.02,1.2,.05,1.79,.08,.86,.04,1.65-.51,1.74-1.41,.09-.81-.55-1.7-1.41-1.74-2.2-.1-4.45-.18-6.68-.09-2.04-1.17-4.21-2.07-6.52-2.5-4.37-.81-9.3,.31-12.21,3.68,.19-.61,.41-1.21,.65-1.79,13.87-10.18,33.44-6.88,46.23,.97Z"/><path class="t" d="M247.78,155.3c7.58,.36,14.65,3.72,20.4,8.55,6.49,5.45,11.11,12.72,14.58,20.38,3.87,8.52,6.64,17.58,9.22,26.56,2.71,9.45,4.99,19.02,6.84,28.68,1.84,9.61,3.25,19.31,4.22,29.05,.12,1.21,.23,2.42,.34,3.63,.05,.54-.8,.55-.85,0-.86-9.68-2.15-19.31-3.87-28.87-1.7-9.48-3.83-18.88-6.36-28.17-2.45-8.99-5.15-18.01-8.65-26.66-3.2-7.9-7.37-15.61-13.48-21.64-5.31-5.24-12.07-9.27-19.53-10.39-.95-.14-1.91-.23-2.86-.28-.54-.03-.55-.87,0-.85Z"/><path class="t" d="M253.92,162.67c4.9-.5,9.84,.21,14.42,1.99-2.17-4.09-4.35-8.18-6.52-12.27-.26-.48,.47-.92,.73-.43,2.36,4.43,4.71,8.87,7.07,13.3,.21,.4-.19,.75-.57,.58-4.74-2.06-9.97-2.85-15.11-2.32-.54,.06-.55-.79,0-.85Z"/><path class="t" d="M272.09,187.2c5.55,4.23,10.6,9.1,15.02,14.49,.98,1.19,1.91,2.41,2.83,3.65,.11-6.66-.52-13.32-1.92-19.83-.42-1.96-.92-3.91-1.47-5.84-.15-.52,.66-.76,.81-.23,1.97,6.84,3.11,13.91,3.39,21.02,.08,2.04,.08,4.08,.02,6.12-.01,.44-.54,.56-.79,.22-4.03-5.61-8.71-10.74-13.92-15.28-1.48-1.29-3-2.53-4.56-3.72-.43-.33,.16-.93,.59-.6Z"/><path class="t" d="M283.62,222.57c5.01,4.08,9.35,8.98,12.8,14.46,.77,1.23,1.48,2.49,2.16,3.76,1.48-7.78,2.27-15.67,2.36-23.59,0-.54,.85-.55,.85,0-.09,8.38-.97,16.75-2.6,24.97-.07,.35-.61,.43-.77,.11-2.91-5.74-6.74-10.98-11.33-15.48-1.29-1.27-2.65-2.47-4.05-3.62-.42-.34,.17-.95,.59-.6Z"/></g></g><g><path class="f" d="M57.61,314.9c1.81,9.47,12.18,14.64,21.65,16.5s19.74,2.03,27.69,7.49c5.95,4.09,9.73,10.59,14.8,15.72,10.22,10.33,25.35,14.59,39.88,14.57,14.53-.02,28.76-3.86,42.78-7.68,8.38-2.28,18.39-6.36,19.28-15,.74-7.16-5.88-13.27-12.86-15.05-6.97-1.78-14.3-.52-21.49-.25-7.19,.27-15.09-.79-20.05-6-5.78-6.08-5.62-15.59-9.11-23.22-7.84-17.1-29.16-19.74-45.58-17.08-7.15,1.16-14.28,1.74-21.48,2.49-6.98,.73-13.68,2.81-20.16,5.46-8.63,3.53-17.32,11.81-15.36,22.05Z"/><g><g><path class="p" d="M203.76,330.35c-.55-.43-.74-.61-.74-.61l-1.54-11.69-13.06,3.59,2.39,7.76c3.9,.98,9.03,2.32,12.94,.96Z"/><g><path class="t" d="M195.02,347.99c8.3,3.31,16.75,6.24,25.32,8.78,1.24,.37,2.52,.73,3.82,.64,1.29-.09,2.63-.73,3.19-1.9,.68-1.41,.04-3.18-1.1-4.26-1.14-1.08-2.67-1.63-4.15-2.15-.35,0-.86-.3-1.19-.42-.43-.15-.85-.3-1.28-.45-.87-.3-1.73-.61-2.6-.91-1.7-.6-3.41-1.19-5.11-1.79-3.42-1.2-6.84-2.4-10.26-3.6-1.72-.6-3.43-1.2-5.15-1.81-1.55-.54-3.1-1.19-4.7-1.6-.92-.24-2.11-.43-2.93,.2-.97,.74-.99,2.3-.79,3.38,.55,2.9,3.47,4.45,5.94,5.5,.32,.14,.64,.27,.97,.39Z"/><path class="e" d="M203.76,330.35c-3.91,1.36-9.04,.02-12.94-.96l.11,.35s-1.14,3.03-1.88,7.1c-.65,3.57,1.42,7.08,4.83,8.3l29.14,10.47c2.6,.94,5.17-1.45,4.44-4.12-1.01-3.73-22.35-20.08-23.7-21.13Z"/><path class="t" d="M210.48,334.91c-2.69-.03-5.3,1.28-6.82,3.52-.41,.6,.5,1.27,.91,.66,1.28-1.88,3.49-3.09,5.78-3.07,.3,0,.59-.17,.62-.5,.03-.28-.19-.62-.5-.62Z"/><path class="t" d="M213.58,337.13c-2.69-.03-5.3,1.28-6.82,3.52-.41,.6,.5,1.27,.91,.66,1.28-1.88,3.49-3.09,5.78-3.07,.3,0,.59-.17,.62-.5,.03-.28-.19-.62-.5-.62Z"/><path class="t" d="M216.69,339.34c-2.69-.03-5.3,1.28-6.82,3.52-.41,.6,.5,1.27,.91,.66,1.28-1.88,3.49-3.09,5.78-3.07,.3,0,.59-.17,.62-.5,.03-.28-.19-.62-.5-.62Z"/></g></g><g><path class="p" d="M178.84,337.94c-.55-.43-.74-.61-.74-.61l-1.54-11.69-13.06,3.59,2.39,7.76c3.9,.98,9.03,2.32,12.94,.96Z"/><g><path class="t" d="M170.1,355.58c8.3,3.31,16.75,6.24,25.32,8.77,1.24,.37,2.52,.73,3.82,.64,1.29-.09,2.63-.73,3.19-1.9,.68-1.41,.04-3.18-1.1-4.26-1.14-1.08-2.67-1.63-4.15-2.15-.35,0-.86-.3-1.19-.42-.43-.15-.85-.3-1.28-.45-.87-.3-1.73-.61-2.6-.91-1.7-.6-3.41-1.19-5.11-1.79-3.42-1.2-6.84-2.4-10.26-3.6-1.72-.6-3.43-1.2-5.15-1.81-1.55-.54-3.1-1.19-4.7-1.6-.92-.24-2.11-.43-2.93,.2-.97,.74-.99,2.3-.79,3.38,.55,2.9,3.47,4.46,5.94,5.5,.32,.14,.64,.27,.97,.4Z"/><path class="e" d="M178.84,337.94c-3.91,1.36-9.04,.02-12.94-.96l.11,.35s-1.14,3.03-1.88,7.1c-.65,3.57,1.42,7.08,4.83,8.3l29.14,10.47c2.6,.94,5.17-1.45,4.44-4.12-1.01-3.73-22.35-20.08-23.7-21.13Z"/><path class="t" d="M185.56,342.51c-2.69-.03-5.3,1.28-6.82,3.52-.41,.6,.5,1.27,.91,.66,1.28-1.88,3.49-3.09,5.78-3.07,.3,0,.59-.17,.62-.5,.03-.28-.19-.62-.5-.62Z"/><path class="t" d="M188.67,344.72c-2.69-.03-5.3,1.28-6.82,3.52-.41,.6,.5,1.27,.91,.66,1.28-1.88,3.49-3.09,5.78-3.07,.3,0,.59-.17,.62-.5,.03-.28-.19-.62-.5-.62Z"/><path class="t" d="M191.77,346.93c-2.69-.03-5.3,1.28-6.82,3.52-.41,.6,.5,1.27,.91,.66,1.28-1.88,3.49-3.09,5.78-3.07,.3,0,.59-.17,.62-.5,.03-.28-.19-.62-.5-.62Z"/></g></g><path class="r" d="M203.48,220.59c1.06,.95,2.09,2,2.66,3.3,.57,1.31,.58,2.94-.31,4.06-1.41,1.77-4.14,1.44-6.34,.94-2.51-.57-5.03-1.13-7.54-1.69-2.59-.58-5.3-1.22-7.31-2.97-1.7-1.48-2.7-3.71-2.75-5.96-.05-2.29,.99-4.78,2.83-6.2,1.51-1.16,3.29-.41,4.87,.18,2.4,.89,4.73,1.97,6.94,3.26,2.2,1.29,4.29,2.78,6.23,4.44,.25,.21,.49,.43,.73,.64Z"/><path class="n" d="M137.15,177.33c10.18,5.99,20.37,11.97,30.55,17.96,3.31,1.95,6.67,3.93,9.09,6.54,2.43,2.61,3.86,5.97,2.91,9.36-1.15,4.14-6.49,7.93-11.83,7.77-3.92-.12-6.98-2.12-9.76-4.02-5.88-4.03-11.79-8.09-16.5-12.96-4.72-4.86-8.22-10.63-8.72-16.97l4.25-7.68Z"/><g><path class="l" d="M160.76,114.36c-3.08-3.11-7.09-5.42-11.45-5.87-4.35-.45-9.01,1.17-11.68,4.63-2.72,3.52-3.23,8.54-6.47,11.59-2.14,2.01-5.12,2.83-8.01,3.34-2.89,.51-5.87,.79-8.55,1.99-2.68,1.21-5.05,3.61-5.23,6.54-.2,3.28,2.31,6.61,1.03,9.63-1.04,2.46-4.06,3.36-5.83,5.35-1.47,1.66-1.97,4.03-1.64,6.22s1.43,4.21,2.81,5.94c3.68,4.62,9.6,7.37,15.51,7.22,5.91-.16,11.67-3.22,15.1-8.02,3.18-4.46,4.31-10.02,6.62-14.99,3.28-7.06,9.06-12.92,16.07-16.29,2.83-1.36,6.39-2.58,8.16-5.36,.66-1.04,.26-1.82-.24-2.82-.77-1.55-1.6-3.06-2.55-4.51-1.07-1.64-2.28-3.19-3.66-4.58Z"/><path class="t" d="M159.98,117.04c-2.85-2.88-6.58-5.03-10.61-5.44s-8.35,1.08-10.83,4.29c-2.52,3.27-3,7.91-6,10.74-1.98,1.87-4.74,2.62-7.42,3.09-2.68,.47-5.44,.73-7.92,1.85-2.48,1.12-4.68,3.35-4.85,6.06-.19,3.04,2.14,6.13,.96,8.93-.96,2.28-3.76,3.11-5.4,4.96-1.36,1.54-1.82,3.74-1.52,5.77,.31,2.03,1.32,3.9,2.6,5.5,3.42,4.28,8.9,6.83,14.37,6.69,5.48-.14,10.82-2.98,14-7.44,2.95-4.13,4-9.29,6.13-13.9,3.04-6.54,8.4-11.98,14.9-15.1,2.63-1.26,5.92-2.39,7.57-4.97,.61-.96,.24-1.68-.22-2.62-.71-1.43-1.48-2.84-2.36-4.18-.99-1.52-2.11-2.95-3.39-4.24Z"/></g><path class="m" d="M102.84,166.77c-30.83,8.2-38.09,49.08-40.23,64.61-2.14,15.53,.39,32.28,9.92,44.72,9.54,12.44,26.95,19.36,41.66,13.94,5.23-1.93,10.07-5.45,12.56-10.43,2.97-5.92,2.31-12.9,2.18-19.52-.19-10.65,1.21-21.33,4.15-31.57,2.93-10.2,18.78-26.63,12.14-42.85-5.18-12.65-23.37-23.95-42.39-18.9Z"/><path class="n" d="M143.66,207.34c-18.24,5.12-37.51-3.05-52.4-12.98,2.25,20.29,13.53,48.47-9.02,61.99,3.38,0,5.64,0,9.02-1.13-5.45,10.9-17.36,12.12-26.06,6.99,1.71,4.97,4.12,9.67,7.34,13.87,9.54,12.44,26.95,19.36,41.66,13.94,5.23-1.93,10.07-5.45,12.56-10.43,2.97-5.92,2.31-12.9,2.18-19.52-.19-10.65,1.21-21.33,4.15-31.57,1.6-5.55,7.02-12.96,10.56-21.17Z"/><g><path class="t" d="M180.68,155.52c.33-.64-.68-1.14-1.01-.49-3.08,5.94-6.83,11.51-11.21,16.57-3.64,4.21-8.22,9.19-14.29,9.02-3.03-.09-6.02-1.87-6.99-4.83-.23-.69-1.29-.32-1.07,.37,.87,2.67,3.2,4.57,5.87,5.28,2.71,.73,5.65,.13,8.13-1.08,2.87-1.4,5.22-3.64,7.36-5.96,2.47-2.67,4.76-5.5,6.87-8.47,2.35-3.31,4.47-6.79,6.34-10.4Z"/><g><path class="l" d="M183.58,146.5c.12-8-3.37-15.88-10.54-20.48-8.02-5.15-18.73-4.17-25.86,2.06-7.55,6.6-12.6,18.67-9.55,28.56,3.18,10.31,14.47,16.22,24.82,14.09,6.83-1.4,14.39-5.47,17.81-11.67,2.14-3.89,3.25-8.24,3.32-12.55Z"/><path class="t" d="M181.49,148.14c.11-7.46-3.14-14.81-9.82-19.09-7.48-4.8-17.46-3.89-24.1,1.92-7.03,6.15-11.75,17.4-8.9,26.62,2.97,9.61,13.49,15.12,23.14,13.14,6.37-1.31,13.41-5.1,16.6-10.88,2-3.63,3.03-7.68,3.09-11.7Z"/></g></g><g><g><g><path class="p" d="M142.23,150.69c-6.02,6.96-12.54,13.54-19.44,19.59-1.4,1.22-2.28,2.91-2.27,4.41,.02,4.12,1.76,7.6,4.76,9.43,1.53,.93,4.05,.08,5.74-1.88,3.88-4.52,7.72-8.66,12.05-13.02,1.95-6.97,1.23-13.08-.84-18.53Z"/><path class="r" d="M143.08,169.22c1.95-6.97,1.23-13.08-.84-18.53-1.58,1.83-3.2,3.63-4.86,5.41-3.01,7.69-4.94,16.5-3.6,23.01,2.97-3.34,5.99-6.56,9.3-9.89Z"/></g><path class="p" d="M172.62,165.19c-10.97,9.56-27.26,14.14-29.55,11.12-7.57-10.02-1.28-22.78-1.19-22.92-.09,.14-1.87-1.01-2.56-1.88-.68-.86-.7-2.8-.43-3.85,.52-2.02,1.74-4.71,4.05-5.11,2.78-.48,5.85,2.46,4.7,5.38,8.24-.15,12.02-2.68,16.64-5.34,7.14,3.13,10.8,7,14.05,14.28,.54,1.21-4.7,7.45-5.71,8.33Z"/></g><path class="t" d="M167.63,153.6c-1.44-2.18-3.48-3.9-5.85-4.99-.67-.31-1.07,.77-.4,1.08,2.19,1.01,4.03,2.64,5.36,4.64,.17,.26,.59,.26,.81,.08,.26-.22,.25-.55,.08-.81Z"/><path class="t" d="M172.91,164.03c.45-1.66,.08-3.48-1.04-4.8-.2-.23-.58-.29-.81-.08-.23,.21-.29,.57-.08,.81,.12,.14,.23,.28,.33,.43,0,.01,.04,.06,.04,.07,.01,.02,.03,.05,.04,.07,.04,.07,.08,.15,.12,.23,.08,.16,.15,.33,.21,.5,.02,.04,.03,.09,.05,.14l.02,.06,.03,.1s.02,.09,.03,.14c.04,.17,.07,.34,.09,.51,0,.09,.02,.17,.02,.26v.04s0,0,0,.01c0,.05,0,.1,0,.14,0,.17-.01,.34-.04,.51-.01,.09-.03,.19-.05,.28,0,.03-.01,.06-.02,.08,0,.01-.03,.1-.03,.1-.08,.3,.03,.63,.34,.74,.27,.1,.66-.04,.74-.34Z"/><path class="r" d="M149.03,172.16c-.76-1.02-1.52-2.04-2.27-3.06-.18-.24-.59-.28-.81-.08-.24,.22-.27,.55-.08,.81,.76,1.02,1.52,2.04,2.27,3.06,.18,.24,.59,.28,.81,.08,.24-.22,.27-.55,.08-.81Z"/><path class="r" d="M162.51,164.83c.25-.7-.81-1.17-1.06-.47-.52,1.41-1.15,2.89-2.42,3.8-1.06,.76-2.53,.94-3.54,0-.55-.51-1.28,.39-.73,.9,1.28,1.18,3.19,1.11,4.62,.26,1.64-.97,2.51-2.77,3.14-4.49Z"/><path class="t" d="M160.16,159.23c.05-.29-.17-.64-.48-.66-.63-.05-1.23-.32-1.6-.76-.23-.27-.34-.47-.45-.78-.09-.26-.14-.6-.12-.85,.02-.31-.15-.61-.48-.66-.29-.04-.64,.17-.66,.48-.06,.89,.19,1.79,.77,2.48,.6,.7,1.45,1.16,2.37,1.23,.31,.02,.61-.16,.66-.48Z"/><path class="t" d="M166.67,168.64c-.05-.34-.31-.51-.64-.52,.08,0,.02,0-.03,0-.04,0-.08,0-.12-.02-.03,0-.07-.01-.1-.02h-.02c-.07-.03-.14-.05-.21-.08-.04-.02-.08-.04-.11-.05-.02-.01-.03-.02-.04-.02-.05-.04-.11-.07-.16-.11-.03-.03-.06-.05-.09-.08l-.05-.05s-.05-.06-.05-.06c-.02-.03-.04-.05-.06-.08-.02-.03-.05-.07-.07-.1l-.02-.04c-.05-.11-.1-.23-.13-.35v-.04s-.02-.08-.02-.12c0-.07,0-.14-.01-.21h0v-.02s.01-.08,.02-.12c0-.07,.02-.14,.04-.21h0s0,0,0-.01c.02-.04,.03-.07,.04-.11,.03-.07,.07-.14,.1-.21,.15-.27-.02-.66-.3-.77-.32-.12-.61,.01-.77,.3-.43,.77-.39,1.73,.03,2.48,.45,.81,1.33,1.25,2.24,1.27,.3,0,.56-.35,.52-.64Z"/><path class="t" d="M152.18,170.92c-.97-1.67-2.36-3.01-4.05-3.94-.27-.15-.63,.06-.73,.32-.12,.31,.05,.58,.32,.73-.06-.04,.09,.05,.08,.05,.04,.02,.09,.05,.13,.08,.09,.06,.19,.11,.28,.17,.17,.11,.33,.22,.49,.34,.18,.13,.35,.27,.52,.41,.08,.06,.15,.13,.23,.2,.09,.08,.11,.11,.18,.17,.3,.29,.58,.61,.84,.94,.13,.17,.25,.34,.37,.51,.14,.21,.19,.29,.31,.49,.15,.26,.45,.42,.75,.28,.26-.11,.44-.48,.28-.75Z"/><path class="r" d="M143.86,144.32c-.59-.43-1.25,.48-.66,.91,.62,.45,.94,1.21,.83,1.95-.11,.69-.62,1.29-1.29,1.55-.28,.11-.4,.48-.28,.75,.13,.29,.46,.39,.75,.28,1.02-.41,1.78-1.37,1.94-2.45,.18-1.14-.36-2.32-1.28-2.99Z"/></g><path class="n" d="M130.12,185.84c-2.52,1.29-5.47,.31-7.44-1.5-2.33-2.14-3.49-5.15-4.6-8.03-.27-.69-1.38-.36-1.11,.34,1.27,3.29,2.64,6.79,5.5,9.03,2.35,1.85,5.52,2.55,8.27,1.15,.67-.34,.05-1.32-.61-.99Z"/><path class="t" d="M165.63,152.51c-5.09,.42-10.31-1.01-14.47-3.96-.85-.61-1.74-1.42-1.74-2.46,0-1.18,1.08-2.03,2.1-2.62,4.33-2.49,9.41-3.65,14.4-3.28,2.16,.16,4.3,.62,6.34,1.33,1.03,.36,2.03,.78,3,1.27,.94,.47,1.94,.98,2.78,1.63,1.48,1.16,.35,2.68-.78,3.55-1.57,1.22-3.31,2.22-5.15,2.97-1.84,.75-3.78,1.26-5.75,1.5-.24,.03-.48,.05-.73,.07Z"/><path class="g" d="M119.07,276.57c9.2-25.1,18.22-38.99,34.05-60.53,6.86-9.34,16.43-19.18,27.93-17.75,6.46,.81,13.62,10.68,14.48,22.41,1.4,19.08,4.37,72.15,10.68,103.59-6.3,1.33-12.83,1.35-19.13,2.67-11.39-18.49-16.26-52.46-15.18-69.19-4.71,13.2-10.36,72.84-51.92,71.12-10.29-.43-18.87-9.96-23.11-19.35-4.27-9.46-4.35-17.72,1.72-34.8l20.48,1.81Z"/><g><path class="r" d="M205.12,223.38c-1.32-1-3.12-1.1-4.56-.27-4.14,2.37-8.09,5.09-11.78,8.14-1.22,1-2.5,2.21-2.63,3.77-.15,1.71,1.14,3.12,2.34,4.29,1.66,1.63,3.61,3.38,5.97,3.25,2.01-.11,3.72-1.56,5.12-3.06,3.06-3.29,5.43-7.22,6.92-11.43,.6-1.7,.06-3.59-1.38-4.68h0Z"/><path class="r" d="M186.75,233.3c-1.49,1.85-2.98,3.71-4.47,5.56,.67,1.81,1.21,3.68,1.87,5.48,1.27,.87,2.75,2.04,4.02,2.91,.47-1.57-.48-3.65-2.02-4.24-.08-.89-.52-2.02-.59-2.91,1.19-1.47,2.27-3.29,3.46-4.76l-2.28-2.04Z"/><path class="r" d="M190.61,234.59c-1.49,1.85-2.98,3.71-4.47,5.56,.67,1.81,1.21,3.68,1.87,5.48,1.27,.87,2.75,2.04,4.02,2.91,.47-1.57-.48-3.65-2.02-4.24-.08-.89-.52-2.02-.59-2.91,1.19-1.47,2.27-3.29,3.46-4.76l-2.28-2.04Z"/><path class="r" d="M193.56,234.31c-1.49,1.85-2.98,3.71-4.47,5.56,.67,1.81,1.21,3.68,1.87,5.48,1.27,.87,2.75,2.04,4.02,2.91,.47-1.57-.48-3.65-2.02-4.24-.08-.89-.52-2.02-.59-2.91,1.19-1.47,2.27-3.29,3.46-4.76l-2.28-2.04Z"/><path class="r" d="M196.65,234.19c-1.49,1.85-2.98,3.71-4.47,5.56,.67,1.81,1.21,3.68,1.87,5.48,1.27,.87,2.75,2.04,4.02,2.91,.47-1.57-.48-3.65-2.02-4.24-.08-.89-.52-2.02-.59-2.91,1.19-1.47,2.27-3.29,3.46-4.76l-2.28-2.04Z"/></g><path class="g" d="M87.76,281.05c-4.11,.74-8.29,.71-12.39-.09-.71-.14-.84,.98-.13,1.12,4.18,.82,8.49,.84,12.69,.08,.71-.13,.54-1.24-.17-1.11Z"/><g><path class="i" d="M93.02,277.91c9.2-25.1,18.22-38.99,34.05-60.53,6.86-9.34,16.43-19.18,27.93-17.75,6.46,.81,13.62,10.68,14.48,22.41,1.4,19.08,4.38,74.4,10.69,105.84-6.3,1.32-12.83,1.35-19.13,2.67-11.39-18.49-16.27-54.7-15.19-71.43-4.71,13.2-10.36,72.84-51.92,71.12-10.29-.43-18.87-9.96-23.11-19.35-4.27-9.46-4.35-17.72,1.72-34.8l20.48,1.81Z"/><path class="g" d="M109.96,241.42c-7.45,10.87-13.06,22.98-16.51,35.69-.96,3.55-1.76,7.15-2.4,10.77-.12,.72,1,.84,1.12,.13,2.24-12.83,6.63-25.29,12.96-36.67,1.77-3.17,3.68-6.26,5.73-9.26,.41-.6-.5-1.26-.91-.66Z"/><path class="g" d="M88.31,281.59l-4.87,7.21c-.41,.6,.5,1.27,.91,.66,1.62-2.4,3.25-4.8,4.87-7.21,.41-.6-.5-1.27-.91-.66Z"/><path class="g" d="M146.85,260.07c.27-2.62,.65-5.24,1.12-7.83,.13-.72-.99-.84-1.12-.13-1.65,9.14-2.07,18.49-1.23,27.74,.24,2.67,.59,5.33,1.04,7.98,.12,.71,1.24,.54,1.11-.17-1.55-9.1-1.87-18.4-.92-27.58Z"/><path class="g" d="M174.85,322.32c-4.13,.73-8.26,1.46-12.39,2.19-.71,.13-.54,1.24,.17,1.11,4.13-.73,8.26-1.46,12.39-2.19,.71-.13,.54-1.24-.17-1.11Z"/></g><g><g><path class="m" d="M147.43,228.68c-4.96,.16-10.16,.34-15.99,.46-6.96-16.01-14.93-32.11-21.9-48.12-1.33-3.06-2.84-6.32-5.73-7.98-3.13-1.79-7.29-1.14-10.17,1.04-2.88,2.18-5.9,12.61-4.72,19.54,3.83,22.45,14.35,35.32,28,53.55,9.94-.04,20.21-.87,30.42-2.42-1.11-5.35-.85-10.71,.08-16.06Z"/><path class="n" d="M123.94,240.58c-1.13,0,2.25-4.51,1.13-6.76-1.13,2.25-4.51,3.38-5.64,5.64-14.09-17.11-28.16-36.01-29.42-58.32-1.14,3.94-1.74,8.72-1.1,12.48,3.83,22.45,14.35,35.32,28,53.55,9.94-.04,20.21-.87,30.42-2.42-.13-.63-.24-1.25-.33-1.88-7.75,1.16-15.74,.77-23.07-2.28Z"/><path class="n" d="M128.53,222.4c-5.06-9.9-10.12-19.81-15.19-29.71l-4.29-8.4c-.33-.64-1.38-.24-1.05,.41,5.06,9.9,10.12,19.81,15.19,29.71,1.43,2.8,2.86,5.6,4.29,8.4,.33,.64,1.38,.24,1.05-.41Z"/></g><g><path class="p" d="M185.97,229.08c-14.97-1.1-25.9-.81-38.54-.4-.93,5.35-1.2,10.71-.08,16.06,13.38-2.03,26.65-5.28,38.94-9.56-.1-2.12-.22-3.98-.32-6.1Z"/><g><path class="p" d="M175.55,229.29c5.27-2.14,10.78-3.75,16.39-4.79,1.55-.29,3.3-.49,4.58,.41,1.41,.99,1.66,2.88,1.79,4.55,.18,2.32,.27,4.93-1.35,6.66-1.37,1.47-3.59,1.85-5.64,1.95-5.52,.28-11.11-.86-16.04-3.27l.27-5.51Z"/><path class="p" d="M194.83,224.25l7.13,.15c.96,1.67,2.04,3.29,3,4.96-.15,1.54-.2,3.42-.36,4.96-1.51-.65-2.49-2.72-1.96-4.27-.63-.63-1.21-1.69-1.84-2.32-1.89-.03-3.98-.38-5.87-.41l-.1-3.06Z"/><path class="p" d="M193.34,228.04l7.13,.15c.96,1.67,2.04,3.29,3,4.96-.15,1.54-.2,3.42-.36,4.96-1.51-.65-2.49-2.72-1.96-4.27-.63-.63-1.21-1.69-1.84-2.32-1.89-.03-3.98-.38-5.87-.41l-.1-3.06Z"/><path class="p" d="M191.23,230.12l7.13,.15c.96,1.67,2.04,3.29,3,4.96-.15,1.54-.2,3.42-.36,4.96-1.51-.65-2.49-2.72-1.96-4.27-.63-.63-1.21-1.69-1.84-2.32-1.89-.03-3.98-.38-5.87-.41l-.1-3.06Z"/><path class="p" d="M189.15,232.41l7.13,.15c.96,1.67,2.04,3.29,3,4.96-.15,1.54-.2,3.42-.36,4.96-1.51-.65-2.49-2.72-1.96-4.27-.63-.63-1.21-1.69-1.84-2.32-1.89-.03-3.98-.38-5.87-.41l-.1-3.06Z"/></g></g></g></g></g><g><g><path class="u" d="M13.69,282.2c8.2-15.71,20.72-30.17,37.52-35.79,16.81-5.62,38.09,.15,46.06,15.98-4.04-3.37-9.99-3.73-14.94-1.94s-9.01,5.43-12.44,9.41c-10.47,12.14-16.02,27.82-19.05,43.56-3.03,15.74-3.76,31.83-5.85,47.72-.93,7.03-2.19,14.22-5.85,20.3-4.53,7.51-14.48,13.67-23.02,8.72-6.04-3.5-9.47-8.73-11.02-15.33-2.25-9.6-4.35-19.06-4.91-28.94-.59-10.35,.12-20.78,2.1-30.95,2.21-11.37,6.02-22.45,11.39-32.72Z"/><path class="o" d="M57.15,278.59c-13,30-17,60-23,93-2.57,11.3-9.89,16.52-18.71,18.13,.23,.14,.46,.29,.69,.43,8.54,4.95,18.49-1.2,23.02-8.72,3.66-6.07,4.93-13.27,5.85-20.3,2.09-15.89,2.82-31.98,5.85-47.72,3.03-15.74,8.58-31.42,19.05-43.56,3.43-3.98,7.5-7.62,12.44-9.41s10.9-1.43,14.94,1.94c-.79-1.56-1.71-3.03-2.74-4.39-15.15-6.02-31.53,5.53-37.39,20.6Z"/><path class="t" d="M57.9,261.59c-8.77,1.87-16.36,7.15-22.14,13.89-6.51,7.6-10.5,16.97-13.08,26.56-2.87,10.68-4.36,21.77-5.64,32.73-1.34,11.54-2.16,23.14-2.46,34.75-.3,11.56-.08,23.14,.66,34.68,.09,1.43,.19,2.86,.3,4.29,.05,.64,1.04,.48,.99-.15-.86-11.44-1.21-22.92-1.04-34.4,.17-11.38,.83-22.74,2-34.06,1.13-10.95,2.54-21.98,4.96-32.74,2.21-9.82,5.59-19.61,11.55-27.82,5.19-7.14,12.29-13.12,20.77-15.87,1.08-.35,2.18-.63,3.29-.87,.63-.13,.48-1.12-.15-.99Z"/><path class="t" d="M52.17,271.36c-5.8,.36-11.44,2.13-16.43,5.09,1.75-5.19,3.5-10.37,5.25-15.56,.21-.61-.72-.98-.93-.37-1.9,5.62-3.79,11.24-5.69,16.86-.17,.5,.37,.84,.78,.57,5.13-3.32,11.08-5.24,17.17-5.61,.64-.04,.48-1.03-.15-.99Z"/><path class="t" d="M35.7,303.45c-5.65,6-10.6,12.64-14.73,19.78-.91,1.57-1.77,3.18-2.59,4.79-1.41-7.74-1.96-15.62-1.57-23.48,.12-2.37,.32-4.73,.59-7.09,.08-.64-.92-.75-.99-.11-.98,8.35-.96,16.81,.09,25.15,.3,2.39,.69,4.77,1.16,7.14,.1,.51,.74,.54,.96,.11,3.62-7.31,8.09-14.2,13.29-20.49,1.48-1.79,3.01-3.52,4.6-5.21,.44-.47-.37-1.05-.81-.59Z"/><path class="t" d="M29.06,346.89c-5.06,5.72-9.18,12.27-12.14,19.31-.66,1.58-1.25,3.18-1.8,4.8-3.22-8.78-5.66-17.83-7.29-27.05-.11-.63-1.1-.48-.99,.15,1.72,9.75,4.34,19.33,7.83,28.6,.15,.39,.79,.38,.92-.02,2.29-7.24,5.74-14.09,10.23-20.22,1.27-1.73,2.61-3.39,4.03-4.99,.43-.48-.38-1.07-.81-.59Z"/></g><g><path class="o" d="M68.01,341.62c13.74-6.05,33.57-6.66,45.93,5.31-2.96-11.84-14.52-20.25-26.84-22.16-3.48,.51-6.85,1.5-10.03,3.07-1.83,.9-3.31-1.9-1.48-2.8,.18-.09,.36-.16,.54-.25-9.23,1.32-17.87,5.61-25.46,11.35-2.23,3.24-4.03,6.78-5.21,10.54-.61,1.95-3.63,1.01-3.02-.93,.41-1.3,.89-2.58,1.43-3.84-.71,.67-1.4,1.34-2.08,2.03-4.71,4.75-8.91,9.99-12.58,15.57-1.66,5.71-2.33,11.8-3.01,17.57-.24,2.01-3.4,1.92-3.16-.1,.35-2.97,.7-6.01,1.17-9.04-4.04,7.62-7.15,15.74-9.23,24.12-2.01,8.13-2.68,16.31-3.26,24.63-.4,5.72,1.08,10.81,5.08,15.15,.05,.06,.11,.11,.16,.16,9.69-34.26,18.29-73.68,51.04-90.39Z"/><path class="u" d="M68.01,341.62c-32.75,16.71-41.35,56.13-51.04,90.39,5.69,5.93,15.14,3.44,20.63-1.46,4.08-3.64,6.78-8.53,9.12-13.49-3.52,1.54-6.88,3.43-10.11,5.5-1.72,1.1-3.18-1.71-1.48-2.8,4.26-2.73,8.73-5.09,13.47-6.85,2.44-5.49,4.73-11.04,7.09-16.57-2.22,1.07-4.37,2.26-6.46,3.49-1.76,1.04-3.23-1.76-1.48-2.8,3.12-1.84,6.4-3.58,9.8-5,2.02-4.59,4.13-9.14,6.49-13.57,3.25-6.1,7.03-12.02,11.48-17.32-3.43,.46-6.81,1.21-10.12,2.25-1.95,.61-2.65-2.48-.72-3.08,4.57-1.43,9.2-2.19,13.86-2.56,3.52-3.71,7.43-7.02,11.78-9.75,.22-.14,.44-.27,.66-.4-.6-.06-1.19-.11-1.78-.17-.85-.08-1.56-.73-1.53-1.63,.03-.82,.78-1.61,1.63-1.53,2.2,.2,4.43,.43,6.63,.82,2.18-.88,4.45-1.48,6.8-1.59,4.44-.21,9.17,1.57,11.6,5.3-.11-.63-.24-1.25-.4-1.86-12.36-11.97-32.19-11.35-45.93-5.31Z"/><path class="t" d="M82.7,338.33c-7.56-.68-15.02,1.69-21.37,5.7-7.17,4.52-12.73,11.1-17.21,18.21-4.99,7.92-8.96,16.51-12.74,25.07-3.97,9-7.53,18.17-10.67,27.49-3.13,9.28-5.84,18.69-8.13,28.21-.28,1.18-.56,2.36-.83,3.55-.12,.53,.72,.65,.84,.12,2.17-9.47,4.75-18.84,7.75-28.08,2.98-9.16,6.35-18.19,10.13-27.05,3.65-8.58,7.54-17.14,12.19-25.24,4.24-7.39,9.42-14.46,16.29-19.61,5.98-4.47,13.22-7.55,20.76-7.65,.96-.01,1.92,.03,2.88,.12,.54,.05,.67-.79,.12-.84Z"/><path class="t" d="M75.62,344.8c-4.78-1.16-9.78-1.13-14.56,.02,2.71-3.76,5.42-7.51,8.13-11.27,.32-.44-.34-.97-.66-.53-2.94,4.07-5.87,8.14-8.81,12.22-.26,.36,.09,.77,.49,.66,4.98-1.4,10.27-1.47,15.29-.25,.53,.13,.65-.71,.12-.84Z"/><path class="t" d="M54.29,366.63c-6.07,3.44-11.73,7.58-16.85,12.32-1.13,1.05-2.22,2.13-3.29,3.23,.79-6.61,2.32-13.12,4.59-19.38,.69-1.89,1.44-3.75,2.25-5.58,.22-.5-.55-.84-.78-.34-2.88,6.51-4.97,13.36-6.21,20.36-.35,2.01-.63,4.03-.85,6.06-.05,.44,.46,.63,.75,.33,4.76-5.01,10.09-9.46,15.87-13.25,1.64-1.08,3.32-2.1,5.02-3.06,.47-.27-.04-.94-.51-.68Z"/><path class="t" d="M38.06,400.11c-5.52,3.37-10.49,7.63-14.64,12.59-.93,1.11-1.81,2.26-2.65,3.44-.41-7.91-.13-15.84,.86-23.69,.07-.54-.77-.66-.84-.12-1.05,8.32-1.32,16.72-.81,25.09,.02,.35,.55,.51,.75,.21,3.66-5.29,8.16-9.96,13.33-13.8,1.45-1.08,2.96-2.09,4.51-3.03,.47-.28-.04-.96-.51-.68Z"/></g></g></g><g><path class="h" d="M74.58,104.53c3.38,8.89,6.76,17.77,10.13,26.66,.5-3.29,1-6.59,1.49-9.88,2.22,6.56,4.45,13.13,6.67,19.69,.82-3.39,1.65-6.78,2.47-10.17,1.64,8.53,3.28,17.06,4.93,25.59-1.27-9.42-2.39-18.23-3.67-27.65,.09,.41,.18,.82,.27,1.22l-.28-6.66c-.92,2.28-1.69,3.9-2.61,6.18-1.73-5.59-3.35-11.67-5.08-17.26-1.39,2.15-2.06,3.34-3.45,5.5-1.5-5.62-2.74-11.24-4.25-16.86l-6.64,3.65Z"/><g><path class="t" d="M113.18,89.83c-.25-3.9-2.28-7.82-5.82-9.24-3.58-1.43-8.65-.44-10.89,2.69-2.58-9.47-13.04-16.06-22.69-14.29-7.11,1.3-13.4,6.97-15.85,13.76-2.47,.81-4.61,2.63-5.69,4.99-.15,.32-.26,.65-.37,.99-3.37-.26-6.87,.86-9.27,3.25-3.68,3.65-4.44,9.87-1.76,14.3,2.09,3.45,6.47,5.53,10.46,6.14s8.25-1.17,10.61-4.45c4.93,4.91,12.07,7.05,18.85,5.49,5.65-1.3,10.64-5.14,13.47-10.18,1.19,.05,2.35-.1,3.47-.56,.4-.16,.77-.37,1.13-.61,4.63,.75,11.68-3.57,13.26-6.56,.88-1.66,1.23-3.69,1.1-5.73Z"/><path class="l" d="M113.18,89.83c-.25-3.9-2.28-7.82-5.82-9.24-3.58-1.43-8.65-.44-10.89,2.69-2.58-9.47-13.04-16.06-22.69-14.29-7.11,1.3-13.4,6.97-15.85,13.76-2.47,.81-4.61,2.63-5.69,4.99-.15,.32-.26,.65-.37,.99-3.37-.26-6.87,.86-9.27,3.25-3.41,3.39-4.31,8.99-2.28,13.32,.29-3.57,2.17-6.91,5.08-9.23,3-2,7,0,10,2-1-6,2-14,9-12,1,0-3,4,0,6,0-6,7-9,12-10,9-2,19,2,20,12,1-3-1-8,2-9,6-3,9,2,11,7,.85,1.69,1.28,3.47,1.35,5.19,.59-.58,1.05-1.16,1.33-1.7,.88-1.66,1.23-3.69,1.1-5.73Z"/></g></g></g></g></g></svg>